<?xml version="1.0" encoding="utf-8"?>
<!-- Generator: Adobe Illustrator 24.0.1, SVG Export Plug-In . SVG Version: 6.00 Build 0)  -->
<svg
	 width="2em" height="2em" viewBox="0 0 512 512" stroke="currentColor" fill="currentColor">
<g id="layer1" transform="matrix(1.4695199,0,0,1.331406,4.6123205,-146.13657)">
	<path id="path4" d="M245.3,243c62.2,0.8,98.6,36.9,57.4,86.3c-18.9,22.7-51,45.2-93.6,59.7
		c-2,0.7-4.1,1.3-6.1,2c-4,1.2-8,2.4-11.9,3.5c-9.2,2.5-18.3,4.7-27,6.3c-9.3,1.8-18.4,3.2-27.1,4.1c-6.2,0.5-12.2,1-18.1,1.1
		c-39.7,1-69.6-9.3-79.3-31.3c-11.7-26.2,12-62.9,59.5-90.7C63.9,297.3,0,328.8-2.7,374v5.7c0.3,4.6,1.2,9.2,2.8,14
		c10.2,30.5,57.9,44.7,118.8,39.5c6-0.4,11.9-1.1,18.1-2c8.9-1.2,17.9-2.9,27.1-4.9c8.9-2,17.9-4.4,27-7c2-0.7,4-1.2,6.1-1.9
		c4.1-1.2,8.1-2.6,12-4c52.7-18.1,91.9-42.2,114.7-69.8c13-15.9,19.8-30.7,21.1-43.6v-10C341.1,257,300.5,237.7,245.3,243z
		 M204.8,226.7c1.5,0,2.8-0.2,4.1-0.4c8.9-2.1,13.1-11,13.5-21.5c0.4-11.2-3.8-20.5-13.5-21.8c-0.8-0.2-1.7-0.2-2.6-0.2
		c-7.7,0-12.8,4.4-15.5,10.8c-1.3,3.3-2.1,7.1-2.2,11.2c-0.2,4.8,0.5,9.4,2.2,13.1C193.5,223.2,197.9,226.7,204.8,226.7L204.8,226.7
		z M204.7,230.4c-3.9,0-7.3,0.4-10.2,1.1l0.8,1.1l1.5,2.6l1.2,2.6l1,2.7l0.7,2.8l0.5,2.8l0.3,2.9l0.1,2.8v3l-0.2,2.9l-0.2,2.9
		l-0.4,2.9l-0.4,2.9l-0.6,2.9l-0.6,2.9l-0.6,2.8l-0.7,2.8l-0.6,2.7l-0.7,2.6l-0.7,2.6l-0.7,2.5l-0.6,2.4l-0.6,2.3l-0.3,1.4l-0.4,1.6
		l-0.4,1.7l-0.3,1.8l-0.4,1.9l-0.3,1.6v0.4l-0.4,2.1l-0.7,2.6l-0.3,2.2l-0.4,2.3l-0.3,2.3l-0.4,2.3l-0.3,2.4l-0.4,2.3l-0.3,2.4
		l-0.3,2.4l-0.3,2.4v0.1c0.6,6.8,1.1,12.6,1.4,15.9c0.3,3.8,1.1,6.5,2.4,8.4c1.9,2.7,5,3.7,9.4,4.1c3.7-0.4,6.5-1.1,8.7-2.9
		c2-1.8,3.2-4.8,4-9.5c1.6-9.8,6.2-41.8,10.2-55.6c5.7-19.8,19.5-55.8-14.3-58.6C207.5,230.4,206.1,230.4,204.7,230.4L204.7,230.4z
		 M163.8,220.3h0.2c13-0.1,19.2-11.4,19.2-25.2s-6.1-25.2-19.2-25.3h-0.2c-13.2,0-19.4,11.4-19.4,25.3S150.5,220.3,163.8,220.3z
		 M136.8,278.8c1.2,4.8,2.4,9.2,3.4,13.3c4.1,15.9,8.1,52.6,9.6,63.7c1.4,11.2,5.6,13.6,14.1,14.4c8.3-0.8,12.6-3.2,14-14.4
		c1.4-11.1,5.5-47.9,9.5-63.7c1-4,2.3-8.5,3.5-13.3c3.7-14.5,6.7-31.5,0-42.5c-4.3-7-12.6-11.6-27-11.6c-14.5,0-22.8,4.7-27.1,11.6
		C130.1,247.1,133.2,264.2,136.8,278.8z M118.9,226.3c1.3,0.3,2.6,0.4,4.1,0.4c6.9,0,11.5-3.5,14-8.9c1.6-3.7,2.3-8.3,2.2-13.1
		c-0.2-4.1-0.9-7.8-2.2-11.2c-2.7-6.4-7.8-10.8-15.5-10.8c-0.9,0-1.8,0-2.6,0.2c-9.7,1.3-14,10.7-13.5,21.8
		C105.6,215.3,110,224.2,118.9,226.3L118.9,226.3z M114.8,344.7c0.7,4.8,2,7.7,4,9.5c2.1,1.9,4.9,2.6,8.7,2.9
		c4.4-0.4,7.5-1.3,9.4-4.1c1.2-1.8,2-4.6,2.4-8.4c0.3-3.3,0.8-9.1,1.4-15.9v-0.2l-0.3-2.4l-0.3-2.4l-0.4-2.4l-0.3-2.3l-0.3-2.4
		l-0.4-2.3l-0.3-2.3l-0.4-2.3l-0.4-2.2l-0.3-2.1l-0.4-2.1v-0.3l-0.3-1.7l-0.4-1.9l-0.4-1.8l-0.3-1.7l-0.4-1.6l-0.4-1.4l-0.5-2.3
		l-0.7-2.4l-0.6-2.5l-0.7-2.6l-0.7-2.6l-0.7-2.7l-0.6-2.8l-0.7-2.8l-0.6-2.9l-0.5-2.9l-0.4-2.9l-0.4-2.9l-0.3-2.9l-0.1-3v-2.9
		l0.1-2.8l0.3-2.9l0.5-2.8l0.7-2.8l0.9-2.7l1.3-2.6l1.5-2.6l0.8-1.1c-2.9-0.7-6.3-1.1-10.2-1.1c-1.5,0-2.9,0-4.3,0.2
		c-33.7,2.7-19.9,38.8-14.3,58.6C108.6,302.9,113.2,335,114.8,344.7L114.8,344.7z"/>
</g>
</svg>
