<?xml version="1.0" encoding="UTF-8" standalone="no"?>
<svg
   xmlns:dc="http://purl.org/dc/elements/1.1/"
   xmlns:cc="http://creativecommons.org/ns#"
   xmlns:rdf="http://www.w3.org/1999/02/22-rdf-syntax-ns#"
   xmlns:svg="http://www.w3.org/2000/svg"
   xmlns="http://www.w3.org/2000/svg"
   width="24.776751mm"
   height="20.247042mm"
   viewBox="0 0 24.776751 20.247042"
   version="1.1"
   id="svg16">
  <defs
     id="defs10">
    <style
       id="style18">.cls-1{fill:none;}.cls-2{fill:#58595b;}.cls-3{clip-path:url(#clip-path);}.cls-4{fill:#231f20;}.cls-5{fill:#a70532;}</style>
    <clipPath
       id="clip-path"
       transform="translate(0 -0.55)">
      <rect
         class="cls-1"
         x="0.059999999"
         y="0.55000001"
         width="229.09"
         height="79.449997"
         id="rect20" />
    </clipPath>
  </defs>
  <metadata
     id="metadata13">
    <rdf:RDF>
      <cc:Work
         rdf:about="">
        <dc:format>image/svg+xml</dc:format>
        <dc:type
           rdf:resource="http://purl.org/dc/dcmitype/StillImage" />
        <dc:title></dc:title>
      </cc:Work>
    </rdf:RDF>
  </metadata>
  <g
     id="layer1"
     transform="translate(-126.16207,-18.456644)">
    <g
       id="g443"
       transform="matrix(0.26458333,0,0,0.26458333,51.320285,25.762915)">
      <path
         class="cls-2"
         d="m 369.33715,-6.5000004 c -0.35,-0.67 0,0.44 -0.27,-0.42 a 0.61,0.61 0 0 1 0.27,0.42"
         id="path27" />
      <path
         class="cls-2"
         d="m 367.76715,-9.0700004 c -1.6,-1.8499996 -3.27,-4.6099996 -5.42,-6.2299996 -0.24,-0.19 0.22,-0.11 -0.34,-0.54 a 68.49,68.49 0 0 0 -8,-5.53 h 0.2 a 16.83,16.83 0 0 0 -1.85,-0.68 c 0,0 0.21,0 0.1,-0.1 -0.2,0.07 -1.1,-0.34 -1.39,-0.34 -0.29,0 -0.16,-0.22 -0.45,-0.39 h -0.39 c -1.06,0 -2.35,-0.69 -3.73,-0.83 0.07,0 0.21,0 0.11,-0.08 a 45.51,45.51 0 0 0 -7.4,-0.39 c 0.1,0 0.19,-0.15 0,-0.21 a 3.73,3.73 0 0 1 -1.53,0.28 c -0.31,-0.18 -1.11,0.27 -1.88,0.27 h 0.07 c -0.54,0.24 -0.86,0 -1.28,0.27 l -0.38,-0.08 c -0.2,0.27 -0.83,0.07 -1.26,0.29 v 0 c -0.42,0.16 -0.67,0.1 -1.06,0.23 v 0 c -0.93,0.25 -1.49,0.36 -1.41,0.51 -0.37,0 0.86,-0.36 0.3,-0.39 a 45.6,45.6 0 0 0 -8.67,4.19 2.79,2.79 0 0 1 -0.64,0.26 12.12,12.12 0 0 0 -1.13,1 c 0.08,-0.07 -0.22,0.05 -0.36,0.14 -0.51,0.3 -0.41,0.51 -0.93,0.88 0.16,-0.2 0.19,-0.31 0.08,-0.3 a 12.23,12.23 0 0 1 -1.32,1.41 c 0.06,-0.09 0.16,-0.21 0.1,-0.23 -0.41,0.59 -1,0.82 -1.32,1.37 l 0.08,-0.25 c -0.76,0.66 0,0.37 -0.67,0.95 0.11,-0.17 0,-0.14 0,-0.2 -0.41,0.72 -1.34,1.63 -1.73,2.33 v -0.05 a 16,16 0 0 0 -1.54,2.2599996 c -0.22,0.27 -0.15,-0.24 -0.6,0.57 0.19,0.08 -0.74,1.39 -0.25,1 a 11.38,11.38 0 0 0 -1.2,2.25 c 0.09,-0.36 -0.39,0.23 -0.12,-0.36 l -0.33,0.39 c 0,-0.1 0.25,-0.45 0.08,-0.35 -0.12,0.31 -0.49,1.2 -0.61,1.47 a 10.18,10.18 0 0 1 -0.38,2.15 c 0.08,-0.46 -0.31,0.18 -0.23,-0.13 a 11.17,11.17 0 0 0 0,1.41999997 c -0.07,0.32 -0.17,0 -0.24,0.5 0.06,0 0,0.2 0.05,0.34000000456 0.05,0.13999999544 -0.29,1.32000002544 -0.53,1.42000002544 -0.24,0.1 0.1,-0.53000003 -0.06,-0.19 a 9.93,9.93 0 0 0 -0.16,1.22 v 0 c -0.09,0.39 -0.1,1.17 0.08,0.76 0.18,-0.41 -0.14,0.09 0,-0.31 a 5.11,5.11 0 0 1 -0.1,1.58 c 0,-0.21 0,-0.19 -0.1,-0.28 0,0.82 0.08,1.68 0.07,2.57 0.09,0 -0.15,-0.34 -0.1,-0.47 -0.25,1.15 0.11,2.37 0,3.33 0,-0.16 0.13,-0.09 0.1,-0.08 0,0.5500004 -0.13,0.5400004 -0.07,0.8900004 -0.07,0.05 0,0.46 0.12,0.82 0.08,0.19 0,0.1 -0.08,-0.22 0.17,0.5 0.45,2.55 0.65,3.72 a 3.06,3.06 0 0 1 0.41,0.94 l -0.14,-0.07 c 0,0.26 0.22,0.89 0.12,1 0.28,0.53 -0.64,-2.17 -0.35,-1.43 -0.05,0.23 0.45,1 0.25,0.91 0.13,0.53 0.37,1 0.45,1.54 0,-0.15 -0.32,-0.37 -0.16,0.05 0.27,0.74 0.13,0.19 0.37,0.78 l 0.18,0.36 c 0.13,0 0.21,0.67 0.25,0.35 -0.06,0.13 0.42,1.05 0.21,1.05 h -0.19 a 3.05,3.05 0 0 0 0.57,0.65 c 0,0 0,0.14 0,0.14 0.25,-0.05 0.32,0.74 0.66,1 0.19,0.7 0.77,1.62 0.84,2 a 6.94,6.94 0 0 1 0.93,1.38 c -0.08,-0.09 -0.17,-0.23 -0.23,-0.24 a 2,2 0 0 0 0.45,0.71 6.33,6.33 0 0 0 0.52,1.12 c 0.38,0.4 0.38,0.17 0.48,0.17 0.11,0.53 1,1.16 1.25,1.74 -0.16,-0.11 -0.61,-0.52 -0.37,-0.14 0.24,0.38 0.81,0.63 1.26,1.3 v -0.28 c 0.15,0.35 0.87,0.79 0.67,0.87 0.21,0.17 0.62,0.71 0.69,0.51 0.85,1 2.41,2.07 2.88,2.78 0.17,0.09 0.53,0.4 0.51,0.26 -0.19,-0.28 -0.4,-0.2 -0.45,-0.33 0.14,0.1 0.2,0.08 0.23,0.06 0.3,0.28 0.55,0.49 0.15,0.39 0.67,0.63 0.92,0.32 1.87,1 -0.09,0 0,0.12 0.26,0.28 l 0.62,0.21 c 0.62,0.42 0.27,0.38 0.22,0.51 a 2.52,2.52 0 0 0 1,0.42 l 0.36,0.37 c -0.26,-0.27 0.34,0.07 0.52,0.12 h -0.18 a 2.46,2.46 0 0 0 0.69,0.33 c 0,-0.1 -0.42,-0.33 -0.64,-0.47 0.21,0 0.49,0.19 0.76,0.24 -0.14,0.08 0.55,0.37 0.83,0.52 0.28,0.15 0.42,0 0.52,0.09 0.1,0.09 0.55,0.21 0.25,0.21 -0.13,0 -0.24,-0.17 -0.46,-0.18 0.21,0.13 0.13,0.24 0.64,0.32 0.51,0.08 0,-0.28 0.64,0 a 1.63,1.63 0 0 0 -0.39,0 l 0.6,0.29 0.07,-0.1 c 0.07,0.06 0,0 0,0.08 0.23,-0.06 1,0.31 1.16,0.22 0.32,0.08 0.65,0.26 1,0.36 h -0.06 a 3.4,3.4 0 0 0 1.21,0.25 v 0 a 3.64,3.64 0 0 0 1,0.17 c 0.52,0.17 0.09,0.48 0.71,0.43 0.62,-0.05 0.89,-0.09 0.69,-0.2 1,0.27 2.08,0.2 3,0.42 0.14,0 0.06,-0.08 0.35,-0.09 1.44,0.21 3,-0.15 4.19,0.08 -0.41,0.07 0,0.13 0,0.2 0.33,-0.12 0.42,0.07 0.53,-0.13 0,-0.11 0,-0.15 -0.42,-0.16 a 14.51,14.51 0 0 1 2.63,-0.29 c -0.25,0 -0.07,-0.08 0.11,-0.14 0,0.19 0.61,0.14 1.06,-0.06 v -0.12 h 0.33 c 0.17,-0.08 0.15,-0.27 0.63,-0.28 l 0.17,0.08 a 8.58,8.58 0 0 1 1.64,-0.57 h 0.46 c 0.21,-0.09 0.55,-0.31 0.15,-0.22 a 8.51,8.51 0 0 1 1.79,-0.36 c 1.35,-0.91 3.41,-1.86 5,-2.83 v 0.12 c 0.47,-0.18 0.15,-0.25 0.48,-0.37 -0.1,0.14 0.41,0 0.13,0.22 0.67,-0.27 0.69,-0.61 1,-0.91 0,-0.12 -0.26,0.28 -0.26,0.12 0,-0.16 0.83,-0.51 0.82,-0.71 0.18,0 0.14,0.12 0.1,0.23 l 0.3,-0.32 c 0.55,-0.16 -0.77,1 -0.19,0.85 l 0.32,-0.26 c 0.41,-0.09 -0.76,0.79 0.1,0.23 0.31,-0.33 0.47,-0.73 0.11,-0.56 0.7,-0.58 0.12,-0.53 0.88,-1.13 0.27,-0.09 -0.58,0.51 -0.36,0.49 0.47,-0.16 0.65,-0.66 1,-0.89 -0.38,0.26 -0.2,-0.12 0,-0.34 0.42,-0.27 -0.14,0.33 0.39,-0.12 0,-0.15 0.45,-0.63 0,-0.31 0,-0.32 0.58,-0.44 0.75,-0.81 0.27,-0.05 -0.3,0.73 0.32,0.27 -0.17,0 0.52,-0.82 0.09,-0.67 0.23,-0.2 0.34,-0.14 0.25,0.08 0.36,-0.26 0.51,-1 0.82,-0.86 v -0.23 l 0.48,-0.3 c 0.28,-0.26 0.66,-1 0.79,-0.88 0.06,-0.11 0.58,-0.8 0.26,-0.63 -0.39,0.38 -0.28,0.57 -0.62,0.68 0.36,-0.2 0.44,-0.64 0.58,-0.92 h 0.1 c 0.08,-0.16 0.35,-0.49 0.34,-0.64 0,0.14 0.05,0.12 0.16,0 v -0.24 c 0.39,-0.63 0.3,0 0.69,-0.61 l -0.24,0.5 c 0,-0.12 0.33,-0.23 0.46,-0.56 0.13,-0.33 0,-0.48 0,-0.62 0.16,-0.38 0.21,-0.09 0.31,-0.5 l -0.15,0.53 c 0,0.09 0.35,-0.2 0.63,-0.68 0.15,-0.32 0.28,-0.87 -0.06,-0.43 0.14,-0.23 0.4,-0.53 0.36,-0.3 0.29,-0.55 -0.15,0 0.06,-0.49 0.18,-0.15 0.56,-0.72 0.85,-1 l -0.07,0.6 0.17,-0.34 c -0.07,0.51 0.21,-0.17 0.24,0.15 a 2.77,2.77 0 0 0 0.29,-0.77 c -0.56,0.56 0,-0.92 -0.28,-0.82 0.38,-0.94 0.81,-0.36 0.83,-1.5 -0.11,0.14 -0.11,-0.39 -0.27,0.23 0.24,-0.58 -0.08,-0.49 0.27,-1.15 -0.1,0.55 0.44,-0.48 0.3,0.32 -0.06,-0.07 -0.21,0.4 -0.23,0.53 0.17,-0.22 0.21,0.14 0.43,-0.48 0.12,-0.39 0.31,-0.91 0.16,-0.87 -0.15,0.04 -0.2,0.58 -0.25,0.29 0.24,-0.75 0.47,-0.83 0.31,-1.21 -0.1,0.49 -0.28,0.56 -0.38,0.52 l 0.11,-0.57 0.06,0.14 c 0.29,-0.88 -0.1,-0.32 0.15,-1.18 l 0.29,-0.36 c 0.1,0.25 -0.4,1.25 -0.11,1.16 a 12.41,12.41 0 0 1 0.28,-1.3 l -0.05,0.41 a 1.74,1.74 0 0 0 0.46,-1.19 c 0,-0.44 -0.06,-0.13 -0.15,-0.16 0.12,-0.94 0.07,-1.23 0.15,-1.83 0.16,0.15 0.19,-1.06 0.27,-0.37 a 4.78,4.78 0 0 0 -0.24,2 c 0.29,-0.29 -0.17,0.73 0,1 0.21,-0.74 0.4,-0.66 0.56,-0.75 a 2.2,2.2 0 0 0 0,-0.56 c -0.12,-0.11 -0.16,0.16 -0.3,0.15 a 7.54,7.54 0 0 0 0.17,-2.14 c 0.11,-0.27 0.23,-0.17 0.19,0.17 0.13,-1 0.14,-2.1 0.27,-3.0600004 -0.26,0.6100004 0,-1.07 -0.2,-0.65 -0.2,0.42 -0.26,0.94 -0.34,0.66 -0.08,-0.28 0.09,0 0.15,-0.12 -0.08,-0.41 0.23,-0.63 0,-1 0.1,0.92 0.27,0.18 0.45,0.35 -0.12,-0.67 0.12,0 0.1,-0.64 -0.02,-0.64 -0.22,-1.49 -0.28,-2.22 a 19.42,19.42 0 0 0 -0.42,-3.17 c 0,-0.44 0.25,-0.19 0.17,-0.66 -0.08,-0.47 -0.11,0.45 -0.21,-0.38 l 0.06,0.07 c -0.11,-0.23 -0.22,-1.51000003 -0.55,-1.67000003 l 0.26,0.19 -0.14,-0.4 c 0.06,0 0.08,-0.22 0.18,0 0.05,-0.55 -0.35,-0.99999997 -0.52,-1.54999997 v 0.37 c -0.41,-0.86 -0.48,-1.51 -0.84,-2.36 h 0.12 l -0.29,-0.47 c 0.16,0.08 0,-0.41 -0.19,-0.63 l 0.86,1.19 c 0.07,0.4 -0.29,-0.36 -0.31,-0.08 a 2.24,2.24 0 0 0 0.44,1.13 2.19,2.19 0 0 0 -0.25,-0.55 c 0.12,-0.16 0.28,0.31 0.47,0.51 -0.07,-0.16 -0.1,-0.41 -0.16,-0.43 a 5.18,5.18 0 0 1 0.5,1.15 c -0.19,-0.34 0,0.23 -0.13,0.11 0.16,0 0.39,0.49 0.57,1.16999997 -0.06,0.53 0.4,1.25 0.54,2.06000003 a 4.73,4.73 0 0 1 -0.61,-1.13000003 c 0,0.51 0.14,0.54 0.18,1.05000003 a 2.45,2.45 0 0 1 0.59,1 h -0.1 a 4.9,4.9 0 0 1 0.39,1.33 28.09,28.09 0 0 1 0.24,3.67 h -0.11 a 8.08,8.08 0 0 1 0.17,2.61 14.92,14.92 0 0 1 -0.43,3.4100004 23.08,23.08 0 0 1 -1.53,6.39 V 19.3 c 0,0.44 -0.19,0.23 -0.31,0.62 0.29,-0.4 0,0.6 0,0.91 a 19.82,19.82 0 0 0 -1.29,3.06 h -0.12 a 12.4,12.4 0 0 1 -1.65,2.76 2.62,2.62 0 0 0 -0.52,0.49 11.58,11.58 0 0 1 -0.9,1.69 12.62,12.62 0 0 1 -1.7,1.81 c -1.5,2.11 -3.67,3.65 -5.75,5.32 h -0.23 a 29.7,29.7 0 0 1 -7.05,3.73 l 0.13,-0.28 c -0.68,0.15 -1.47,0.56 -1.26,0.66 a 6.44,6.44 0 0 1 -2.11,0.53 8.49,8.49 0 0 0 -1.4,0.47 c -1.4,0.26 -1.94,0.23 -3.26,0.49 h 0.33 c 0.14,-0.07 0.14,-0.17 -0.19,-0.14 -0.49,0.17 -1.84,0.11 -1.32,0.34 -1.44,-0.08 -3.36,0.26 -4.75,-0.11 0.11,0.08 -0.24,0.08 -0.39,0.12 -1.28,0 -2.55,-0.51 -3.57,-0.51 -0.19,-0.07 0.34,-0.07 -0.16,-0.16 -0.31,0 0,0.09 -0.41,0.07 a 28.56,28.56 0 0 1 -5.69,-1.88 31.45,31.45 0 0 1 -8.56,-5 h 0.06 c -1,-0.52 -1.71,-1.82 -2.55,-2.16 -0.16,-0.2 -0.64,-0.72 -0.44,-0.65 -0.65,-0.55 -1.55,-1.79 -2.37,-2.69 l 0.2,0.23 c -0.6,-1.08 -1.48,-1.8 -2,-3 0.09,0.1 0.23,0.3 0.29,0.31 -0.16,-0.49 -0.8,-0.91 -0.71,-1.28 -0.15,-0.24 -0.22,-0.11 -0.12,0 a 41.43,41.43 0 0 1 -3.53,-8.09 c -0.34,-2.11 0.39,-0.23 -0.18,-1.81 0,-0.14 -0.12,-0.08 -0.07,-0.11 -0.23,-0.61 0.06,-1 -0.12,-1.45 -0.13,0.21 -0.12,-0.28 -0.22,-0.28 a 12.9,12.9 0 0 0 -0.19,-2.57 l 0.09,0.07 c -0.26,-1.1700004 -0.25,-2.5600004 -0.45,-3.5800004 a 33.74,33.74 0 0 1 5.88,-18.3499996 33.08,33.08 0 0 1 14.9,-11.81 13.87,13.87 0 0 0 3.17,-1 c -0.05,0.05 -0.15,0.09 0,0.09 0,-0.23 1.13,-0.33 1.24,-0.53 a 34.07,34.07 0 0 1 7,-1 c -0.39,0 -0.58,0.18 -0.11,0.15 l 0.48,-0.13 h 0.08 c 0.32,0 0.66,-0.14 0.33,-0.18 a 32.31,32.31 0 0 1 17.61,4.82 c 1.23,0.75 2.92,1.92 4.2,2.85 a 42.32,42.32 0 0 1 8.32,10.6099996 5.27,5.27 0 0 1 -1.79,-1.9"
         id="path29" />
      <path
         class="cls-2"
         d="m 369.72715,-5.6800004 c 0,0.19 0.17,0.69 -0.12,0.36 0.05,-0.09 0,-0.38 0.12,-0.36"
         id="path31" />
      <path
         class="cls-2"
         d="m 371.93715,8.0299996 c 0,0 0,0.2 0,0.24 0,-0.17 -0.1,-0.32 0,-0.46 0,0.17 0,0.15 0.09,0.22"
         id="path33" />
      <path
         class="cls-2"
         d="m 371.73715,11.54 a 4,4 0 0 1 -0.08,-1.25 l 0.08,1.25"
         id="path35" />
      <path
         class="cls-2"
         d="m 370.91715,14.72 c -0.13,0.26 -0.14,0.17 -0.08,-0.2 0.05,0 0.05,0.11 0.08,0.2"
         id="path37" />
      <path
         class="cls-2"
         d="m 371.04715,14.98 a 1.47,1.47 0 0 1 -0.23,0.5 c 0.07,0 0.12,-0.62 0.23,-0.5"
         id="path39" />
      <path
         class="cls-2"
         d="m 368.56715,21.57 c -0.07,0.16 -0.17,0.52 -0.32,0.62 0.14,-0.13 0.27,-0.79 0.32,-0.62"
         id="path41" />
      <path
         class="cls-2"
         d="m 367.14715,24.52 a 0.88,0.88 0 0 0 -0.14,0.23 c -0.13,0.15 -0.08,-0.06 0,-0.2 h 0.14"
         id="path43" />
      <polyline
         class="cls-2"
         points="163.05 59.37 163.32 59.61 163.23 59.62 163.05 59.37"
         id="polyline45"
         transform="translate(152.85715,-30)" />
      <path
         class="cls-2"
         d="m 308.14715,4.8899996 c 0,-0.36 0.11,-0.23 0.12,-0.29 0,0.32 -0.09,-0.13 -0.12,0.29"
         id="path47" />
      <polyline
         class="cls-2"
         points="159.55 21.32 159.49 21.42 159.37 21.3 159.55 21.32"
         id="polyline49"
         transform="translate(152.85715,-30)" />
      <path
         class="cls-2"
         d="m 324.08715,-23.66 c -0.73,0.38 0.46,-0.06 -0.46,0.28 a 0.74,0.74 0 0 1 0.46,-0.28"
         id="path51" />
      <path
         class="cls-2"
         d="m 321.28715,-21.97 c -2,1.71 -5,3.55 -6.77,5.87 -0.22,0.26 -0.11,-0.22 -0.59,0.38 a 70.63,70.63 0 0 0 -6,8.7399996 v -0.22 a 17.6,17.6 0 0 0 -0.76,2 c 0,0 0,-0.23 -0.09,-0.1 a 14.59,14.59 0 0 1 -0.39,1.5 c -0.14,0.24 -0.23,0.18 -0.4,0.5 v 0.42 c 0,1.13 -0.74,2.54999997 -0.91,4 0,-0.08 0,-0.23000003 -0.08,-0.12000003 a 48.54,48.54 0 0 0 -0.44,8.00000003 c -0.06,-0.11 -0.15,-0.2 -0.21,-0.05 a 4.39,4.39 0 0 1 0.28,1.6700004 c -0.18,0.33 0.28,1.2 0.29,2 v -0.06 c 0.24,0.59 0,0.92 0.28,1.39 l -0.07,0.41 c 0.27,0.22 0.09,0.89 0.32,1.37 v 0 c 0.16,0.46 0.11,0.73 0.24,1.16 v 0 c 0.27,1 0.39,1.61 0.54,1.54 0,0.39 -0.39,-0.94 -0.4,-0.34 a 48.91,48.91 0 0 0 4.53,9.42 2.79,2.79 0 0 1 0.3,0.69 c 0.24,0.26 0.81,1 1.06,1.24 -0.07,-0.1 0.06,0.23 0.17,0.39 0.33,0.54 0.54,0.45 0.95,1 -0.22,-0.17 -0.33,-0.2 -0.32,-0.09 a 13.47,13.47 0 0 1 1.52,1.44 c -0.09,-0.06 -0.22,-0.17 -0.25,-0.11 0.64,0.45 0.9,1.08 1.49,1.44 l -0.26,-0.1 c 0.72,0.82 0.38,0.06 1,0.74 -0.18,-0.12 -0.15,0 -0.21,0 0.76,0.46 1.76,1.46 2.52,1.89 h -0.05 a 18.17,18.17 0 0 0 2.45,1.68 c 0.29,0.23 -0.25,0.14 0.63,0.63 0.08,-0.19 1.5,0.81 1.11,0.3 a 12.21,12.21 0 0 0 2.45,1.29 c -0.38,-0.09 0.27,0.41 -0.38,0.12 l 0.43,0.35 c -0.11,0 -0.49,-0.27 -0.38,-0.1 l 1.59,0.67 a 11.25,11.25 0 0 1 2.33,0.44 c -0.49,-0.09 0.2,0.32 -0.13,0.23 a 13,13 0 0 0 1.53,0.09 c 0.35,0.07 0,0.17 0.54,0.25 0,-0.06 0.21,0 0.37,0 0.16,0 1.44,0.32 1.54,0.56 0.1,0.24 -0.57,-0.11 -0.2,0.06 a 9.67,9.67 0 0 0 1.33,0.18 v 0 c 0.42,0.09 1.27,0.11 0.82,-0.07 -0.29,0 0.09,0.14 -0.33,0 a 6.54,6.54 0 0 1 1.71,0.12 0.37,0.37 0 0 0 -0.3,0.1 c 0.88,0 1.82,-0.07 2.79,0 0,-0.1 -0.37,0.15 -0.51,0.09 1.24,0.26 2.57,-0.1 3.61,0 -0.16,0 -0.09,-0.13 -0.08,-0.11 0.6,0 0.58,0.14 1,0.07 0,0.08 0.5,0 0.89,-0.12 0.2,-0.08 0.11,0 -0.24,0.08 0.55,-0.18 2.77,-0.47 4,-0.69 a 3.38,3.38 0 0 1 1,-0.44 l -0.08,0.15 c 0.28,0 1,-0.24 1,-0.15 0.59,-0.29 -2.36,0.69 -1.55,0.38 0.25,0 1.13,-0.47 1,-0.26 0.58,-0.15 1.11,-0.39 1.68,-0.49 -0.16,0 -0.41,0.33 0,0.16 a 6.63,6.63 0 0 0 0.86,-0.4 l 0.39,-0.19 c 0,-0.12 0.73,-0.23 0.38,-0.26 0.14,0.06 1.15,-0.45 1.14,-0.24 v 0.19 a 3.34,3.34 0 0 0 0.72,-0.59 c 0,0 0.15,0 0.14,0 0,-0.25 0.81,-0.35 1.13,-0.7 0.75,-0.21 1.76,-0.84 2.13,-0.92 a 8.48,8.48 0 0 1 1.51,-1 c -0.11,0.09 -0.26,0.19 -0.27,0.26 a 2.68,2.68 0 0 0 0.78,-0.5 7.17,7.17 0 0 0 1.2,-0.58 c 0.44,-0.41 0.19,-0.4 0.19,-0.5 0.57,-0.14 1.28,-1.07 1.9,-1.36 -0.12,0.17 -0.58,0.65 -0.16,0.38 0.42,-0.27 0.69,-0.87 1.42,-1.36 h -0.3 c 0.37,-0.16 0.87,-0.93 0.94,-0.73 0.19,-0.23 0.77,-0.68 0.57,-0.74 1.09,-0.94 2.25,-2.61 3,-3.15 0.1,-0.18 0.43,-0.57 0.29,-0.55 -0.29,0.21 -0.22,0.43 -0.36,0.49 0.11,-0.15 0.09,-0.22 0.08,-0.25 0.3,-0.33 0.52,-0.6 0.4,-0.17 0.68,-0.73 0.38,-1 1.07,-2 0,0.09 0.11,0 0.29,-0.29 l 0.24,-0.67 c 0.45,-0.68 0.4,-0.3 0.53,-0.25 a 3,3 0 0 0 0.47,-1.07 l 0.38,-0.4 c -0.28,0.29 0.08,-0.36 0.14,-0.56 l -0.06,0.2 a 3.15,3.15 0 0 0 0.37,-0.76 c -0.1,0 -0.36,0.47 -0.5,0.71 0,-0.23 0.2,-0.53 0.26,-0.83 0.08,0.15 0.4,-0.59 0.56,-0.9 0.16,-0.31 0,-0.46 0.1,-0.56 0.1,-0.1 0.24,-0.6 0.22,-0.28 0,0.14 -0.17,0.27 -0.19,0.5 0.14,-0.23 0.25,-0.15 0.35,-0.69 0.1,-0.54 -0.29,0 0.06,-0.7 a 2,2 0 0 0 0,0.42 l 0.32,-0.65 -0.11,-0.07 c 0.06,-0.08 0.05,0 0.08,0 -0.05,-0.25 0.34,-1.06 0.26,-1.25 l 0.38,-1 v 0.06 a 3.77,3.77 0 0 0 0.28,-1.32 v 0 a 4.25,4.25 0 0 0 0.19,-1.06 c 0.18,-0.56 0.49,-0.1 0.44,-0.78 -0.05,-0.68 -0.07,-1 -0.19,-0.74 0.28,-1 0.23,-2.26 0.45,-3.24 0,-0.16 -0.08,-0.06 -0.09,-0.38 0.23,-1.5700004 -0.15,-3.3000004 0.09,-4.5600004 0.06,0.45 0.12,0 0.19,0 -0.12,-0.37 0.07,-0.47 -0.13,-0.59 -0.11,0 -0.15,0 -0.16,0.46 a 17.59,17.59 0 0 1 -0.32,-2.86 c 0,0.27 -0.08,0.07 -0.14,-0.12 0.19,0 0.13,-0.66 -0.07,-1.15 l -0.13,-0.05 V 0.95999957 c -0.08,-0.19 -0.28,-0.17 -0.29,-0.7 a 0.21,0.21 0 0 0 0.07,-0.17 11.08,11.08 0 0 1 -0.61,-1.78999997 v -0.5 c -0.1,-0.23 -0.33,-0.6 -0.23,-0.17 a 10.59,10.59 0 0 1 -0.41,-1.94 c -1,-1.47 -2,-3.73 -3.06,-5.42 h 0.1 c -0.21,-0.4999996 -0.26,-0.16 -0.4,-0.5199996 0.15,0.11 -0.07,-0.44 0.23,-0.13 -0.31,-0.72 -0.66,-0.76 -1,-1.14 -0.13,0 0.3,0.29 0.13,0.29 -0.17,0 -0.57,-0.91 -0.76,-0.91 -0.07,-0.19 0.12,-0.14 0.23,-0.09 l -0.34,-0.34 c -0.19,-0.58 1.05,0.86 0.88,0.24 l -0.28,-0.34 c -0.12,-0.44 0.84,0.83 0.23,-0.1 -0.35,-0.34 -0.78,-0.53 -0.58,-0.14 -0.63,-0.77 -0.55,-0.15 -1.21,-1 -0.1,-0.29 0.56,0.64 0.52,0.4 -0.17,-0.5 -0.71,-0.71 -1,-1.08 0.29,0.41 -0.11,0.2 -0.35,0 -0.3,-0.45 0.35,0.16 -0.15,-0.42 -0.15,0 -0.67,-0.5 -0.31,0 -0.34,-0.06 -0.49,-0.62 -0.88,-0.82 -0.06,-0.28 0.77,0.35 0.26,-0.33 0,0.18 -0.88,-0.57 -0.7,-0.12 -0.22,-0.25 -0.16,-0.35 0.07,-0.26 -0.28,-0.38 -1,-0.57 -0.93,-0.88 h -0.22 c -0.08,-0.13 -0.21,-0.3 -0.33,-0.52 -0.29,-0.3 -1.12,-0.72 -1,-0.85 -0.12,-0.07 -0.87,-0.64 -0.67,-0.3 0.41,0.42 0.61,0.32 0.74,0.67 -0.23,-0.38 -0.69,-0.48 -1,-0.64 v -0.1 c -0.19,-0.09 -0.54,-0.38 -0.7,-0.38 0.15,0.05 0.12,0 0,-0.16 h -0.25 c -0.68,-0.43 0,-0.31 -0.68,-0.73 l 0.55,0.27 c -0.13,0 -0.26,-0.35 -0.62,-0.5 -0.19,0 -0.5,0 -0.66,0 -0.41,-0.18 -0.1,-0.21 -0.54,-0.34 l 0.57,0.18 c 0.1,0 -0.23,-0.37 -0.75,-0.67 -0.34,-0.17 -0.93,-0.33 -0.45,0 -0.26,-0.15 -0.58,-0.43 -0.34,-0.38 -0.6,-0.32 0,0.15 -0.52,-0.08 -0.16,-0.19 -0.79,-0.6 -1.15,-0.9 l 0.65,0.09 -0.37,-0.18 c 0.55,0.08 -0.19,-0.23 0.15,-0.25 a 4,4 0 0 0 -0.84,-0.32 c 0.63,0.6 -1,-0.06 -0.86,0.26 -1,-0.42 -0.41,-0.83 -1.64,-0.89 0.15,0.12 -0.42,0.11 0.26,0.28 -0.64,-0.26 -0.53,0.07 -1.26,-0.3 0.6,0.11 -0.52,-0.46 0.34,-0.3 -0.08,0.06 0.44,0.23 0.58,0.26 -0.24,-0.19 0.14,-0.21 -0.53,-0.46 -0.42,-0.13 -1,-0.33 -0.94,-0.18 0.06,0.15 0.63,0.22 0.32,0.25 -0.82,-0.26 -0.9,-0.49 -1.32,-0.34 0.53,0.11 0.62,0.3 0.58,0.4 l -0.62,-0.12 0.14,-0.06 c -1,-0.32 -0.34,0.09 -1.27,-0.18 l -0.4,-0.29 c 0.26,-0.1 1.36,0.42 1.26,0.13 a 14.16,14.16 0 0 1 -1.42,-0.31 l 0.45,0.06 a 2,2 0 0 0 -1.3,-0.49 c -0.48,0 -0.14,0.06 -0.17,0.15 -1,-0.14 -1.34,-0.09 -2,-0.18 0.16,-0.16 -1.15,-0.2 -0.4,-0.28 a 5.59,5.59 0 0 0 2.17,0.28 c -0.32,-0.31 0.79,0.17 1.05,0 -0.8,-0.22 -0.72,-0.42 -0.82,-0.58 a 3.32,3.32 0 0 0 -0.61,0 c -0.12,0.12 0.18,0.16 0.17,0.3 a 9.15,9.15 0 0 0 -2.32,-0.2 c -0.3,-0.12 -0.19,-0.24 0.17,-0.19 -1.09,-0.15 -2.28,-0.16 -3.32,-0.29 0.67,0.26 -1.17,0 -0.71,0.19 0.46,0.19 1,0.28 0.72,0.35 -0.28,0.07 0,-0.09 -0.13,-0.15 -0.44,0.08 -0.68,-0.23 -1.12,0 1,-0.1 0.19,-0.27 0.38,-0.45 -0.73,0.12 0,-0.13 -0.69,-0.1 -0.69,0.03 -1.62,0.22 -2.42,0.29 a 22.88,22.88 0 0 0 -3.44,0.45 c -0.48,0 -0.2,-0.24 -0.72,-0.16 -0.52,0.08 0.48,0.1 -0.41,0.22 l 0.08,-0.06 c -0.25,0.11 -1.64,0.25 -1.83,0.58 l 0.22,-0.26 -0.44,0.15 c 0,-0.06 -0.23,-0.08 0,-0.19 -0.59,0 -1.11,0.38 -1.68,0.57 h 0.41 c -0.95,0.43 -1.65,0.52 -2.57,0.91 v -0.12 l -0.51,0.32 c 0.09,-0.18 -0.44,0 -0.69,0.21 l 1.31,-0.92 c 0.43,-0.08 -0.39,0.31 -0.09,0.32 a 2.72,2.72 0 0 0 1.22,-0.47 2.25,2.25 0 0 0 -0.6,0.26 c -0.17,-0.12 0.35,-0.29 0.56,-0.48 -0.17,0.06 -0.44,0.1 -0.46,0.17 a 5.91,5.91 0 0 1 1.25,-0.54 c -0.38,0.2 0.24,0 0.11,0.13 0,-0.16 0.54,-0.4 1.28,-0.6 a 16.4,16.4 0 0 0 2.23,-0.59 4.85,4.85 0 0 1 -1.23,0.63 c 0.55,-0.05 0.59,-0.14 1.14,-0.19 a 2.72,2.72 0 0 1 1.08,-0.62 l 0.06,0.1 a 5.57,5.57 0 0 1 1.44,-0.4 29.74,29.74 0 0 1 4,-0.27 v 0.11 a 9.53,9.53 0 0 1 3.16,-0.16 15.79,15.79 0 0 1 3.7,0.47 25.62,25.62 0 0 1 6.94,1.66 h -0.46 c 0.47,0 0.25,0.19 0.67,0.32 -0.44,-0.3 0.64,0 1,0.07 a 23.91,23.91 0 0 0 3.32,1.41 v 0.11 a 15,15 0 0 1 3,1.8 2.63,2.63 0 0 0 0.54,0.55 13.71,13.71 0 0 1 1.82,1 13.54,13.54 0 0 1 2,1.83 c 2.28,1.65 4,4 5.76,6.26 v 0.24 a 32.23,32.23 0 0 1 4,7.6399996 l -0.28,-0.14 c 0.18,0.73 0.61,1.6 0.7,1.37 a 7.68,7.68 0 0 1 0.59,2.27999997 9.38,9.38 0 0 0 0.49,1.52 c 0.29,1.52000003 0.26,2.10000003 0.53,3.54000003 v -0.36 c -0.07,-0.15 -0.17,-0.16 -0.14,0.2 0.18,0.53 0.13,2 0.36,1.44 -0.08,1.56 0.26,3.64 -0.12,5.1400004 0.09,-0.12 0.08,0.26 0.11,0.43 0,1.38 -0.53,2.76 -0.54,3.86 -0.07,0.21 -0.07,-0.37 -0.17,0.18 0,0.33 0.1,0 0.07,0.44 a 32.34,32.34 0 0 1 -2,6.17 34.73,34.73 0 0 1 -5.38,9.28 v -0.07 c -0.58,1 -1.95,1.86 -2.34,2.76 -0.21,0.17 -0.78,0.69 -0.7,0.48 -0.61,0.69 -1.93,1.69 -2.92,2.57 l 0.25,-0.22 a 39,39 0 0 1 -3.24,2.19 c 0.11,-0.09 0.32,-0.24 0.33,-0.3 -0.52,0.18 -1,0.84 -1.38,0.77 -0.27,0.16 -0.13,0.23 0,0.12 a 43.89,43.89 0 0 1 -8.76,3.82 c -2.28,0.38 -0.24,-0.39 -2,0.21 -0.16,0 -0.09,0.12 -0.12,0.07 -0.67,0.25 -1.12,0 -1.57,0.14 0.22,0.13 -0.31,0.13 -0.31,0.23 a 15.75,15.75 0 0 0 -2.78,0.21 l 0.08,-0.08 c -1.28,0.25 -2.79,0.26 -3.89,0.45 a 36.59,36.59 0 0 1 -19.88,-6.38 36,36 0 0 1 -12.83,-16.13 16.14,16.14 0 0 0 -1.07,-3.44 c 0,0.06 0.1,0.17 0.09,0 -0.23,0 -0.35,-1.22 -0.55,-1.35 a 35.57,35.57 0 0 1 -1.12,-7.6100004 c 0,0.4200004 0.18,0.6300004 0.16,0.12 l -0.14,-0.52 v -0.08 c 0,-0.35 -0.14,-0.73 -0.19,-0.37 a 35.23,35.23 0 0 1 5.21,-19.0699996 c 0.81,-1.35 2.08,-3.17 3.09,-4.55 a 45.21,45.21 0 0 1 11.48,-9 6,6 0 0 1 -2.08,1.89"
         id="path53" />
      <path
         class="cls-2"
         d="m 324.97715,-24.09 c 0.2,0 0.74,-0.18 0.37,0.12 -0.08,-0.06 -0.39,0 -0.37,-0.12"
         id="path55" />
      <path
         class="cls-2"
         d="m 339.85715,-26.55 c 0,0 0.21,0 0.26,0 -0.19,0 -0.36,0.1 -0.51,0 0.19,0 0.16,0 0.25,-0.09"
         id="path57" />
      <path
         class="cls-2"
         d="m 343.67715,-26.34 a 5.55,5.55 0 0 1 -1.37,0.06 l 1.37,-0.06"
         id="path59" />
      <path
         class="cls-2"
         d="m 347.12715,-25.48 c 0.28,0.13 0.2,0.13 -0.21,0.07 0,0 0.12,0 0.21,-0.07"
         id="path61" />
      <path
         class="cls-2"
         d="m 347.40715,-25.61 a 1.83,1.83 0 0 1 0.55,0.24 c 0,-0.07 -0.67,-0.13 -0.55,-0.24"
         id="path63" />
      <path
         class="cls-2"
         d="m 354.59715,-22.93 c 0.16,0.08 0.55,0.19 0.67,0.34 -0.15,-0.14 -0.85,-0.29 -0.67,-0.34"
         id="path65" />
      <path
         class="cls-2"
         d="m 357.79715,-21.37 a 1.27,1.27 0 0 0 0.26,0.15 c 0.16,0.14 -0.06,0.07 -0.22,0 v -0.14"
         id="path67" />
      <polyline
         class="cls-2"
         points="210.2 64.38 210.46 64.09 210.47 64.19 210.2 64.38"
         id="polyline69"
         transform="translate(152.85715,-30)" />
      <path
         class="cls-2"
         d="m 336.43715,42.82 c -0.39,0 -0.26,-0.11 -0.32,-0.13 0.35,0 -0.14,0.09 0.32,0.13"
         id="path71" />
      <polyline
         class="cls-2"
         points="168.84 68.16 168.94 68.22 168.82 68.34 168.84 68.16"
         id="polyline73"
         transform="translate(152.85715,-30)" />
      <path
         class="cls-2"
         d="m 313.08715,-9.7500004 c -0.22,-0.1 0,0.19 -0.17,0 0.06,0 0.13,-0.05 0.17,0"
         id="path75" />
      <path
         class="cls-2"
         d="m 366.77715,25.5 c -0.88,-0.07 -1.49,-1 -2.34,-1.22 -0.1,0 0.14,-0.18 -0.07,-0.26 a 5.59,5.59 0 0 1 -2.53,-1.8 h 0.08 c -0.13,-0.14 -0.44,-0.09 -0.59,-0.22 0,0 0.08,0 0.08,-0.09 -0.12,0.08 -0.34,-0.15 -0.46,-0.12 -0.12,0.03 0,-0.17 0,-0.27 l -0.18,0.06 c -0.46,0.12 -0.64,-0.44 -1.1,-0.53 l 0.07,-0.06 a 13.25,13.25 0 0 1 -2.11,-1.09 c 0,0 0.13,-0.09 0.12,-0.16 -0.11,0.11 -0.34,0 -0.53,-0.08 0,-0.19 -0.38,-0.07 -0.54,-0.28 v 0 c -0.25,0 -0.18,-0.23 -0.41,-0.14 v -0.17 c -0.19,0.15 -0.15,-0.24 -0.34,-0.23 v 0 c -0.15,0 -0.15,-0.16 -0.28,-0.21 v 0 c -0.29,-0.12 -0.37,-0.33 -0.46,-0.17 0,-0.18 0.28,0.1 0.25,-0.16 a 17.21,17.21 0 0 1 -2.65,-1.56 c -0.06,-0.12 -0.11,-0.18 -0.1,-0.25 0.01,-0.07 -0.33,-0.19 -0.46,-0.16 0,0 0,-0.11 -0.05,-0.15 -0.05,-0.04 -0.27,0 -0.4,-0.13 0.09,0 0.15,0 0.16,-0.09 -0.22,0 -0.4,-0.13 -0.6,-0.2 h 0.12 c -0.27,0 -0.33,-0.25 -0.55,-0.28 h 0.12 c -0.2,-0.28 -0.19,0.12 -0.38,-0.09 l 0.1,-0.06 c -0.31,0 -0.62,-0.26 -0.87,-0.35 v 0 a 4.93,4.93 0 0 0 -0.75,-0.44 c -0.07,-0.1 0.16,-0.19 -0.11,-0.32 -0.1,0.18 -0.46,-0.2 -0.44,0.09 a 2.07,2.07 0 0 0 -0.66,-0.48 c 0.13,0 0,-0.28 0.22,-0.18 l -0.07,-0.19 c 0.07,-0.06 0.12,0.11 0.14,0 a 2.12,2.12 0 0 1 -0.45,-0.23 1.37,1.37 0 0 1 -0.79,-0.06 c 0.17,0 0.05,-0.23 0.16,-0.2 l -0.58,0.08 c -0.1,0 0.07,-0.15 -0.09,-0.18 h -0.16 c 0,0 -0.39,-0.19 -0.32,-0.39 0.07,-0.2 0.17,0.06 0.11,-0.06 -0.06,-0.12 -0.21,-0.05 -0.37,-0.16 v 0 c -0.09,-0.1 -0.36,-0.14 -0.31,0 0.05,0.14 0,-0.12 0.12,0 a 0.73,0.73 0 0 1 -0.51,-0.16 l 0.15,-0.07 a 2.75,2.75 0 0 1 -0.84,-0.22 c -0.05,0.08 0.19,-0.09 0.2,0 -0.24,-0.32 -0.75,-0.26 -0.9,-0.6 0,0 -0.05,0.13 0,0.11 0.05,-0.02 -0.06,-0.22 -0.19,-0.24 0,-0.08 -0.13,-0.06 -0.25,-0.1 -0.12,-0.04 0,-0.06 0.09,0 a 2.51,2.51 0 0 1 -1.06,-0.61 c 0,0.05 -0.31,0 -0.38,0 l 0.1,-0.09 c 0,-0.1 -0.26,-0.15 -0.21,-0.25 -0.24,0 0.68,0.29 0.4,0.25 0,-0.12 -0.41,0 -0.27,-0.14 -0.15,-0.09 -0.37,-0.07 -0.45,-0.2600004 0,0 0.22,-0.07 0.09,-0.14 -0.13,-0.07 -0.09,0 -0.28,-0.07 h -0.14 c -0.08,0.1 -0.18,-0.14 -0.18,0 0,-0.11 -0.34,-0.15 -0.21,-0.31 l 0.12,-0.12 c -0.1,0 -0.24,0.05 -0.35,0.06 v -0.08 c -0.16,0.19 -0.21,-0.16 -0.42,-0.07 -0.15,-0.2 -0.49,-0.33 -0.5,-0.52 a 0.79,0.79 0 0 1 -0.51,-0.2 h 0.14 c -0.07,-0.13 -0.13,-0.1 -0.25,-0.13 0,0 -0.13,-0.25 -0.2,-0.41 -0.07,-0.16 -0.21,0.11 -0.27,0.17 0,-0.29 -0.5,-0.14 -0.55,-0.43 0.07,0 0.28,0 0.19,-0.09 0,-0.29 -0.37,0 -0.52,-0.27 l -0.06,0.21 c 0,-0.17 -0.38,-0.12 -0.25,-0.27 -0.11,0 -0.22,-0.23 -0.3,0 -0.26,-0.37 -0.92,-0.48 -0.94,-0.92 -0.07,0 -0.18,-0.11 -0.21,0 -0.03,0.11 0.16,0 0.15,0.09 h -0.11 c -0.08,-0.11 -0.16,-0.18 0,-0.25 -0.18,-0.26 -0.44,0.11 -0.71,-0.16 0.06,-0.06 0.06,-0.1 0,-0.15 h -0.28 c -0.19,-0.16 0,-0.23 0,-0.35 -0.12,0 -0.25,-0.14 -0.35,-0.09 v -0.23 c 0,0.17 -0.13,0 -0.2,0 h 0.07 c 0,-0.06 -0.14,-0.11 -0.21,-0.14 -0.07,-0.03 0.08,0.19 0.13,0.26 h -0.27 c 0.09,-0.1 -0.13,-0.2 -0.21,-0.27 -0.08,-0.07 -0.17,0 -0.2,0 -0.03,0 -0.16,-0.12 0,-0.15 0.16,-0.03 0,0.11 0.13,0.09 0.13,-0.02 0,-0.18 -0.15,-0.19 -0.15,-0.01 -0.12,0.24 -0.27,0 l 0.18,-0.05 -0.15,-0.18 -0.07,0.1 v -0.17 c -0.12,0.07 -0.29,-0.15 -0.41,0 -0.1,-0.05 -0.15,-0.2 -0.23,-0.27 v 0 a 0.37,0.37 0 0 0 -0.37,-0.17 v 0 a 0.48,0.48 0 0 0 -0.31,-0.1 c -0.1,-0.18 0.21,-0.42 0,-0.4 -0.21,0.02 -0.36,0 -0.34,0.14 -0.22,-0.24 -0.64,-0.27 -0.78,-0.6 -0.07,0 -0.06,0.06 -0.16,0 -0.36,-0.29 -0.9,-0.42 -1.08,-0.82 0.14,0 0.07,-0.1 0.11,-0.16 -0.16,0 0,-0.17 -0.19,0 -0.19,0.17 -0.09,0.13 0,0.24 a 1.41,1.41 0 0 1 -0.69,-0.51 c 0,0.09 0,0.09 -0.1,0.08 0.11,-0.14 -0.05,-0.27 -0.21,-0.31 l -0.08,0.08 v -0.15 c -0.07,0 -0.18,0.16 -0.26,0 v -0.12 c -0.19,0 -0.46,0 -0.55,-0.18 V 0.98999957 c -0.07,0 -0.23,0 -0.14,0.09 -0.2,-0.24000009 -0.36,-0.36000009 -0.36,-0.52000009 a 3.41,3.41 0 0 1 -1.74,-0.76 l 0.06,-0.05 c -0.09,-0.16 -0.15,0.07 -0.21,0 0.09,0 0,-0.21 0.15,-0.22 -0.15,-0.19 -0.33,0 -0.47,-0.09 -0.14,-0.09 0.14,0 0,0.1 -0.14,0.1 -0.22,-0.24 -0.34,-0.13 0,-0.08 0.09,-0.15 0.15,-0.19 h -0.16 c 0,-0.25999991 0.51,-0.07 0.49,-0.35999991 l -0.13,-0.05 c 0,-0.21 0.39,0 0.15,-0.2 -0.16,0 -0.39,0.12 -0.32,0.25 -0.27,-0.13 -0.32,0.23999991 -0.58,0.06 0,-0.13 0.22,0.11999991 0.24,0 0.02,-0.12 -0.29,-0.1 -0.37,-0.21 0.09,0.13 -0.1,0.2 -0.2,0.17 -0.1,-0.03 0.17,-0.07 0,-0.21 -0.08,0.06 -0.3,0 -0.18,0.16 -0.18,0.13 -0.17,-0.18 -0.36,-0.11 0,-0.17 0.38,-0.16 0.21,-0.36 0,0.14 -0.36,0 -0.36,0.24 a 0.14,0.14 0 0 1 0.1,-0.22 c -0.07,-0.15 -0.43,0 -0.32,-0.23 l -0.11,0.09 -0.06,-0.23 c -0.11,-0.07 -0.45,0 -0.32,-0.23 0,0 -0.27,-0.16 -0.27,0 0,0.16 0.23,0 0.2,0.25 0,-0.21 -0.22,-0.13 -0.34,-0.13 v -0.08 c -0.07,0 -0.18,-0.1 -0.26,0 a 0.07,0.07 0 0 0 0.05,-0.12 l -0.13,0.07 c -0.24,-0.08 0.08,-0.22 -0.14,-0.32 h 0.21 c -0.05,0 -0.05,-0.15 -0.17,-0.18 l -0.33,0.21 c -0.14,0 0,-0.15 -0.15,-0.12 h 0.22 c 0,0 0,-0.23 -0.14,-0.32 -0.14,-0.09 -0.36,0 -0.25,0.17 -0.07,-0.05 -0.14,-0.18 0,-0.22 -0.2,-0.07 -0.05,0.13 -0.24,0.09 0,-0.1 -0.14,-0.32 -0.19,-0.49 l 0.26,-0.07 -0.1,-0.06 c 0.22,-0.05 0,-0.15 0.16,-0.24 0,-0.07 -0.17,-0.07 -0.26,-0.08 0.06,0.35 -0.43,0.15 -0.5,0.4 -0.32,-0.13 0.15,-0.61 -0.35,-0.49 0,0.09 -0.23,0.15 0,0.21 -0.15,-0.14 -0.25,0.13 -0.4,-0.09 0.21,0 0,-0.31 0.28,-0.29 -0.06,0.05 0.08,0.13 0.13,0.13 0.05,0 0.15,-0.19 0,-0.31 -0.15,-0.12 -0.27,-0.15 -0.32,0 -0.05,0.15 0.17,0.1 0,0.17 -0.25,-0.1 -0.17,-0.3 -0.39,-0.15 a 0.18,0.18 0 0 1 0,0.29 l -0.19,-0.05 0.08,-0.06 c -0.22,-0.22 -0.17,0.09 -0.4,-0.09 v -0.23 c 0.15,-0.09 0.32,0.3 0.42,0.05 -0.16,-0.11 -0.28,0 -0.4,-0.19 h 0.15 c -0.06,-0.05 0.07,-0.37 -0.27,-0.35 -0.16,0 -0.08,0.05 -0.13,0.13 -0.28,-0.14 -0.41,-0.11 -0.58,-0.21 0.13,-0.13 -0.29,-0.2 0,-0.24 0,0.14 0.4,0.38 0.59,0.29 0,-0.25 0.19,0.16 0.37,0 -0.21,-0.14 -0.08,-0.31 0,-0.45 h -0.19 c -0.1,0.1 0,0.14 -0.09,0.26 a 0.9,0.9 0 0 0 -0.67,-0.23 0.11,0.11 0 0 1 0.15,-0.16 3.6,3.6 0 0 1 -0.82,-0.56 c 0.05,0.3 -0.32,-0.14 -0.3,0.09 0.02,0.23 0.14,0.34 0,0.37 -0.14,0.03 0.06,-0.08 0.05,-0.14 -0.18,0 -0.07,-0.28 -0.28,-0.19 0.29,0.1 0.19,-0.19 0.33,-0.31 -0.23,0 0.08,-0.09 -0.1,-0.21 l -0.72,-0.22 c -0.16,-0.3 -0.63,-0.42 -0.86,-0.56 -0.07,-0.15 0.12,-0.26 0,-0.38 -0.12,-0.12 0,0.25 -0.18,0 v 0 c -0.09,0 -0.33,-0.38 -0.55,-0.19 l 0.18,-0.13 h -0.14 c 0,-0.06 0,-0.15 0.12,-0.14 -0.06,-0.21 -0.3,-0.17 -0.46,-0.26 v 0.17 c -0.31,-0.09 -0.41,-0.3 -0.68,-0.43 l 0.07,-0.1 h -0.18 c 0.1,-0.08 0,-0.23 -0.13,-0.2 h 0.63 c 0.07,0.13 -0.2,0.05 -0.2,0.19 0,0.14 0.25,0.25 0.35,0.18 -0.08,-0.07 -0.1,0 -0.19,-0.06 0.06,-0.16 0.19,-0.07 0.32,-0.12 0,0 -0.09,-0.11 -0.13,-0.07 a 0.63,0.63 0 0 1 0.39,0.13 c -0.14,0 0,0.12 -0.07,0.14 0.1,-0.12 0.26,-0.06 0.43,0.09 0.17,0.15 0.4,0.14 0.59,0.32 a 0.83,0.83 0 0 1 -0.51,0.06 c 0.09,0.15 0.15,0.1 0.25,0.25 a 0.64,0.64 0 0 1 0.48,-0.11 l -0.06,0.1 c 0.19,0.06 0.29,-0.08 0.47,0.07 0.18,0.15 0.67,0.51 0.93,0.7 l -0.05,0.1 c 0.28,-0.11 0.54,0.24 0.8,0.29 0.27,0.31 0.79,0.38 0.85,0.66 a 12,12 0 0 1 1.81,1 l -0.2,0.07 c 0.18,0 0,0.13 0.15,0.18 -0.06,-0.19 0.24,0 0.37,-0.08 a 1.6,1.6 0 0 0 0.94,0.47 v 0.1 c 0.36,0 0.55,0.33 0.84,0.56 0,0.06 0,0.18 0.11,0.23 a 1.57,1.57 0 0 1 0.65,0.09 2.9,2.9 0 0 1 0.58,0.53 18.17,18.17 0 0 1 2.1,0.88 v 0.14 c 0.83,0.21 1.52,0.99999991 2.18,1.21999991 l -0.18,0.15 c 0.14,0.18 0.44,0.23 0.49,0.06 0.14,0.18 0.51,0.21 0.52,0.44 0.16,0.15 0.28,0.06 0.46,0.13 a 2.59,2.59 0 0 0 0.84,0.58 l -0.08,-0.06 a 0.09,0.09 0 0 0 0,0.16 c 0.16,0 0.44,0.36000009 0.46,0.05 0.29,0.38000009 0.94,0.47000009 1.19,0.88000009 0,-0.08 0.11,0 0.17,-0.05 0.33,0.21 0.6,0.56 0.92,0.63 0,0.06 -0.15,0 0,0.14 0.15,0.14 0.06,-0.08 0.18,-0.05 0.6,0.23 1,0.82 1.49,1.11 a 28.28,28.28 0 0 1 2.63,1.6 v 0 c 0.39,0 0.53,0.6 0.92,0.49 0,0.08 0.23,0.18 0.13,0.24 0.3,0 0.54,0.51 0.95,0.56 h -0.09 c 0.25,0.3 0.62,0.35 0.9,0.66 h -0.16 c 0.08,0.18 0.44,0 0.37,0.28 0.07,0.05 0.12,-0.08 0.07,-0.1 a 15.89,15.89 0 0 0 2.37,1.4 c 0.46,0.49 -0.21,0.39 0.33,0.51 0,0.07 0.08,-0.07 0.06,0 0.21,0 0.1,0.42 0.29,0.38 0,-0.16 0.13,0 0.19,-0.1 0.28,0.3 0.27,0.47 0.6,0.5400004 l -0.07,0.06 c 0.44,0 0.73,0.35 1.15,0.29 1.74,1.08 3.48,2 5.17,3.1 1.69,1.1 3.31,2.09 4.92,3.31 a 1.16,1.16 0 0 0 0.79,0.67 h -0.06 c 0.12,-0.13 0.31,0.19 0.45,0.07 0.6,0.44 1.2,0.77 1.84,1.19 -0.11,0 -0.24,0 -0.11,0.11 h 0.18 v 0.06 c 0.09,0 0.23,0 0.18,-0.09 1.69,0.92 3.07,2.26 4.68,3.25 a 7.62,7.62 0 0 0 1.32,0.84 14.54,14.54 0 0 0 3.26,2.56 1.06,1.06 0 0 1 -1,0"
         id="path77" />
      <path
         class="cls-2"
         d="m 313.33715,-9.6100004 c 0,0.1 0.1,0.24 -0.07,0.27 l 0.07,-0.27"
         id="path79" />
      <path
         class="cls-2"
         d="m 316.56715,-6.3800004 c 0,0 0,0.06 0,0.08 0,0.02 -0.13,0 -0.14,-0.05 h 0.11"
         id="path81" />
      <path
         class="cls-2"
         d="m 317.48715,-5.7100004 c -0.06,0.06 -0.29,0 -0.42,-0.1 l 0.42,0.1"
         id="path83" />
      <path
         class="cls-2"
         d="m 318.19715,-4.8500004 c 0,0.11 0,0.12 -0.1,0.05 l 0.1,-0.05"
         id="path85" />
      <path
         class="cls-2"
         d="m 318.36715,-4.9600004 a 0.21,0.21 0 0 1 0.09,0.17 c 0,-0.06 -0.19,-0.08 -0.09,-0.17"
         id="path87" />
      <path
         class="cls-2"
         d="m 320.16715,-3.5000004 c 0.05,0 0.19,0 0.18,0.14 0,-0.09 -0.28,-0.07 -0.18,-0.14"
         id="path89" />
      <path
         class="cls-2"
         d="m 321.13715,-3.0200004 h 0.07 c 0,0.07 0,0.08 -0.1,0.06 v -0.11"
         id="path91" />
      <polyline
         class="cls-2"
         points="184.81 37.42 184.69 37.39 184.75 37.34 184.81 37.42"
         id="polyline93"
         transform="translate(152.85715,-30)" />
      <path
         class="cls-2"
         d="m 344.85715,12.11 c 0.13,0 0,0.11 0,0.13 0,0.02 0.09,-0.07 0,-0.13"
         id="path95" />
      <polyline
         class="cls-2"
         points="196.07 44.3 196.04 44.29 196.14 44.16 196.07 44.3"
         id="polyline97"
         transform="translate(152.85715,-30)" />
      <path
         class="cls-2"
         d="m 308.24715,14.6 c -0.22,0.08 0.16,0.11 -0.14,0.09 0,-0.07 0.06,-0.13 0.14,-0.09"
         id="path99" />
      <path
         class="cls-2"
         d="m 371.13715,1.5499996 c -0.66,0.57 -1.74,0.36 -2.51,0.8 -0.1,0 0,-0.23 -0.23,-0.13 a 5.64,5.64 0 0 1 -3.06,0.51 v -0.07 c -0.19,0 -0.38,0.25 -0.58,0.26 0,0 0.05,-0.07 0,-0.12 0,0.14 -0.34,0.13 -0.4,0.25 -0.09,0 -0.11,-0.14 -0.22,-0.18 l -0.08,0.17 c -0.24,0.41 -0.77,0.14 -1.16,0.41 0,0 0.06,-0.08 0,-0.1 a 13.6,13.6 0 0 1 -2.26,0.73 0.2,0.2 0 0 0 0,-0.21 c 0,0.16 -0.24,0.25 -0.44,0.32 -0.12,-0.13 -0.32,0.22 -0.58,0.18 v 0 c -0.14,0.2 -0.28,0 -0.38,0.18 l -0.14,-0.1 c 0,0.24 -0.28,-0.06 -0.41,0.09 v 0 c -0.13,0.08 -0.23,0 -0.35,0 v 0 c -0.28,0.12 -0.49,0 -0.44,0.2 -0.14,-0.11 0.28,-0.12 0.07,-0.29 a 17.31,17.31 0 0 1 -3,0.78 c -0.12,0 -0.2,0 -0.24,-0.11 -0.04,-0.11 -0.37,0.11 -0.44,0.22 -0.07,0.11 -0.08,-0.08 -0.14,-0.08 -0.06,0 -0.16,0.23 -0.37,0.2 0.07,-0.06 0.08,-0.13 0,-0.18 -0.14,0.17 -0.37,0.19 -0.56,0.28 l 0.05,-0.12 c -0.19,0.2 -0.41,0 -0.58,0.19 l 0.05,-0.12 c -0.34,-0.05 -0.05,0.23 -0.33,0.22 0.06,0 0,-0.08 0,-0.13 -0.21,0.24 -0.63,0.26 -0.87,0.38 v 0 a 3.87,3.87 0 0 0 -0.84,0.22 c -0.12,0 0,-0.25 -0.3,-0.16 0,0.2 -0.47,0.19 -0.25,0.38 a 2.12,2.12 0 0 0 -0.81,0.13 c 0.09,-0.1 -0.17,-0.22 0,-0.28 l -0.18,-0.09 c 0,-0.09 0.16,0 0.09,-0.1 a 2.26,2.26 0 0 1 -0.48,0.16 c -0.16,0.16 -0.29,0.43 -0.59,0.52 0.13,-0.11 -0.13,-0.21 0,-0.26 l -0.35,0.47 c -0.1,0 0,-0.15 -0.19,-0.07 0,0 0,0.1 -0.07,0.15 -0.07,0.05 -0.42,0.14 -0.5,-0.05 -0.08,-0.19 0.15,-0.08 0,-0.12 -0.15,-0.04 -0.19,0.11 -0.38,0.15 v 0 c -0.14,0 -0.36,0.16 -0.2,0.24 0.16,0.08 0,-0.11 0.09,-0.08 a 0.72,0.72 0 0 1 -0.47,0.25 c 0.06,0 0,-0.1 0.05,-0.16 a 2.47,2.47 0 0 1 -0.75,0.44 c 0,0.09 0.08,-0.19 0.13,-0.15 -0.39,-0.06 -0.71,0.34 -1.06,0.21 0.05,0 0.06,0.13 0.05,0.1 -0.18,0 -0.2,-0.11 -0.3,0 -0.1,0.11 -0.14,0.06 -0.25,0.11 -0.11,0.05 0,0 0.06,-0.06 a 2.48,2.48 0 0 1 -1.18,0.32 c 0,0 -0.19,0.24 -0.28,0.25 v -0.13 c -0.1,0 -0.29,0.08 -0.33,0 -0.15,0.19 0.69,-0.27 0.46,-0.11 -0.09,-0.09 -0.31,0.27 -0.29,0.09 -0.17,0 -0.31,0.22 -0.5,0.14 0.05,0 0.1,-0.2 0,-0.16 -0.1,0.04 0,0.07 -0.25,0.15 l -0.11,0.08 c 0,0.12 -0.23,0 -0.11,0.15 -0.05,-0.1 -0.34,0.13 -0.36,-0.07 v -0.17 c -0.1,0 -0.14,0.21 -0.21,0.29 l -0.05,-0.06 c 0,0.24 -0.26,0 -0.35,0.24 -0.24,0 -0.57,0.12 -0.71,0 a 0.82,0.82 0 0 1 -0.51,0.22 l 0.09,-0.11 c -0.14,0 -0.16,0 -0.26,0.09 -0.1,0.09 -0.28,-0.09 -0.43,-0.14 -0.15,-0.05 -0.08,0.22 -0.08,0.3 -0.2,-0.2 -0.45,0.26 -0.69,0.08 0.05,0 0.23,-0.16 0.07,-0.2 -0.21,-0.2 -0.28,0.25 -0.56,0.18 l 0.11,0.19 c -0.14,-0.1 -0.35,0.19 -0.37,0 -0.07,0.09 -0.31,0 -0.24,0.18 -0.45,-0.08 -1,0.3100004 -1.32,0 0,0 -0.21,0 -0.16,0.13 0.05,0.13 0.12,-0.1 0.18,0 l -0.06,0.1 c -0.13,0 -0.24,0 -0.15,-0.19 -0.31,-0.06 -0.23,0.3900004 -0.61,0.3900004 0,-0.09 0,-0.11 -0.14,-0.07 l -0.18,0.17 c -0.24,0 -0.17,-0.15 -0.2,-0.2800004 -0.12,0.05 -0.28,0.07 -0.32,0.1900004 l -0.19,-0.14 c 0.14,0.1 -0.08,0.1 -0.14,0.15 l 0.06,-0.05 c 0,0 -0.18,0 -0.25,0.05 -0.07,0.05 0.19,0.08 0.28,0.09 l -0.23,0.16 c 0,-0.13 -0.22,-0.05 -0.33,0 -0.11,0.05 -0.1,0.15 -0.14,0.15 -0.04,0 -0.19,0 -0.12,-0.09 0.07,-0.09 0.11,0.05 0.16,0 0.05,-0.05 -0.1,-0.16 -0.24,0 -0.14,0.16 0.08,0.25 -0.16,0.22 l 0.09,-0.16 h -0.23 v 0.12 0 c 0,0.14 -0.32,0.1 -0.34,0.25 -0.02,0.15 -0.24,0 -0.35,0 v 0 a 0.4,0.4 0 0 0 -0.38,0.14 v 0 a 0.53,0.53 0 0 0 -0.3,0.15 c -0.19,-0.06 -0.15,-0.44 -0.31,-0.25 -0.16,0.19 -0.22,0.28 -0.14,0.34 -0.33,0 -0.64,0.25 -1,0.13 0,0 0,0.08 -0.09,0.13 -0.47,0 -0.94,0.34 -1.35,0.18 0.12,-0.08 0,-0.12 0,-0.19 -0.08,0.13 -0.15,-0.08 -0.15,0.11 0,0.19 0,0.16 0.17,0.18 a 1.52,1.52 0 0 1 -0.85,0.13 c 0.08,0 0,0.08 0,0.13 0,-0.18 -0.23,-0.16 -0.37,-0.07 v 0.11 l -0.12,-0.09 c 0,0.05 0,0.24 -0.19,0.17 l -0.07,-0.11 c -0.14,0.12 -0.33,0.32 -0.52,0.26 l -0.17,-0.12 c -0.07,0 -0.18,0.15 0,0.17 -0.31,0 -0.5,0 -0.62,-0.12 a 3.28,3.28 0 0 1 -1.76,0.69 v -0.08 c -0.17,0 -0.05,0.16 -0.17,0.13 0,-0.09 -0.16,-0.14 -0.06,-0.26 -0.24,0 -0.26,0.19 -0.4,0.26 -0.14,0.07 0.11,-0.09 0.11,0.05 0,0.14 -0.33,0 -0.33,0.15 -0.07,-0.05 0,-0.18 0,-0.25 l -0.12,0.11 c -0.21,-0.15 0.32,-0.41 0.09,-0.6 h -0.12 c -0.16,-0.14 0.3,-0.26 0,-0.25 -0.13,0.11 -0.19,0.36 -0.06,0.41 -0.28,0.1 0,0.4 -0.37,0.45 -0.1,-0.07 0.25,-0.07 0.16,-0.19 -0.09,-0.12 -0.28,0.13 -0.42,0.12 0.16,0 0.07,0.21 0,0.26 -0.07,0.05 0.08,-0.17 -0.15,-0.14 0,0.1 -0.21,0.21 0,0.23 0,0.23 -0.24,0 -0.33,0.18 -0.1,-0.13 0.16,-0.38 -0.1,-0.4 0.07,0.13 -0.26,0.25 -0.09,0.43 a 0.15,0.15 0 0 1 -0.09,-0.23 c -0.15,-0.06 -0.28,0.32 -0.38,0.06 v 0.15 l -0.2,-0.12 c -0.13,0 -0.35,0.27 -0.39,0.05 0,0 -0.31,0.08 -0.17,0.21 0.14,0.13 0.17,-0.15 0.31,0 -0.15,-0.14 -0.24,0.08 -0.33,0.15 v -0.08 c -0.06,0.05 -0.2,0.05 -0.21,0.15 a 0.08,0.08 0 0 0 0,-0.12 v 0.14 c -0.23,0.12 -0.1,-0.21 -0.33,-0.12 l 0.16,-0.14 c 0,0 -0.14,-0.07 -0.24,0 l -0.1,0.38 c -0.12,0.08 -0.08,-0.12 -0.19,0 l 0.15,-0.18 c 0,0 -0.16,-0.16 -0.34,-0.12 -0.18,0.04 -0.24,0.26 -0.05,0.29 -0.09,0 -0.22,0 -0.17,-0.12 -0.19,0.08 0,0.12 -0.11,0.22 -0.08,-0.06 -0.33,-0.12 -0.48,-0.21 l 0.14,-0.23 -0.35,-0.28 c 0.12,-0.18 -0.11,-0.1 -0.05,-0.28 -0.09,0 -0.18,0.07 -0.25,0.13 0.3,0.21 -0.19,0.41 -0.07,0.64 -0.31,0.13 -0.33,-0.54 -0.59,-0.1 0.07,0 -0.05,0.27 0.14,0.16 -0.21,0 -0.09,0.27 -0.35,0.22 0.16,-0.14 -0.24,-0.2 0,-0.4 0,0.08 0.16,0 0.19,0 0.03,0 0,-0.25 -0.24,-0.2 -0.24,0.05 -0.29,0.09 -0.24,0.21 0.05,0.12 0.19,-0.06 0.14,0.1 -0.25,0.1 -0.33,-0.1 -0.39,0.16 0.16,-0.05 0.23,0.08 0.25,0.18 l -0.18,0.09 v -0.09 c -0.31,0 -0.06,0.18 -0.35,0.21 l -0.17,-0.15 c 0,-0.17 0.43,0 0.33,-0.26 -0.19,0 -0.23,0.17 -0.42,0.14 l 0.13,-0.07 c -0.08,0 -0.21,-0.32 -0.44,-0.07 -0.23,0.25 0,0.1 0,0.2 -0.3,0.09 -0.37,0.2 -0.56,0.26 0,-0.19 -0.35,0 -0.17,-0.18 a 0.56,0.56 0 0 0 0.63,-0.21 c -0.16,-0.2 0.24,0 0.26,-0.26 -0.24,0 -0.28,-0.17 -0.35,-0.3 l -0.15,0.11 c 0,0.14 0.08,0.12 0.12,0.25 a 0.92,0.92 0 0 0 -0.65,0.31 0.12,0.12 0 0 1 0,-0.22 3.68,3.68 0 0 1 -1,0.18 c 0.24,0.18 -0.33,0.13 -0.16,0.28 0.17,0.15 0.35,0.14 0.28,0.25 -0.07,0.11 0,-0.09 -0.07,-0.13 -0.11,0.14 -0.24,-0.15 -0.33,0.06 0.28,-0.13 0,-0.27 0,-0.45 -0.19,0.14 0,-0.12 -0.23,-0.08 l -0.66,0.35 c -0.32,-0.1 -0.74,0.16 -1,0.22 -0.26,0.06 -0.1,-0.27 -0.25,-0.27 -0.15,0 0.17,0.18 -0.11,0.14 v 0 c -0.07,0.06 -0.5,0 -0.52,0.26 v -0.22 l -0.12,0.08 c 0,-0.07 -0.08,-0.12 0,-0.18 -0.19,-0.11 -0.33,0.09 -0.5,0.13 l 0.14,0.1 c -0.28,0.16 -0.5,0.08 -0.78,0.18 v -0.12 l -0.16,0.11 c 0,-0.13 -0.15,-0.17 -0.22,-0.05 l 0.38,-0.39 c 0.14,0 -0.1,0.17 0,0.28 a 0.27,0.27 0 0 0 0.37,-0.13 c -0.11,0 -0.11,0 -0.18,0.1 -0.07,-0.16 0.09,-0.19 0.14,-0.31 0.05,-0.12 -0.14,0 -0.14,0 a 0.62,0.62 0 0 1 0.37,-0.18 c -0.11,0.09 0.09,0.09 0.05,0.15 0,-0.15 0.14,-0.23 0.37,-0.23 0.23,0 0.38,-0.2 0.64,-0.2 a 0.88,0.88 0 0 1 -0.32,0.41 c 0.18,0 0.18,0 0.35,0 a 0.65,0.65 0 0 1 0.26,-0.42 v 0.11 c 0.17,-0.1 0.14,-0.26 0.38,-0.28 0.42,0 0.84,-0.12 1.15,-0.17 v 0.11 c 0.13,-0.27 0.56,-0.21 0.77,-0.36 0.42,0 0.83,-0.28 1.08,-0.14 a 11.14,11.14 0 0 1 2,-0.55 l -0.09,0.19 c 0.1,-0.15 0.1,0.07 0.22,0 -0.17,-0.1 0.14,-0.2 0.21,-0.32 a 1.56,1.56 0 0 0 1,-0.33 v 0.1 c 0.24,-0.26 0.63,-0.15 1,-0.19 0,0 0.14,0.12 0.24,0.09 0.16,-0.22 0.26,-0.23 0.53,-0.4 a 2.86,2.86 0 0 1 0.78,0 17.86,17.86 0 0 1 2.35,-0.74 l 0.08,0.11 a 15.93,15.93 0 0 1 2.4,-0.67 v 0.23 c 0.23,0 0.47,-0.16 0.39,-0.3 0.22,0 0.5,-0.22 0.68,-0.07 0.18,0.15 0.24,-0.16 0.41,-0.22 a 2.75,2.75 0 0 0 1,-0.1900004 h -0.1 c 0,0.06 0,0.1500004 0.08,0.1400004 0.08,-0.01 0.58,0 0.37,-0.2800004 0.47,0.06 1,-0.34 1.46,-0.23 -0.05,-0.06 0,-0.1 0.09,-0.15 0.38,-0.09 0.81,0 1.09,-0.21 0.07,0 -0.07,0.14 0.09,0.12 0.16,-0.02 0,-0.1 0.09,-0.16 a 12.25,12.25 0 0 1 1.84,-0.28 27.6,27.6 0 0 1 3,-0.72 v 0.06 c 0.28,-0.27 0.8,0 1,-0.31 0.09,0 0.29,0 0.26,0.08 0.23,-0.2 0.75,0 1.08,-0.28 l -0.09,0.05 c 0.4,0 0.7,-0.19 1.11,-0.17 l -0.1,0.12 c 0.17,0.07 0.31,-0.3 0.45,-0.06 0.09,0 0,-0.14 0,-0.12 a 16,16 0 0 0 2.66,-0.69 c 0.68,0 0.13,0.42 0.6,0.13 0,0 0,-0.11 0,-0.05 0.18,-0.12 0.37,0.22 0.47,0.05 -0.08,-0.14 0.08,-0.1 0.06,-0.2 0.42,0 0.53,0.15 0.81,0 v 0.09 c 0.31,-0.31 0.76,-0.27 1,-0.61 2,-0.47 3.9,-1 5.85,-1.46 1.95,-0.46 3.82,-0.87 5.82,-1.14 a 1.2,1.2 0 0 0 1,-0.08 c 0,0 0,0.05 0,0.08 0,-0.19 0.35,-0.09 0.36,-0.27 l 2.15,-0.47 c -0.12,0 -0.15,0.2 0,0.16 l 0.12,-0.14 v 0 c 0.09,-0.05 0.18,-0.15 0.07,-0.19 1.84,-0.55 3.77,-0.58 5.6,-1 a 6.74,6.74 0 0 0 1.53,-0.35 14.23,14.23 0 0 0 4.16,-0.59000003 1.05,1.05 0 0 1 -0.66,0.72000003"
         id="path101" />
      <path
         class="cls-2"
         d="m 308.52715,14.52 c 0.07,0.08 0.24,0.09 0.14,0.24 0,-0.08 -0.14,-0.16 -0.14,-0.24"
         id="path103" />
      <path
         class="cls-2"
         d="m 313.09715,14.52 c 0,0 0.07,0 0.08,0 0.01,0 -0.08,0.11 -0.14,0.07 l 0.06,-0.1"
         id="path105" />
      <path
         class="cls-2"
         d="m 314.22715,14.34 c 0,0.08 -0.23,0.19 -0.37,0.23 l 0.37,-0.23"
         id="path107" />
      <path
         class="cls-2"
         d="m 315.33715,14.45 c 0.1,0 0.08,0.09 0,0.11 v -0.11"
         id="path109" />
      <path
         class="cls-2"
         d="m 315.36715,14.25 a 0.23,0.23 0 0 1 0.19,0.05 c 0,-0.06 -0.19,0.09 -0.19,-0.05"
         id="path111" />
      <path
         class="cls-2"
         d="m 317.67715,14.01 c 0.06,0 0.16,-0.11 0.23,0 0.07,0.11 -0.25,0.15 -0.23,0"
         id="path113" />
      <path
         class="cls-2"
         d="m 318.70715,13.67 h 0.09 c 0.07,0 0,0.09 0,0.11 l -0.05,-0.09"
         id="path115" />
      <polyline
         class="cls-2"
         points="184.92 39.36 184.81 39.42 184.82 39.34 184.92 39.36"
         id="polyline117"
         transform="translate(152.85715,-30)" />
      <path
         class="cls-2"
         d="m 346.16715,7.5999996 c 0.1,-0.07 0.09,0.06 0.11,0.06 0.02,0 0,-0.1 -0.11,-0.06"
         id="path119" />
      <polyline
         class="cls-2"
         points="197.75 36.26 197.71 36.27 197.69 36.11 197.75 36.26"
         id="polyline121"
         transform="translate(152.85715,-30)" />
      <path
         class="cls-2"
         d="m 322.04715,35.23 c -0.1,0.22 0.19,0 0,0.17 0,-0.06 0,-0.13 0,-0.17"
         id="path123" />
      <path
         class="cls-2"
         d="m 357.29715,-18.46 c -0.07,0.87 -1,1.49 -1.22,2.34 0,0.1 -0.18,-0.14 -0.25,0.07 a 5.67,5.67 0 0 1 -1.8,2.53 v -0.08 c -0.15,0.13 -0.09,0.44 -0.23,0.59 0,0 0,-0.08 -0.09,-0.08 -0.09,0 -0.15,0.34 -0.11,0.46 0.04,0.12 -0.17,0 -0.28,0 l 0.07,0.18 c 0.12,0.46 -0.45,0.64 -0.54,1.1 l -0.06,-0.07 a 13.17,13.17 0 0 1 -1.08,2.1099996 c 0,-0.05 -0.09,-0.13 -0.17,-0.12 0.11,0.11 0,0.34 -0.08,0.53 -0.18,0 -0.07,0.38 -0.28,0.54 v 0 c 0,0.25 -0.23,0.17 -0.14,0.41 h -0.17 c 0.15,0.19 -0.24,0.15 -0.23,0.34 v 0 c 0,0.15 -0.17,0.15 -0.21,0.28 v 0 c -0.12,0.29 -0.32,0.37 -0.17,0.46 -0.18,0 0.11,-0.28 -0.16,-0.26 a 16.84,16.84 0 0 1 -1.56,2.66 c -0.12,0.06 -0.18,0.11 -0.25,0.1 -0.07,-0.01 -0.18,0.33 -0.16,0.46 0,0 -0.11,0 -0.15,0.05 -0.04,0.05 0.05,0.27 -0.12,0.4 0,-0.09 0,-0.15 -0.1,-0.16 a 1.34,1.34 0 0 1 -0.2,0.6 l -0.05,-0.12 c 0,0.27 -0.25,0.33 -0.27,0.54 l -0.05,-0.11 c -0.28,0.2 0.13,0.19 -0.08,0.38 l -0.07,-0.11 c 0,0.32 -0.26,0.63 -0.35,0.88 v 0 a 4.59,4.59 0 0 0 -0.44,0.75999997 c -0.1,0.06 -0.19,-0.17 -0.32,0.09 0.18,0.11 -0.2,0.47 0.09,0.45 -0.16,0.19 -0.45,0.48 -0.48,0.66 0,-0.13 -0.28,0 -0.18,-0.22 l -0.19,0.07 c 0,-0.07 0.12,-0.12 0,-0.14 a 2.12,2.12 0 0 1 -0.23,0.45 1.45,1.45 0 0 1 -0.05,0.79000003 c 0,-0.17 -0.24,-0.06 -0.21,-0.16 l 0.09,0.58 c -0.05,0.09 -0.15,-0.07 -0.19,0.09 l 0.06,0.16 c 0,0 -0.2,0.39 -0.39,0.32 -0.19,-0.07 0.06,-0.17 -0.07,-0.11 -0.13,0.06 -0.05,0.21 -0.15,0.37 v 0 c -0.09,0.09 -0.13,0.36 0,0.31 0.13,-0.05 -0.12,0 0,-0.12 0.05,0.14 0,0.34 -0.15,0.51 l -0.08,-0.15 a 2.28,2.28 0 0 1 -0.22,0.84 c 0.08,0.05 -0.08,-0.19 0,-0.2 -0.31,0.24 -0.26,0.75 -0.59,0.9 0,-0.05 0.13,0 0.1,0 -0.03,0 -0.22,0.06 -0.24,0.19 -0.07,0 -0.06,0.13 -0.1,0.25 -0.04,0.12 -0.05,0 0,-0.09 a 2.57,2.57 0 0 1 -0.61,1.06 c 0.05,0 0,0.31 0,0.38 l -0.09,-0.1 c -0.11,0 -0.16,0.26 -0.25,0.21 0,0.24 0.29,-0.68 0.25,-0.4 -0.13,0 0,0.41 -0.15,0.27 -0.09,0.15 -0.07,0.37 -0.26,0.45 0,0 -0.06,-0.22 -0.14,-0.09 -0.08,0.13 0,0.09 -0.06,0.28 v 0.14 c 0.1,0.07 -0.14,0.18 0,0.18 -0.1,0 -0.15,0.34 -0.31,0.21 l -0.11,-0.12 c -0.05,0.1 0,0.24 0,0.35 h -0.08 c 0.2,0.15 -0.16,0.21 -0.07,0.43 -0.2,0.14 -0.33,0.48 -0.51,0.49 a 0.83,0.83 0 0 1 -0.21,0.51 v -0.14 c -0.13,0.07 -0.09,0.13 -0.12,0.25 0,0 -0.26,0.13 -0.41,0.2 -0.15,0.07 0.11,0.21 0.17,0.27 -0.3,0 -0.14,0.5000004 -0.44,0.5500004 0,-0.07 0,-0.28 -0.09,-0.19 -0.29,0 0,0.37 -0.27,0.52 l 0.21,0.06 c -0.17,0 -0.11,0.38 -0.27,0.25 0,0.11 -0.22,0.21 0,0.3 -0.37,0.26 -0.48,0.92 -0.92,0.94 0,0.07 -0.12,0.18 0,0.21 0.12,0.03 0,-0.16 0.1,-0.15 v 0.11 c -0.11,0.08 -0.18,0.16 -0.25,0 -0.26,0.18 0.12,0.44 -0.15,0.71 -0.06,-0.06 -0.1,-0.06 -0.15,0 v 0.27 c -0.16,0.19 -0.23,0 -0.35,-0.05 0,0.12 -0.14,0.25 -0.09,0.35 h -0.23 c 0.17,0 0,0.13 0,0.2 v -0.07 c -0.06,0 -0.11,0.14 -0.14,0.21 -0.03,0.07 0.2,-0.08 0.26,-0.14 v 0.28 c -0.1,-0.09 -0.19,0.13 -0.26,0.21 -0.07,0.08 0,0.17 0,0.2 0,0.03 -0.11,0.15 -0.14,0 -0.03,-0.15 0.1,0 0.09,-0.12 -0.01,-0.12 -0.19,0 -0.2,0.14 -0.01,0.14 0.24,0.12 0,0.27 l -0.05,-0.18 -0.17,0.15 0.1,0.07 h -0.07 c 0.08,0.12 -0.14,0.29 -0.05,0.42 0.09,0.13 -0.19,0.14 -0.26,0.22 v 0 a 0.37,0.37 0 0 0 -0.17,0.37 v 0 a 0.48,0.48 0 0 0 -0.11,0.31 c -0.17,0.1 -0.42,-0.21 -0.4,0 0.02,0.21 0,0.36 0.14,0.34 -0.24,0.22 -0.27,0.64 -0.59,0.78 0,0.07 0.05,0.06 0,0.15 -0.3,0.37 -0.42,0.91 -0.83,1.09 0,-0.14 -0.1,-0.07 -0.16,-0.11 0,0.16 -0.17,0.05 0,0.19 0.17,0.14 0.14,0.09 0.25,0 a 1.52,1.52 0 0 1 -0.51,0.7 c 0.08,0 0.08,0 0.07,0.1 -0.13,-0.11 -0.27,0.05 -0.3,0.21 l 0.08,0.08 h -0.15 c 0,0.07 0.15,0.18 0,0.26 h -0.12 c 0,0.19 0,0.46 -0.19,0.55 h -0.21 c 0,0.07 0,0.23 0.09,0.14 -0.24,0.2 -0.35,0.36 -0.52,0.36 a 3.39,3.39 0 0 1 -0.75,1.74 l -0.06,-0.06 c -0.15,0.09 0.07,0.14 0,0.21 0,-0.09 -0.2,0 -0.21,-0.15 -0.2,0.15 -0.05,0.33 -0.1,0.47 -0.05,0.14 0,-0.14 0.11,0 0.11,0.14 -0.25,0.22 -0.13,0.34 -0.09,0 -0.16,-0.09 -0.2,-0.15 v 0.16 c -0.25,0 -0.07,-0.51 -0.36,-0.49 v 0.13 c -0.21,0 0,-0.39 -0.2,-0.15 0,0.16 0.12,0.39 0.25,0.32 -0.12,0.27 0.25,0.32 0.06,0.58 -0.13,0 0.12,-0.22 0,-0.25 -0.12,-0.03 -0.11,0.3 -0.22,0.38 0.13,-0.09 0.2,0.1 0.17,0.2 -0.03,0.1 -0.06,-0.17 -0.2,0 0,0.08 0,0.3 0.15,0.18 0.13,0.19 -0.18,0.17 -0.11,0.36 -0.16,0 -0.16,-0.38 -0.36,-0.22 0.14,0 0,0.37 0.25,0.38 a 0.16,0.16 0 0 1 -0.23,-0.11 c -0.15,0.07 0,0.43 -0.23,0.31 l 0.1,0.13 h -0.23 c -0.07,0.11 -0.06,0.45 -0.23,0.32 0,0 -0.17,0.27 0,0.26 0.17,-0.01 0,-0.22 0.24,-0.19 -0.21,0 -0.12,0.22 -0.13,0.34 h -0.08 c 0,0.07 -0.1,0.18 0,0.26 a 0.07,0.07 0 0 0 -0.12,-0.05 l 0.07,0.13 c -0.08,0.24 -0.22,-0.08 -0.32,0.14 v -0.21 c 0,0 -0.15,0 -0.18,0.17 l 0.2,0.33 c 0,0.14 -0.14,0 -0.11,0.15 v -0.22 c 0,0 -0.22,0 -0.32,0.14 -0.1,0.14 0,0.36 0.17,0.25 -0.05,0.07 -0.18,0.14 -0.21,0 -0.08,0.2 0.12,0 0.09,0.24 -0.11,0 -0.33,0.14 -0.5,0.19 l -0.06,-0.26 -0.07,0.1 c -0.05,-0.22 -0.14,0 -0.23,-0.17 a 0.42,0.42 0 0 0 -0.09,0.27 c 0.36,-0.06 0.16,0.43 0.4,0.5 -0.13,0.32 -0.61,-0.15 -0.48,0.35 0.08,0 0.15,0.23 0.2,0 -0.13,0.16 0.13,0.26 -0.09,0.41 0,-0.21 -0.31,0 -0.29,-0.28 0.06,0.06 0.13,-0.08 0.14,-0.13 0.01,-0.05 -0.2,-0.15 -0.32,0 -0.12,0.15 -0.14,0.27 0,0.32 0.14,0.05 0.09,-0.17 0.17,0 -0.1,0.25 -0.31,0.17 -0.16,0.39 0.08,-0.15 0.22,-0.1 0.3,0 l -0.06,0.19 -0.05,-0.08 c -0.23,0.22 0.09,0.17 -0.1,0.4 h -0.23 c -0.09,-0.15 0.3,-0.32 0,-0.42 -0.11,0.16 0,0.28 -0.19,0.4 v -0.15 c 0,0.06 -0.37,-0.07 -0.35,0.27 0,0.16 0.06,0.08 0.14,0.13 -0.15,0.28 -0.12,0.41 -0.21,0.58 -0.14,-0.13 -0.21,0.29 -0.25,0 a 0.56,0.56 0 0 0 0.29,-0.59 c -0.25,0 0.16,-0.19 0,-0.37 -0.14,0.21 -0.32,0.07 -0.46,0 v 0.19 c 0.1,0.09 0.15,0 0.27,0.09 a 0.91,0.91 0 0 0 -0.24,0.67 0.11,0.11 0 0 1 -0.15,-0.15 4.39,4.39 0 0 1 -0.56,0.82 c 0.29,-0.05 -0.15,0.32 0.08,0.3 0.23,-0.02 0.34,-0.14 0.38,0 0.04,0.14 -0.08,-0.06 -0.15,-0.05 0,0.18 -0.27,0.07 -0.19,0.28 0.11,-0.29 -0.19,-0.19 -0.3,-0.34 0,0.24 -0.1,-0.07 -0.22,0.11 l -0.22,0.72 c -0.3,0.16 -0.42,0.63 -0.56,0.86 -0.15,0.07 -0.26,-0.12 -0.37,0 -0.11,0.12 0.25,0 0,0.18 v 0 c 0,0.09 -0.38,0.33 -0.19,0.55 l -0.13,-0.18 v 0.14 c -0.06,0 -0.14,0 -0.14,-0.12 -0.21,0.06 -0.16,0.3 -0.26,0.46 h 0.17 c -0.08,0.31 -0.3,0.41 -0.42,0.68 l -0.1,-0.07 v 0.18 c -0.07,-0.1 -0.22,0 -0.19,0.13 v -0.55 c 0.13,-0.07 0,0.2 0.19,0.2 0.19,0 0.25,-0.25 0.17,-0.35 -0.07,0.08 0,0.1 -0.06,0.19 -0.06,0.09 -0.06,-0.19 -0.12,-0.32 0,0 -0.11,0.09 -0.07,0.13 a 0.63,0.63 0 0 1 0.13,-0.39 c 0,0.14 0.13,0 0.14,0.07 -0.11,-0.1 -0.06,-0.26 0.1,-0.43 0.16,-0.17 0.13,-0.4 0.31,-0.59 a 0.92,0.92 0 0 1 0.07,0.51 c 0.15,-0.09 0.09,-0.15 0.24,-0.24 a 0.73,0.73 0 0 1 -0.11,-0.49 h 0.1 c 0.06,-0.19 -0.08,-0.28 0.08,-0.46 0.16,-0.18 0.51,-0.68 0.69,-0.93 l 0.1,0.05 c -0.1,-0.28 0.25,-0.54 0.29,-0.8 0.31,-0.28 0.39,-0.79 0.66,-0.85 a 11.23,11.23 0 0 1 1,-1.81 l 0.07,0.19 c 0,-0.17 0.12,0 0.17,-0.14 -0.19,0.06 0,-0.24 -0.07,-0.37 a 1.58,1.58 0 0 0 0.46,-0.94 h 0.1 c 0,-0.36 0.33,-0.55 0.56,-0.84 0.06,0 0.19,0 0.24,-0.1 a 1.44,1.44 0 0 1 0.09,-0.66 2.58,2.58 0 0 1 0.52,-0.58 18.26,18.26 0 0 1 0.91,-2.05 h 0.14 c 0.2,-0.83 1,-1.52 1.22,-2.18 l 0.15,0.18 c 0.18,-0.14 0.22,-0.44 0.06,-0.49 0.17,-0.14 0.2,-0.51 0.43,-0.52 0.23,-0.01 0.06,-0.28 0.14,-0.45 a 3.13,3.13 0 0 0 0.58,-0.85 l -0.07,0.08 c 0,0.06 0.09,0.12 0.16,0 0.07,-0.12 0.37,-0.44 0.06,-0.46 0.37,-0.29 0.46,-0.94 0.87,-1.19 -0.08,0 0,-0.11 0,-0.17 0.22,-0.33 0.57,-0.59 0.63,-0.93 0.07,0 0.05,0.16 0.15,0 0.1,-0.16 -0.08,-0.06 -0.05,-0.18 0.23,-0.6 0.82,-1 1.1,-1.49 a 28.34,28.34 0 0 1 1.61,-2.63 v 0 c 0,-0.39 0.6,-0.53 0.48,-0.92 0.09,0 0.18,-0.23 0.24,-0.13 0,-0.3000004 0.52,-0.5400004 0.57,-0.9500004 v 0.09 c 0.31,-0.25 0.36,-0.62 0.67,-0.9 v 0.15 c 0.17,-0.07 0,-0.43 0.27,-0.36 0,-0.07 -0.07,-0.12 -0.1,-0.07 a 15.89,15.89 0 0 0 1.4,-2.37 c 0.49,-0.46 0.39,0.21 0.51,-0.33 0.07,0 -0.06,-0.08 0,-0.06 0.05,-0.21 0.41,-0.1 0.37,-0.29 -0.04,-0.19 0,-0.13 -0.1,-0.19 0.31,-0.28 0.47,-0.26 0.55,-0.6 v 0.07 c 0,-0.44 0.35,-0.73 0.29,-1.15 1.09,-1.74 2,-3.47000003 3.11,-5.17 1.11,-1.7 2.08,-3.32 3.31,-4.92 a 1.17,1.17 0 0 0 0.66,-0.79 l 0.06,0.06 c -0.14,-0.12 0.18,-0.31 0.07,-0.45 0.43,-0.6 0.76,-1.2 1.18,-1.84 -0.05,0.11 0,0.24 0.11,0.11 V -10.03 h 0.05 c 0,-0.1 0,-0.23 -0.09,-0.18 0.92,-1.69 2.26,-3.08 3.26,-4.67 a 7.76,7.76 0 0 0 0.83,-1.34 14.28,14.28 0 0 0 2.52,-3.36 1.06,1.06 0 0 1 0.05,1"
         id="path125" />
      <path
         class="cls-2"
         d="m 322.19715,34.98 c 0.1,0 0.23,-0.1 0.26,0.07 l -0.26,-0.07"
         id="path127" />
      <path
         class="cls-2"
         d="m 325.41715,31.75 c 0,0 0.07,0 0.09,0 0.02,0 0,0.13 -0.05,0.14 v -0.11"
         id="path129" />
      <path
         class="cls-2"
         d="m 326.08715,30.83 c 0.06,0.06 0,0.29 -0.09,0.42 l 0.09,-0.42"
         id="path131" />
      <path
         class="cls-2"
         d="m 326.94715,30.12 c 0.11,0 0.13,0 0.06,0.1 l -0.06,-0.1"
         id="path133" />
      <path
         class="cls-2"
         d="m 326.85715,29.95 a 0.22,0.22 0 0 1 0.17,-0.09 c -0.06,0 -0.07,0.19 -0.17,0.09"
         id="path135" />
      <path
         class="cls-2"
         d="m 328.29715,28.15 c 0,-0.05 0,-0.19 0.14,-0.18 -0.08,0 -0.06,0.28 -0.14,0.18"
         id="path137" />
      <path
         class="cls-2"
         d="m 328.78715,27.18 v -0.07 c 0.06,0 0.07,0.05 0.05,0.1 h -0.1"
         id="path139" />
      <polyline
         class="cls-2"
         points="186.36 40.65 186.33 40.77 186.28 40.71 186.36 40.65"
         id="polyline141"
         transform="translate(152.85715,-30)" />
      <path
         class="cls-2"
         d="m 343.90715,3.4499996 c 0,-0.13 0.11,0 0.13,0 0.02,0 -0.06,-0.09 -0.13,0"
         id="path143" />
      <polyline
         class="cls-2"
         points="193.25 29.39 193.23 29.42 193.1 29.32 193.25 29.39"
         id="polyline145"
         transform="translate(152.85715,-30)" />
      <path
         class="cls-2"
         d="m 346.39715,40.07 c 0.09,0.22 0.11,-0.16 0.1,0.14 -0.08,0 -0.13,-0.06 -0.1,-0.14"
         id="path147" />
      <path
         class="cls-2"
         d="m 333.35715,-22.82 c 0.57,0.66 0.36,1.74 0.79,2.52 0,0.09 -0.23,0 -0.13,0.22 a 5.75,5.75 0 0 1 0.52,3.07 h -0.08 c 0,0.2 0.25,0.38 0.27,0.58 -0.05,0 -0.08,-0.05 -0.13,0 0.14,0 0.14,0.34 0.25,0.41 0.11,0.07 -0.14,0.1 -0.17,0.21 l 0.17,0.08 c 0.41,0.24 0.13,0.77 0.4,1.16 0,0 -0.07,0 -0.1,0 a 12,12 0 0 1 0.73,2.26 0.18,0.18 0 0 0 -0.2,0 c 0.16,0 0.25,0.23 0.32,0.43 -0.14,0.12 0.22,0.32 0.18,0.58 v 0 c 0.2,0.14 0,0.28 0.19,0.38 l -0.1,0.14 c 0.24,0 -0.06,0.29 0.08,0.41 h 0.05 c 0.08,0.13 0,0.23 0.05,0.35 v 0 c 0.13,0.2899996 0,0.4899996 0.21,0.4399996 -0.12,0.14 -0.13,-0.27 -0.29,-0.07 a 18.23,18.23 0 0 1 0.77,3 c 0,0.12 -0.05,0.2 -0.11,0.24 -0.06,0.04 0.11,0.37 0.22,0.44 0.11,0.07 -0.08,0.08 -0.07,0.14 0.01,0.06 0.23,0.16 0.19,0.37 -0.06,-0.07 -0.12,-0.08 -0.18,0 a 1.29,1.29 0 0 1 0.28,0.56 l -0.11,-0.05 c 0.2,0.19 0,0.41 0.19,0.58 l -0.12,-0.05 c -0.06,0.34 0.23,0.05 0.21,0.33 0,-0.05 -0.08,0 -0.12,0 0.23,0.22 0.26,0.63 0.37,0.87 v 0 a 4.54,4.54 0 0 0 0.22,0.84 c 0,0.12 -0.25,0 -0.15,0.3 0.2,-0.05 0.18,0.47 0.38,0.26 a 2.11,2.11 0 0 0 0.12,0.8 c -0.1,-0.09 -0.22,0.16999997 -0.28,0 l -0.09,0.17999997 c -0.08,0 0,-0.15999997 -0.1,-0.09 -0.1,0.07 0.18,0.38 0.16,0.48 0.17,0.16 0.43,0.29 0.52,0.59 -0.11,-0.13 -0.2,0.13 -0.26,0 l 0.48,0.35 c 0,0.1 -0.16,0 -0.07,0.19 0.05,0 0.09,0 0.15,0.08 0.06,0.08 0.13,0.41000003 -0.05,0.50000003 -0.18,0.09 -0.08,-0.16 -0.13,0 -0.05,0.16 0.11,0.18 0.16,0.37 v 0 c 0,0.13 0.16,0.35 0.24,0.19 0.08,-0.16 -0.11,0.06 -0.08,-0.08 0.13,0.06 0.21,0.27 0.25,0.46 0,-0.06 -0.09,0 -0.15,-0.05 a 2.66,2.66 0 0 1 0.43,0.75 c 0.1,0 -0.19,-0.07 -0.15,-0.12 -0.05,0.39 0.34,0.71 0.22,1 0,0 0.12,-0.06 0.1,0 0,0.18 -0.11,0.2 0,0.3 -0.08,0 0,0.14 0.1,0.25 0.1,0.11 0,0 -0.06,-0.06 a 2.6,2.6 0 0 1 0.33,1.18 c 0.05,0 0.24,0.2 0.25,0.28 h -0.13 c -0.06,0.1 0.07,0.29 0,0.33 0.19,0.15 -0.28,-0.69 -0.11,-0.46 -0.09,0.09 0.27,0.31 0.09,0.29 0,0.17 0.22,0.31 0.13,0.5 0,-0.05 -0.2,-0.1 -0.16,0 0.04,0.1 0.08,0 0.16,0.25 l 0.07,0.11 c 0.13,0 0,0.23 0.15,0.11 -0.09,0 0.14,0.35 -0.07,0.36 h -0.16 c 0,0.11 0.2,0.14 0.29,0.21 h -0.07 c 0.25,0 0,0.26 0.25,0.35 0,0.24 0.11,0.58 0,0.71 a 0.82,0.82 0 0 1 0.22,0.51 l -0.1,-0.09 c -0.05,0.14 0,0.16 0.09,0.26 0.09,0.1 -0.09,0.28 -0.15,0.44 0.11,0.15 0.23,0.07 0.31,0.07 -0.21,0.2 0.25,0.4500004 0.08,0.6900004 0,-0.05 -0.17,-0.23 -0.2,-0.07 -0.21,0.21 0.24,0.28 0.18,0.56 l 0.19,-0.11 c -0.1,0.14 0.19,0.35 0,0.37 0.09,0.07 0,0.31 0.18,0.24 -0.07,0.45 0.31,1 0,1.32 0,0.06 0,0.21 0.14,0.16 0.14,-0.05 -0.11,-0.12 0,-0.17 h 0.1 c 0,0.14 0,0.24 -0.2,0.15 -0.06,0.31 0.39,0.23 0.39,0.61 -0.08,0 -0.1,0 -0.07,0.14 l 0.18,0.18 c 0,0.24 -0.15,0.17 -0.29,0.2 0.05,0.12 0.08,0.28 0.19,0.32 l -0.14,0.19 c 0.1,-0.14 0.11,0.08 0.15,0.14 v -0.06 c -0.06,0 0,0.18 0,0.25 0,0.07 0.08,-0.19 0.09,-0.28 l 0.17,0.23 c -0.14,0 -0.05,0.22 0,0.33 0.05,0.11 0.14,0.1 0.14,0.14 0,0.04 0,0.19 -0.08,0.12 -0.08,-0.07 0,-0.11 0,-0.16 0,-0.05 -0.16,0.1 0,0.24 0.16,0.14 0.26,-0.08 0.22,0.16 l -0.15,-0.09 v 0.23 h 0.12 -0.05 c 0.14,0 0.11,0.31 0.26,0.33 0.15,0.02 0,0.24 0,0.35 v 0 a 0.37,0.37 0 0 0 0.13,0.38 v 0 a 0.51,0.51 0 0 0 0.14,0.3 c -0.05,0.19 -0.44,0.15 -0.25,0.31 0,0.17 0.28,0.23 0.34,0.14 0,0.33 0.26,0.64 0.13,1 0.06,0 0.08,0 0.13,0.09 0.05,0.47 0.35,0.94 0.19,1.36 -0.08,-0.13 -0.13,0 -0.19,0 0.13,0.09 -0.09,0.15 0.11,0.15 0.2,0 0.16,0 0.17,-0.17 a 1.45,1.45 0 0 1 0.14,0.85 c 0,-0.08 0.08,0 0.12,0 -0.18,0 -0.16,0.23 -0.07,0.37 h 0.11 l -0.08,0.12 c 0,0.05 0.23,0 0.16,0.19 l -0.1,0.07 c 0.12,0.14 0.31,0.33 0.26,0.52 l -0.13,0.18 c 0,0.07 0.15,0.17 0.17,0 0,0.31 0,0.5 -0.12,0.63 a 3.31,3.31 0 0 1 0.7,1.75 h -0.08 c -0.05,0.18 0.15,0.06 0.12,0.18 -0.09,0 -0.14,0.15 -0.26,0 0,0.24 0.2,0.26 0.27,0.4 0.07,0.14 -0.1,-0.11 0,-0.11 0.1,0 0,0.33 0.15,0.34 -0.05,0.07 -0.17,0 -0.24,0 l 0.1,0.12 c -0.15,0.21 -0.41,-0.32 -0.6,-0.09 l 0.06,0.12 c -0.14,0.16 -0.26,-0.3 -0.25,0 0.11,0.13 0.36,0.2 0.4,0.06 0.11,0.28 0.41,0.05 0.46,0.37 -0.08,0.1 -0.08,-0.25 -0.19,-0.16 -0.11,0.09 0.13,0.28 0.11,0.42 0,-0.16 0.21,-0.07 0.26,0 0.05,0.07 -0.17,-0.08 -0.14,0.15 0.1,0 0.21,0.21 0.24,0 0.22,0 0,0.24 0.17,0.33 -0.13,0.1 -0.38,-0.16 -0.4,0.1 0.13,-0.07 0.25,0.27 0.43,0.09 0,0.11 -0.12,0.14 -0.23,0.09 -0.05,0.15 0.33,0.28 0.06,0.38 h 0.15 l -0.12,0.21 c 0,0.12 0.28,0.34 0.06,0.38 0,0 0.08,0.31 0.21,0.17 0.13,-0.14 -0.16,-0.17 0,-0.31 -0.14,0.16 0.07,0.24 0.14,0.33 h -0.08 c 0.05,0.06 0.06,0.2 0.16,0.22 a 0.07,0.07 0 0 0 -0.12,0.05 h 0.14 c 0.11,0.23 -0.21,0.11 -0.13,0.33 l -0.13,-0.16 c 0,0 -0.08,0.14 0,0.25 l 0.38,0.09 c 0.07,0.12 -0.12,0.08 0,0.19 l -0.17,-0.14 c 0,0 -0.17,0.15 -0.13,0.33 0.04,0.18 0.27,0.24 0.29,0 0,0.09 0,0.23 -0.12,0.17 0.08,0.19 0.12,-0.05 0.23,0.11 -0.06,0.08 -0.13,0.33 -0.21,0.48 l -0.23,-0.14 v 0.12 c -0.19,-0.12 -0.1,0.11 -0.28,0 a 0.37,0.37 0 0 0 0.12,0.25 c 0.21,-0.29 0.42,0.19 0.64,0.07 0.13,0.32 -0.54,0.33 -0.09,0.59 0.05,-0.07 0.26,0 0.15,-0.14 0,0.21 0.27,0.09 0.22,0.35 -0.13,-0.16 -0.2,0.24 -0.4,0 0.09,0 0,-0.16 0,-0.19 0,-0.03 -0.24,0 -0.2,0.24 0.04,0.24 0.09,0.29 0.21,0.24 0.12,-0.05 -0.05,-0.19 0.1,-0.14 0.1,0.25 -0.1,0.33 0.17,0.39 -0.06,-0.16 0.08,-0.23 0.17,-0.24 l 0.1,0.17 h -0.1 c 0,0.31 0.18,0.06 0.22,0.35 l -0.15,0.17 c -0.17,0 0,-0.43 -0.26,-0.33 0,0.19 0.17,0.23 0.14,0.42 l -0.08,-0.12 c 0,0.07 -0.31,0.2 -0.06,0.43 0.1,0.12 0.1,0 0.19,0 0.09,0.3 0.21,0.37 0.26,0.56 -0.19,0 0.06,0.35 -0.18,0.17 a 0.54,0.54 0 0 0 -0.21,-0.62 c -0.19,0.15 0,-0.25 -0.25,-0.27 0,0.25 -0.17,0.28 -0.31,0.35 l 0.11,0.16 c 0.14,0 0.12,-0.09 0.25,-0.13 a 1,1 0 0 0 0.31,0.65 0.11,0.11 0 0 1 -0.21,0 4.73,4.73 0 0 1 0.18,1 c 0.17,-0.24 0.12,0.33 0.27,0.16 0.15,-0.17 0.14,-0.35 0.26,-0.28 0.12,0.07 -0.1,0 -0.14,0.07 0.15,0.11 -0.14,0.24 0.07,0.33 -0.13,-0.28 -0.28,0 -0.46,0 0.14,0.19 -0.12,0 -0.07,0.23 l 0.35,0.66 c -0.1,0.33 0.15,0.74 0.21,1 0.06,0.26 -0.27,0.1 -0.27,0.26 0,0.16 0.18,-0.18 0.15,0.1 h -0.05 c 0.06,0.07 0,0.51 0.26,0.53 h -0.22 l 0.08,0.12 c -0.07,0 -0.12,0.09 -0.18,0 -0.11,0.19 0.09,0.33 0.14,0.5 l 0.1,-0.14 c 0.16,0.28 0.07,0.51 0.18,0.79 h -0.12 l 0.1,0.16 c -0.12,0 -0.16,0.15 0,0.22 l -0.38,-0.38 c 0,-0.14 0.17,0.1 0.27,0 0.1,-0.1 0,-0.34 -0.12,-0.36 -0.12,-0.02 0,0.1 0.09,0.17 -0.16,0.07 -0.18,-0.09 -0.31,-0.14 0,0.05 0,0.14 0,0.14 a 0.57,0.57 0 0 1 -0.18,-0.37 c 0.09,0.11 0.09,-0.08 0.15,-0.05 -0.15,0 -0.23,-0.14 -0.24,-0.36 -0.01,-0.22 -0.19,-0.39 -0.2,-0.65 a 0.88,0.88 0 0 1 0.41,0.32 c 0,-0.18 0,-0.18 0,-0.35 a 0.67,0.67 0 0 1 -0.42,-0.26 h 0.11 c -0.09,-0.17 -0.26,-0.14 -0.28,-0.38 0,-0.42 -0.11,-0.83 -0.16,-1.15 h 0.1 c -0.27,-0.13 -0.2,-0.56 -0.36,-0.77 0,-0.42 -0.28,-0.83 -0.13,-1.08 a 11,11 0 0 1 -0.55,-2 l 0.18,0.08 c -0.14,-0.1 0.08,-0.1 0,-0.22 -0.1,0.17 -0.21,-0.14 -0.32,-0.21 a 1.58,1.58 0 0 0 -0.34,-1 h 0.11 c -0.27,-0.24 -0.16,-0.62 -0.2,-1 0,-0.05 0.13,-0.14 0.09,-0.24 -0.21,-0.16 -0.22,-0.26 -0.4,-0.53 a 3.32,3.32 0 0 1 0,-0.78 19.5,19.5 0 0 1 -0.74,-2.35 l 0.12,-0.08 a 16,16 0 0 1 -0.68,-2.4 h 0.23 c 0,-0.23 -0.15,-0.47 -0.3,-0.39 0,-0.22 -0.22,-0.5 -0.06,-0.68 0,-0.22 -0.16,-0.24 -0.23,-0.41 a 2.79,2.79 0 0 0 -0.18,-1 v 0.1 c 0.06,0 0.16,0 0.15,-0.08 -0.01,-0.08 -0.06,-0.57 -0.29,-0.37 0.06,-0.47 -0.34,-1 -0.22,-1.46 -0.06,0.05 -0.1,0 -0.16,-0.09 -0.08,-0.38 0,-0.81 -0.21,-1.09 0,-0.07 0.15,0.07 0.12,-0.09 -0.03,-0.16 -0.09,0 -0.16,-0.09 a 11,11 0 0 1 -0.27,-1.84 25.44,25.44 0 0 1 -0.72,-3 v 0 c -0.27,-0.28 0.05,-0.8 -0.31,-1 0,-0.09 0,-0.29 0.08,-0.26 -0.2,-0.23 0,-0.74 -0.27,-1.0800004 v 0.09 c 0,-0.4000012 -0.19,-0.7000012 -0.16,-1.1100012 l 0.11,0.1 c 0.07,-0.17 -0.29,-0.31 -0.06,-0.45 0,-0.08 -0.14,0 -0.12,0 a 16,16 0 0 0 -0.68,-2.66 c 0,-0.68 0.42,-0.13 0.12,-0.6 0,-0.05 -0.1,0 0,0 -0.11,-0.18 0.22,-0.36 0.06,-0.47 -0.15,0.09 -0.11,-0.07 -0.2,-0.06 0,-0.42 0.14,-0.52 0,-0.81 h 0.08 c -0.31,-0.32 -0.27,-0.77 -0.6,-1 -0.47,-2.00000003 -1,-3.90000003 -1.46,-5.85 -0.46,-1.95 -0.87,-3.82 -1.14,-5.82 a 1.17,1.17 0 0 0 -0.09,-1 c 0,0 0.06,0 0.08,0 -0.18,0 -0.09,-0.3499988 -0.27,-0.3599988 l -0.47,-2.15 c 0.05,0.12 0.21,0.15 0.17,0 l -0.15,-0.12 v 0 c 0,-0.09 -0.16,-0.17 -0.19,-0.06 -0.55,-1.85 -0.58,-3.78 -1,-5.61 a 8,8 0 0 0 -0.35,-1.53 14.24,14.24 0 0 0 -0.6,-4.16 1.06,1.06 0 0 1 0.73,0.66"
         id="path149" />
      <path
         class="cls-2"
         d="m 346.32715,39.79 c 0.07,-0.07 0.09,-0.24 0.23,-0.14 -0.08,0 -0.15,0.14 -0.23,0.14"
         id="path151" />
      <path
         class="cls-2"
         d="m 346.31715,35.22 c 0,0 0,-0.07 0,-0.08 0,-0.01 0.1,0.08 0.06,0.14 l -0.1,-0.06"
         id="path153" />
      <path
         class="cls-2"
         d="m 346.13715,34.1 c 0.09,0 0.2,0.22 0.24,0.36 l -0.24,-0.36"
         id="path155" />
      <path
         class="cls-2"
         d="m 346.24715,32.98 c 0.05,-0.1 0.09,-0.08 0.11,0 h -0.11"
         id="path157" />
      <path
         class="cls-2"
         d="m 346.05715,32.95 a 0.2,0.2 0 0 1 0.05,-0.19 c -0.07,0 0.08,0.19 -0.05,0.19"
         id="path159" />
      <path
         class="cls-2"
         d="m 345.85715,30.64 c 0,0 -0.1,-0.16 0,-0.23 0.1,-0.07 0.16,0.25 0,0.23"
         id="path161" />
      <path
         class="cls-2"
         d="m 345.46715,29.61 v -0.08 c 0,-0.07 0.1,0 0.12,0 h -0.1"
         id="path163" />
      <polyline
         class="cls-2"
         points="188.3 40.54 188.36 40.65 188.28 40.65 188.3 40.54"
         id="polyline165"
         transform="translate(152.85715,-30)" />
      <path
         class="cls-2"
         d="m 339.39715,2.1499996 c -0.07,-0.1 0.06,-0.09 0.07,-0.11 0.01,-0.02 -0.11,0 -0.07,0.11"
         id="path167" />
      <path
         class="cls-2"
         d="m 288.91715,48.82 c 0.4,-0.06 0.28,0.08 0.35,0.09 -0.37,0 0.13,-0.1 -0.35,-0.09"
         id="path193" />
      <polyline
         class="cls-2"
         points="152.3 78.39 152.18 78.39 152.22 78.21 152.3 78.39"
         id="polyline195"
         transform="translate(152.85715,-30)" />
      <path
         class="cls-5"
         d="m 301.77715,31.54 a 9.16,9.16 0 1 1 -9.16,-9.16 9.16,9.16 0 0 1 9.16,9.16"
         id="path257" />
      <path
         class="cls-5"
         d="m 302.06715,31.68 c 0,-0.22 -0.16,0.11 -0.05,-0.14 0.06,0 0.1,0.07 0.05,0.14"
         id="path259" />
      <path
         class="cls-5"
         d="m 301.91715,30.82 c -0.43,-0.64 -0.19,-1.59 -0.72,-2.22 -0.05,-0.08 0.22,0 0.11,-0.23 a 9.4,9.4 0 0 1 -1.22,-2.48 h 0.08 c -0.07,-0.16 -0.37,-0.19 -0.46,-0.35 -0.09,-0.16 0.08,0 0.1,-0.06 0.02,-0.06 -0.25,-0.22 -0.38,-0.21 l 0.06,-0.26 h -0.17 c -0.44,0 -0.52,-0.48 -0.93,-0.59 l 0.08,-0.06 c -0.58,-0.28 -1.23,-0.67 -1.87,-0.92 a 0.22,0.22 0 0 0 0.1,-0.18 c -0.1,0.13 -0.3,0.06 -0.47,0 0,-0.2 -0.35,0 -0.52,-0.12 v 0 c -0.2,0.12 -0.19,-0.16 -0.38,0 l -0.05,-0.14 c -0.13,0.19 -0.19,-0.18 -0.35,-0.11 v 0 c -0.13,0 -0.17,-0.11 -0.29,-0.11 v 0 c -0.26,0 -0.4,-0.15 -0.42,0 -0.07,-0.14 0.26,0 0.16,-0.25 -0.92,0.11 -1.81,-0.11 -2.69,0.06 -0.11,-0.06 -0.18,-0.07 -0.21,-0.14 -0.03,-0.07 -0.33,0.07 -0.4,0.17 -0.07,0.1 -0.07,-0.09 -0.12,-0.09 -0.05,0 -0.14,0.19 -0.33,0.18 0.06,-0.07 0.08,-0.13 0,-0.19 -0.12,0.18 -0.32,0.22 -0.48,0.31 v -0.11 c -0.15,0.2 -0.36,0.07 -0.49,0.22 v -0.12 c -0.31,0 0,0.23 -0.27,0.23 0.05,0 0,-0.08 0,-0.12 -0.15,0.24 -0.52,0.28 -0.68,0.46 v 0 a 3.45,3.45 0 0 0 -0.64,0.41 c -0.11,0 -0.09,-0.24 -0.31,-0.08 0.12,0.17 -0.33,0.28 -0.08,0.4 a 1.14,1.14 0 0 0 -0.58,0.38 c 0,-0.12 -0.23,-0.12 -0.1,-0.25 h -0.18 c 0,-0.08 0.13,-0.07 0,-0.13 -0.13,-0.06 -0.23,0.31 -0.32,0.33 -0.05,0.21 0,0.48 -0.21,0.67 0.05,-0.14 -0.21,-0.11 -0.17,-0.19 v 0.52 c -0.05,0.07 -0.13,-0.1 -0.18,0 v 0.15 c 0,0 -0.19,0.32 -0.37,0.22 -0.18,-0.1 0.06,-0.14 -0.06,-0.11 -0.12,0.03 -0.05,0.18 -0.16,0.31 v 0 c -0.09,0.07 -0.14,0.3 0,0.27 0.14,-0.03 -0.12,-0.05 0,-0.1 a 0.51,0.51 0 0 1 -0.15,0.42 l 0.16,-0.16 -0.12,0.75 c 0.08,0 -0.11,-0.17 0,-0.18 -0.26,0.22 -0.14,0.65 -0.43,0.79 0,0 0.13,0 0.1,0 -0.03,0 -0.2,0.07 -0.2,0.17 0,0.1 0,0.12 0,0.23 0,0.11 0,0 0,-0.08 a 1.77,1.77 0 0 1 -0.23,1 c 0.05,0 0.13,0.23 0.1,0.3 l -0.11,-0.06 c -0.09,0.05 -0.06,0.24 -0.17,0.23 0.1,0.18 0.06,-0.62 0.11,-0.38 -0.12,0 0.1,0.33 -0.05,0.25 0,0.14 0,0.3 -0.07,0.42 0,0 -0.16,-0.15 -0.16,0 0,0.15 0,0.07 0.07,0.25 v 0.11 c 0.12,0 0,0.19 0.11,0.13 -0.1,0 0,0.31 -0.16,0.26 h -0.16 c 0,0.09 0.15,0.16 0.21,0.24 h -0.07 c 0.24,0 0,0.21 0.13,0.33 -0.12,0.18 0,0.47 -0.16,0.56 0.09,0.15 0.19,0.27 0.15,0.44 l -0.09,-0.08 c -0.06,0.11 0,0.13 0.06,0.22 0.06,0.09 -0.13,0.23 -0.2,0.36 0.09,0.13 0.21,0.06 0.29,0.07 -0.21,0.17 0.17,0.38 0,0.57 0,0 -0.17,-0.18 -0.2,-0.05 -0.2,0.19 0.25,0.23 0.2,0.46 l 0.18,-0.1 c -0.09,0.12 0.21,0.26 0,0.3 0.09,0 0,0.26 0.19,0.17 0,0.4 0.33,0.77 0.15,1.09 0.06,0 0.09,0.16 0.16,0.09 0.07,-0.07 -0.12,-0.07 -0.07,-0.13 h 0.11 c 0,0.11 0,0.2 -0.16,0.17 0,0.28 0.42,0.08 0.5,0.38 -0.08,0 -0.1,0.06 0,0.14 l 0.2,0.07 c 0.06,0.19 -0.1,0.2 -0.22,0.28 0.07,0.08 0.13,0.21 0.25,0.18 v 0.2 c 0,-0.15 0.12,0 0.18,0 h -0.06 c 0,0.05 0.08,0.13 0.13,0.17 0.05,0.04 0,-0.19 0,-0.25 l 0.23,0.09 c -0.12,0.06 0,0.19 0.08,0.26 0.08,0.07 0.16,0 0.17,0 0.01,0 0.1,0.13 0,0.13 -0.1,0 0,-0.1 -0.07,-0.1 -0.07,0 -0.1,0.15 0.05,0.2 0.15,0.05 0.18,-0.19 0.24,0 h -0.16 l 0.06,0.19 0.1,-0.08 v 0.05 c 0.12,0 0.2,0.19 0.32,0.12 l 0.15,0.24 v 0 a 0.3,0.3 0 0 0 0.3,0.17 v 0 a 0.33,0.33 0 0 0 0.25,0.11 c 0,0.16 -0.25,0.39 0,0.37 a 0.22,0.22 0 0 0 0.32,-0.13 c 0.14,0.25 0.49,0.25 0.61,0.51 h 0.14 c 0.32,0.22 0.76,0.25 0.93,0.62 -0.12,0 -0.05,0.1 -0.08,0.17 0.13,0 0.06,0.15 0.17,0 0.11,-0.15 0,-0.15 0,-0.23 a 1,1 0 0 1 0.66,0.25 c -0.05,-0.07 0,-0.09 0.07,-0.1 -0.08,0.16 0.08,0.23 0.22,0.21 l 0.05,-0.1 v 0.14 c 0.06,0 0.11,-0.21 0.21,-0.07 v 0.12 c 0.15,0 0.35,-0.11 0.47,0 l 0.09,0.16 c 0.07,0 0.18,-0.09 0.08,-0.15 0.23,0.12 0.38,0.15 0.45,0.29 a 3.78,3.78 0 0 1 1.51,-0.28 v 0.08 c 0.13,0.06 0,-0.14 0.15,-0.1 0.15,0.04 0.11,0.16 0,0.26 0.2,0.07 0.23,-0.16 0.35,-0.21 0.12,-0.05 -0.09,0.08 -0.08,-0.06 0.01,-0.14 0.26,0.06 0.26,-0.1 0.06,0.06 0,0.17 0,0.24 l 0.1,-0.09 c 0.17,0.18 -0.27,0.36 -0.09,0.58 h 0.1 c 0.14,0.16 -0.26,0.22 0,0.25 0.11,-0.1 0.17,-0.33 0.05,-0.39 0.24,-0.07 0,-0.37 0.31,-0.41 0.08,0.08 -0.2,0.06 -0.13,0.18 0.07,0.12 0.22,-0.13 0.34,-0.12 -0.13,0 -0.07,-0.2 0,-0.26 0.07,-0.06 0,0.18 0.13,0.14 0,-0.1 0.15,-0.22 0,-0.24 0,-0.22 0.2,0 0.25,-0.18 0.1,0.12 -0.09,0.38 0.13,0.39 -0.07,-0.13 0.18,-0.26 0,-0.43 a 0.17,0.17 0 0 1 0.11,0.22 c 0.13,0.05 0.17,-0.32 0.3,-0.07 v -0.15 l 0.2,0.11 c 0.1,0 0.22,-0.28 0.3,-0.09 0,0 0.22,-0.13 0.08,-0.23 -0.14,-0.1 -0.09,0.18 -0.24,0 0.15,0.11 0.16,-0.12 0.21,-0.2 v 0.07 c 0,-0.06 0.13,-0.09 0.12,-0.19 l 0.07,0.1 v -0.13 c 0.14,-0.15 0.14,0.17 0.29,0.05 l -0.08,0.16 c 0,0 0.13,0 0.2,0 l -0.06,-0.37 c 0.07,-0.09 0.11,0.1 0.14,-0.06 v 0.19 c 0,0 0.18,0.12 0.31,0 0.13,-0.12 0.09,-0.29 -0.07,-0.27 0.06,0 0.19,0 0.18,0.07 0.12,-0.11 -0.08,-0.09 0,-0.22 a 2.59,2.59 0 0 0 0.44,0 v 0.26 l 0.07,-0.06 c 0,0.21 0.13,0 0.17,0.23 0.07,0 0.1,-0.12 0.13,-0.2 -0.32,-0.08 0,-0.43 -0.25,-0.58 0.16,-0.22 0.51,0.34 0.48,-0.13 -0.07,0 -0.1,-0.24 -0.18,-0.08 0.15,-0.08 -0.08,-0.25 0.14,-0.29 0,0.16 0.29,0.08 0.23,0.31 -0.05,-0.06 -0.14,0 -0.15,0.07 -0.01,0.07 0.15,0.19 0.29,0.08 0.14,-0.11 0.18,-0.18 0.07,-0.26 -0.11,-0.08 -0.11,0.11 -0.16,0 0.14,-0.16 0.31,-0.05 0.18,-0.29 -0.06,0.12 -0.19,0 -0.26,0 l 0.06,-0.15 v 0.09 c 0.19,-0.14 -0.08,-0.17 0.08,-0.33 h 0.2 c 0.09,0.15 -0.26,0.22 0,0.36 0.11,-0.11 0,-0.24 0.18,-0.31 v 0.12 c 0,0 0.34,0.14 0.33,-0.16 0,-0.14 -0.05,-0.08 -0.13,-0.14 0.14,-0.21 0.11,-0.33 0.2,-0.45 0.13,0.13 0.19,-0.21 0.23,0 a 0.38,0.38 0 0 0 -0.27,0.45 c 0.23,0.07 -0.15,0.14 0,0.32 0.14,-0.15 0.3,0 0.43,0.06 v -0.17 c -0.09,-0.1 -0.13,0 -0.25,-0.12 a 0.65,0.65 0 0 0 0.24,-0.54 c 0.1,0 0.2,0.07 0.15,0.15 l 0.43,-0.71 c -0.27,0 0.1,-0.28 -0.12,-0.26 -0.22,0.02 -0.3,0.12 -0.35,0 -0.05,-0.12 0.09,0 0.14,0 0.05,0 0.25,-0.06 0.13,-0.24 0,0.24 0.22,0.17 0.35,0.29 0,-0.21 0.1,0.06 0.19,-0.1 l 0.1,-0.62 c 0.23,-0.18 0.2,-0.62 0.26,-0.83 0.06,-0.21 0.28,0 0.35,-0.07 0.07,-0.07 -0.24,0 -0.09,-0.14 v 0 c 0,-0.08 0.25,-0.37 0,-0.49 l 0.18,0.11 v 0.07 c 0.06,0 0.14,0 0.16,0.05 0.2,-0.11 0,-0.3 0,-0.45 l -0.13,0.07 c -0.07,-0.27 0.07,-0.43 0.05,-0.69 h 0.12 l -0.06,-0.16 a 0.10404326,0.10404326 0 0 0 0.12,-0.17 l 0.25,0.43 c -0.08,0.1 -0.13,-0.14 -0.26,-0.08 -0.13,0.06 -0.1,0.28 0,0.34 v -0.18 c 0.17,0 0.15,0.13 0.26,0.22 0.11,0.09 0,-0.12 0,-0.13 a 0.48,0.48 0 0 1 0.07,0.37 c -0.06,-0.12 -0.11,0 -0.16,0 0.15,0 0.18,0.2 0.11,0.39 -0.07,0.19 0,0.39 -0.12,0.61 a 0.88,0.88 0 0 1 -0.21,-0.42 c -0.12,0.11 -0.05,0.15 -0.16,0.26 0.09,0.1 0.24,0.19 0.25,0.4 h -0.11 c 0,0.18 0.16,0.24 0.06,0.44 a 4.43,4.43 0 0 1 -0.47,0.95 h -0.1 c 0.14,0.25 -0.18,0.51 -0.19,0.75 -0.25,0.28 -0.31,0.76 -0.61,0.78 a 4.62,4.62 0 0 1 -1.18,1.5 v -0.2 c 0,0.17 -0.13,0 -0.2,0.08 0.19,0 0,0.23 0,0.36 -0.31,0.09 -0.52,0.45 -0.67,0.71 l -0.07,-0.08 c -0.12,0.32 -0.52,0.32 -0.83,0.45 0,0 -0.16,-0.08 -0.24,0 -0.08,0.24 -0.17,0.28 -0.36,0.51 a 1.46,1.46 0 0 1 -0.72,0.15 5.54,5.54 0 0 1 -2.19,0.75 l -0.07,-0.12 c -0.75,0.42 -1.7,0.09 -2.36,0.14 l 0.09,-0.21 c -0.19,-0.09 -0.47,0 -0.44,0.17 -0.2,-0.08 -0.54,0 -0.62,-0.2 -0.08,-0.2 -0.27,0 -0.45,0 a 2.62,2.62 0 0 0 -0.94,-0.32 h 0.09 c 0.06,0 0.1,-0.12 0,-0.16 -0.1,-0.04 -0.48,-0.26 -0.45,0 -0.31,-0.34 -1,-0.37 -1.21,-0.75 0,0.08 -0.11,0 -0.18,0.06 -0.35,-0.16 -0.53,-0.59 -0.85,-0.66 0,-0.07 0.15,0 0,-0.14 -0.15,-0.14 -0.06,0.07 -0.18,0 -0.59,-0.27 -0.85,-0.91 -1.2,-1.33 a 7.65,7.65 0 0 1 -1.66,-2.45 h 0.05 c -0.31,-0.22 0,-0.78 -0.4,-0.92 0,-0.08 -0.07,-0.28 0,-0.26 -0.19,-0.21 -0.12,-0.69 -0.31,-1 v 0.08 c 0.07,-0.38 -0.12,-0.68 -0.05,-1.08 l 0.1,0.12 c 0.09,-0.16 -0.26,-0.34 0,-0.44 0,-0.08 -0.13,-0.05 -0.12,0 0,-0.84 0,-1.74 0.09,-2.63 0.33,-0.58 0.43,0.06 0.39,-0.46 0.06,0 -0.09,0 0,0 0,-0.2 0.36,-0.19 0.27,-0.36 -0.17,0 -0.06,-0.11 -0.15,-0.15 0.22,-0.33 0.35,-0.35 0.36,-0.67 h 0.07 c 0,-0.4 0.25,-0.71 0.16,-1.1 a 9.64,9.64 0 0 1 4,-4.2 9,9 0 0 1 5.68,-1 1.14,1.14 0 0 0 1,0.22 c 0,0 -0.06,0 0,0.08 0.07,-0.19 0.35,0.06 0.43,-0.09 a 15.36,15.36 0 0 1 2,0.7 c -0.11,0 -0.22,0.07 -0.1,0.13 h 0.18 v -0.01 c 0.1,0 0.23,0 0.17,-0.11 1.85,0.68 3,2.38 4,3.84 a 7.88,7.88 0 0 0 0.76,1.34 c 0.3,1.43 0.33,2.62 0.56,4 a 1.19,1.19 0 0 1 -0.64,-0.72"
         id="path261" />
      <path
         class="cls-5"
         d="m 302.05715,31.94 c -0.1,0 -0.16,0.19 -0.27,0.06 0.09,0 0.19,-0.08 0.27,-0.06"
         id="path263" />
      <path
         class="cls-5"
         d="m 300.19715,35.45 c 0,0 -0.06,0 -0.08,0 -0.02,0 0,-0.11 0,-0.12 l 0.05,0.09"
         id="path265" />
      <path
         class="cls-5"
         d="m 299.70715,36.21 c -0.06,-0.05 0,-0.26 0,-0.37 v 0.37"
         id="path267" />
      <path
         class="cls-5"
         d="m 298.90715,36.68 c -0.1,0 -0.12,0 -0.05,-0.09 l 0.05,0.09"
         id="path269" />
      <path
         class="cls-5"
         d="m 299.00715,36.85 a 0.16,0.16 0 0 1 -0.16,0 c 0,0 0.07,-0.15 0.16,0"
         id="path271" />
      <path
         class="cls-5"
         d="m 297.53715,37.95 c 0,0 -0.06,0.14 -0.15,0.1 0.07,0 0.1,-0.22 0.15,-0.1"
         id="path273" />
      <path
         class="cls-5"
         d="m 296.91715,38.53 h -0.06 c -0.07,0 -0.05,-0.08 0,-0.1 l 0.07,0.07"
         id="path275" />
      <polyline
         class="cls-5"
         points="131.47 63.54 131.54 63.62 131.46 63.63 131.47 63.54"
         id="polyline277"
         transform="translate(152.85715,-30)" />
      <path
         class="cls-5"
         d="m 285.50715,26.78 c 0,-0.11 0.1,0 0.11,0 0.01,0 -0.06,-0.09 -0.11,0"
         id="path279" />
      <polyline
         class="cls-5"
         points="135.2 53.87 135.18 53.89 135.1 53.74 135.2 53.87"
         id="polyline281"
         transform="translate(152.85715,-30)" />
    </g>
  </g>
</svg>
