<svg id="Layer_1" data-name="Layer 1" xmlns="http://www.w3.org/2000/svg" xmlns:xlink="http://www.w3.org/1999/xlink" viewBox="0 0 229.15 79.45"><defs><style>.cls-1{fill:none;}.cls-2{fill:#58595b;}.cls-3{clip-path:url(#clip-path);}.cls-4{fill:#231f20;}.cls-5{fill:#a70532;}</style><clipPath id="clip-path" transform="translate(0 -0.55)"><rect class="cls-1" x="0.06" y="0.55" width="229.09" height="79.45"/></clipPath></defs><title>LRA_logo</title><path class="cls-2" d="M216.48,24.05c-.35-.67,0,.44-.27-.42a.61.61,0,0,1,.27.42" transform="translate(0 -0.55)"/><path class="cls-2" d="M214.91,21.48c-1.6-1.85-3.27-4.61-5.42-6.23-.24-.19.22-.11-.34-.54a68.49,68.49,0,0,0-8-5.53l.2,0a16.83,16.83,0,0,0-1.85-.68s.21,0,.1-.1c-.2.07-1.1-.34-1.39-.34s-.16-.22-.45-.39l-.39,0c-1.06,0-2.35-.69-3.73-.83.07,0,.21,0,.11-.08a45.51,45.51,0,0,0-7.4-.39c.1,0,.19-.15,0-.21a3.73,3.73,0,0,1-1.53.28c-.31-.18-1.11.27-1.88.27l.07,0c-.54.24-.86,0-1.28.27l-.38-.08c-.2.27-.83.07-1.26.29l0,0c-.42.16-.67.1-1.06.23l0,0c-.93.25-1.49.36-1.41.51-.37,0,.86-.36.3-.39a45.6,45.6,0,0,0-8.67,4.19,2.79,2.79,0,0,1-.64.26,12.12,12.12,0,0,0-1.13,1c.08-.07-.22.05-.36.14-.51.3-.41.51-.93.88.16-.2.19-.31.08-.3a12.23,12.23,0,0,1-1.32,1.41c.06-.09.16-.21.1-.23-.41.59-1,.82-1.32,1.37l.08-.25c-.76.66,0,.37-.67.95.11-.17,0-.14,0-.2-.41.72-1.34,1.63-1.73,2.33v-.05a16,16,0,0,0-1.54,2.26c-.22.27-.15-.24-.6.57.19.08-.74,1.39-.25,1a11.38,11.38,0,0,0-1.2,2.25c.09-.36-.39.23-.12-.36l-.33.39c0-.1.25-.45.08-.35-.12.31-.49,1.2-.61,1.47a10.18,10.18,0,0,1-.38,2.15c.08-.46-.31.18-.23-.13a11.17,11.17,0,0,0,0,1.42c-.07.32-.17,0-.24.5.06,0,0,.2.05.34s-.29,1.32-.53,1.42.1-.53-.06-.19a9.93,9.93,0,0,0-.16,1.22h0c-.09.39-.1,1.17.08.76s-.14.09,0-.31a5.11,5.11,0,0,1-.1,1.58c0-.21,0-.19-.1-.28,0,.82.08,1.68.07,2.57.09,0-.15-.34-.1-.47-.25,1.15.11,2.37,0,3.33,0-.16.13-.09.1-.08,0,.55-.13.54-.07.89-.07.05,0,.46.12.82.08.19,0,.1-.08-.22.17.5.45,2.55.65,3.72a3.06,3.06,0,0,1,.41.94l-.14-.07c0,.26.22.89.12,1,.28.53-.64-2.17-.35-1.43-.05.23.45,1,.25.91.13.53.37,1,.45,1.54,0-.15-.32-.37-.16.05.27.74.13.19.37.78l.18.36c.13,0,.21.67.25.35-.06.13.42,1.05.21,1.05l-.19,0a3.05,3.05,0,0,0,.57.65s0,.14,0,.14c.25-.05.32.74.66,1,.19.7.77,1.62.84,2a6.94,6.94,0,0,1,.93,1.38c-.08-.09-.17-.23-.23-.24a2,2,0,0,0,.45.71,6.33,6.33,0,0,0,.52,1.12c.38.4.38.17.48.17.11.53,1,1.16,1.25,1.74-.16-.11-.61-.52-.37-.14s.81.63,1.26,1.3l0-.28c.15.35.87.79.67.87.21.17.62.71.69.51.85,1,2.41,2.07,2.88,2.78.17.09.53.4.51.26-.19-.28-.4-.2-.45-.33.14.1.2.08.23.06.3.28.55.49.15.39.67.63.92.32,1.87,1-.09,0,0,.12.26.28l.62.21c.62.42.27.38.22.51a2.52,2.52,0,0,0,1,.42l.36.37c-.26-.27.34.07.52.12l-.18,0a2.46,2.46,0,0,0,.69.33c0-.1-.42-.33-.64-.47.21,0,.49.19.76.24-.14.08.55.37.83.52s.42,0,.52.09.55.21.25.21c-.13,0-.24-.17-.46-.18.21.13.13.24.64.32s0-.28.64,0a1.63,1.63,0,0,0-.39,0l.6.29.07-.1c.07.06,0,0,0,.08.23-.06,1,.31,1.16.22.32.08.65.26,1,.36h-.06a3.4,3.4,0,0,0,1.21.25l0,0a3.64,3.64,0,0,0,1,.17c.52.17.09.48.71.43s.89-.09.69-.2c1,.27,2.08.2,3,.42.14,0,.06-.08.35-.09,1.44.21,3-.15,4.19.08-.41.07,0,.13,0,.2.33-.12.42.07.53-.13,0-.11,0-.15-.42-.16a14.51,14.51,0,0,1,2.63-.29c-.25,0-.07-.08.11-.14,0,.19.61.14,1.06-.06l0-.12.33,0c.17-.08.15-.27.63-.28l.17.08a8.58,8.58,0,0,1,1.64-.57h.46c.21-.09.55-.31.15-.22a8.51,8.51,0,0,1,1.79-.36c1.35-.91,3.41-1.86,5-2.83V66c.47-.18.15-.25.48-.37-.1.14.41,0,.13.22.67-.27.69-.61,1-.91,0-.12-.26.28-.26.12s.83-.51.82-.71c.18,0,.14.12.1.23l.3-.32c.55-.16-.77,1-.19.85l.32-.26c.41-.09-.76.79.1.23.31-.33.47-.73.11-.56.7-.58.12-.53.88-1.13.27-.09-.58.51-.36.49.47-.16.65-.66,1-.89-.38.26-.2-.12,0-.34.42-.27-.14.33.39-.12,0-.15.45-.63,0-.31,0-.32.58-.44.75-.81.27-.05-.3.73.32.27-.17,0,.52-.82.09-.67.23-.2.34-.14.25.08.36-.26.51-1,.82-.86V60l.48-.3c.28-.26.66-1,.79-.88.06-.11.58-.8.26-.63-.39.38-.28.57-.62.68.36-.2.44-.64.58-.92h.1c.08-.16.35-.49.34-.64,0,.14.05.12.16,0v-.24c.39-.63.3,0,.69-.61l-.24.5c0-.12.33-.23.46-.56s0-.48,0-.62c.16-.38.21-.09.31-.5l-.15.53c0,.09.35-.2.63-.68.15-.32.28-.87-.06-.43.14-.23.4-.53.36-.3.29-.55-.15,0,.06-.49.18-.15.56-.72.85-1l-.07.6.17-.34c-.07.51.21-.17.24.15a2.77,2.77,0,0,0,.29-.77c-.56.56,0-.92-.28-.82.38-.94.81-.36.83-1.5-.11.14-.11-.39-.27.23.24-.58-.08-.49.27-1.15-.1.55.44-.48.3.32-.06-.07-.21.4-.23.53.17-.22.21.14.43-.48.12-.39.31-.91.16-.87s-.2.58-.25.29c.24-.75.47-.83.31-1.21-.1.49-.28.56-.38.52l.11-.57.06.14c.29-.88-.1-.32.15-1.18l.29-.36c.1.25-.4,1.25-.11,1.16a12.41,12.41,0,0,1,.28-1.3l-.05.41a1.74,1.74,0,0,0,.46-1.19c0-.44-.06-.13-.15-.16.12-.94.07-1.23.15-1.83.16.15.19-1.06.27-.37a4.78,4.78,0,0,0-.24,2c.29-.29-.17.73,0,1,.21-.74.4-.66.56-.75a2.2,2.2,0,0,0,0-.56c-.12-.11-.16.16-.3.15a7.54,7.54,0,0,0,.17-2.14c.11-.27.23-.17.19.17.13-1,.14-2.1.27-3.06-.26.61,0-1.07-.2-.65s-.26.94-.34.66.09,0,.15-.12c-.08-.41.23-.63,0-1,.1.92.27.18.45.35-.12-.67.12,0,.1-.64s-.22-1.49-.28-2.22a19.42,19.42,0,0,0-.42-3.17c0-.44.25-.19.17-.66s-.11.45-.21-.38l.06.07c-.11-.23-.22-1.51-.55-1.67l.26.19-.14-.4c.06,0,.08-.22.18,0,.05-.55-.35-1-.52-1.55v.37c-.41-.86-.48-1.51-.84-2.36l.12,0-.29-.47c.16.08,0-.41-.19-.63l.86,1.19c.07.4-.29-.36-.31-.08a2.24,2.24,0,0,0,.44,1.13,2.19,2.19,0,0,0-.25-.55c.12-.16.28.31.47.51-.07-.16-.1-.41-.16-.43a5.18,5.18,0,0,1,.5,1.15c-.19-.34,0,.23-.13.11.16,0,.39.49.57,1.17-.06.53.4,1.25.54,2.06a4.73,4.73,0,0,1-.61-1.13c0,.51.14.54.18,1.05a2.45,2.45,0,0,1,.59,1l-.1,0a4.9,4.9,0,0,1,.39,1.33,28.09,28.09,0,0,1,.24,3.67l-.11,0a8.08,8.08,0,0,1,.17,2.61,14.92,14.92,0,0,1-.43,3.41,23.08,23.08,0,0,1-1.53,6.39v-.43c0,.44-.19.23-.31.62.29-.4,0,.6,0,.91a19.82,19.82,0,0,0-1.29,3.06h-.12a12.4,12.4,0,0,1-1.65,2.76,2.62,2.62,0,0,0-.52.49,11.58,11.58,0,0,1-.9,1.69,12.62,12.62,0,0,1-1.7,1.81c-1.5,2.11-3.67,3.65-5.75,5.32h-.23a29.7,29.7,0,0,1-7.05,3.73l.13-.28c-.68.15-1.47.56-1.26.66a6.44,6.44,0,0,1-2.11.53,8.49,8.49,0,0,0-1.4.47c-1.4.26-1.94.23-3.26.49l.33,0c.14-.07.14-.17-.19-.14-.49.17-1.84.11-1.32.34-1.44-.08-3.36.26-4.75-.11.11.08-.24.08-.39.12-1.28,0-2.55-.51-3.57-.51-.19-.07.34-.07-.16-.16-.31,0,0,.09-.41.07a28.56,28.56,0,0,1-5.69-1.88,31.45,31.45,0,0,1-8.56-5l.06,0c-1-.52-1.71-1.82-2.55-2.16-.16-.2-.64-.72-.44-.65-.65-.55-1.55-1.79-2.37-2.69l.2.23c-.6-1.08-1.48-1.8-2-3,.09.1.23.3.29.31-.16-.49-.8-.91-.71-1.28-.15-.24-.22-.11-.12,0a41.43,41.43,0,0,1-3.53-8.09c-.34-2.11.39-.23-.18-1.81,0-.14-.12-.08-.07-.11-.23-.61.06-1-.12-1.45-.13.21-.12-.28-.22-.28a12.9,12.9,0,0,0-.19-2.57l.09.07c-.26-1.17-.25-2.56-.45-3.58a33.74,33.74,0,0,1,5.88-18.35,33.08,33.08,0,0,1,14.9-11.81,13.87,13.87,0,0,0,3.17-1c-.05.05-.15.09,0,.09,0-.23,1.13-.33,1.24-.53a34.07,34.07,0,0,1,7-1c-.39,0-.58.18-.11.15l.48-.13.08,0c.32,0,.66-.14.33-.18a32.31,32.31,0,0,1,17.61,4.82c1.23.75,2.92,1.92,4.2,2.85a42.32,42.32,0,0,1,8.32,10.61,5.27,5.27,0,0,1-1.79-1.9" transform="translate(0 -0.55)"/><path class="cls-2" d="M216.87,24.87c0,.19.17.69-.12.36.05-.09,0-.38.12-.36" transform="translate(0 -0.55)"/><path class="cls-2" d="M219.08,38.58s0,.2,0,.24c0-.17-.1-.32,0-.46,0,.17,0,.15.09.22" transform="translate(0 -0.55)"/><path class="cls-2" d="M218.88,42.09a4,4,0,0,1-.08-1.25l.08,1.25" transform="translate(0 -0.55)"/><path class="cls-2" d="M218.06,45.27c-.13.26-.14.17-.08-.2.05,0,.05.11.08.2" transform="translate(0 -0.55)"/><path class="cls-2" d="M218.19,45.53a1.47,1.47,0,0,1-.23.5c.07,0,.12-.62.23-.5" transform="translate(0 -0.55)"/><path class="cls-2" d="M215.71,52.12c-.07.16-.17.52-.32.62.14-.13.27-.79.32-.62" transform="translate(0 -0.55)"/><path class="cls-2" d="M214.29,55.07a.88.88,0,0,0-.14.23c-.13.15-.08-.06,0-.2l.14,0" transform="translate(0 -0.55)"/><polyline class="cls-2" points="163.05 59.37 163.32 59.61 163.23 59.62 163.05 59.37"/><path class="cls-2" d="M155.29,35.44c0-.36.11-.23.12-.29,0,.32-.09-.13-.12.29" transform="translate(0 -0.55)"/><polyline class="cls-2" points="159.55 21.32 159.49 21.42 159.37 21.3 159.55 21.32"/><path class="cls-2" d="M171.23,6.89c-.73.38.46-.06-.46.28a.74.74,0,0,1,.46-.28" transform="translate(0 -0.55)"/><path class="cls-2" d="M168.43,8.58c-2,1.71-5,3.55-6.77,5.87-.22.26-.11-.22-.59.38a70.63,70.63,0,0,0-6,8.74l0-.22a17.6,17.6,0,0,0-.76,2s0-.23-.09-.1a14.59,14.59,0,0,1-.39,1.5c-.14.24-.23.18-.4.5v.42c0,1.13-.74,2.55-.91,4,0-.08,0-.23-.08-.12a48.54,48.54,0,0,0-.44,8c-.06-.11-.15-.2-.21-.05a4.39,4.39,0,0,1,.28,1.67c-.18.33.28,1.2.29,2l0-.06c.24.59,0,.92.28,1.39l-.07.41c.27.22.09.89.32,1.37l0,0c.16.46.11.73.24,1.16v0c.27,1,.39,1.61.54,1.54,0,.39-.39-.94-.4-.34a48.91,48.91,0,0,0,4.53,9.42,2.79,2.79,0,0,1,.3.69c.24.26.81,1,1.06,1.24-.07-.1.06.23.17.39.33.54.54.45.95,1-.22-.17-.33-.2-.32-.09a13.47,13.47,0,0,1,1.52,1.44c-.09-.06-.22-.17-.25-.11.64.45.9,1.08,1.49,1.44l-.26-.1c.72.82.38.06,1,.74-.18-.12-.15,0-.21,0,.76.46,1.76,1.46,2.52,1.89h-.05a18.17,18.17,0,0,0,2.45,1.68c.29.23-.25.14.63.63.08-.19,1.5.81,1.11.3a12.21,12.21,0,0,0,2.45,1.29c-.38-.09.27.41-.38.12l.43.35c-.11,0-.49-.27-.38-.1l1.59.67a11.25,11.25,0,0,1,2.33.44c-.49-.09.2.32-.13.23a13,13,0,0,0,1.53.09c.35.07,0,.17.54.25,0-.06.21,0,.37,0s1.44.32,1.54.56-.57-.11-.2.06a9.67,9.67,0,0,0,1.33.18v0c.42.09,1.27.11.82-.07-.29,0,.09.14-.33,0a6.54,6.54,0,0,1,1.71.12.37.37,0,0,0-.3.1c.88,0,1.82-.07,2.79,0,0-.1-.37.15-.51.09,1.24.26,2.57-.1,3.61,0-.16,0-.09-.13-.08-.11.6,0,.58.14,1,.07,0,.08.5,0,.89-.12.2-.08.11,0-.24.08.55-.18,2.77-.47,4-.69a3.38,3.38,0,0,1,1-.44l-.08.15c.28,0,1-.24,1-.15.59-.29-2.36.69-1.55.38.25,0,1.13-.47,1-.26.58-.15,1.11-.39,1.68-.49-.16,0-.41.33,0,.16a6.63,6.63,0,0,0,.86-.4l.39-.19c0-.12.73-.23.38-.26.14.06,1.15-.45,1.14-.24l0,.19a3.34,3.34,0,0,0,.72-.59s.15,0,.14,0c0-.25.81-.35,1.13-.7.75-.21,1.76-.84,2.13-.92a8.48,8.48,0,0,1,1.51-1c-.11.09-.26.19-.27.26a2.68,2.68,0,0,0,.78-.5,7.17,7.17,0,0,0,1.2-.58c.44-.41.19-.4.19-.5.57-.14,1.28-1.07,1.9-1.36-.12.17-.58.65-.16.38s.69-.87,1.42-1.36h-.3c.37-.16.87-.93.94-.73.19-.23.77-.68.57-.74,1.09-.94,2.25-2.61,3-3.15.1-.18.43-.57.29-.55-.29.21-.22.43-.36.49.11-.15.09-.22.08-.25.3-.33.52-.6.4-.17.68-.73.38-1,1.07-2,0,.09.11,0,.29-.29l.24-.67c.45-.68.4-.3.53-.25a3,3,0,0,0,.47-1.07l.38-.4c-.28.29.08-.36.14-.56l-.06.2a3.15,3.15,0,0,0,.37-.76c-.1,0-.36.47-.5.71,0-.23.2-.53.26-.83.08.15.4-.59.56-.9s0-.46.1-.56.24-.6.22-.28c0,.14-.17.27-.19.5.14-.23.25-.15.35-.69s-.29,0,.06-.7a2,2,0,0,0,0,.42l.32-.65-.11-.07c.06-.08.05,0,.08,0-.05-.25.34-1.06.26-1.25l.38-1v.06a3.77,3.77,0,0,0,.28-1.32l0,0a4.25,4.25,0,0,0,.19-1.06c.18-.56.49-.1.44-.78s-.07-1-.19-.74c.28-1,.23-2.26.45-3.24,0-.16-.08-.06-.09-.38.23-1.57-.15-3.3.09-4.56.06.45.12,0,.19,0-.12-.37.07-.47-.13-.59-.11,0-.15,0-.16.46a17.59,17.59,0,0,1-.32-2.86c0,.27-.08.07-.14-.12.19,0,.13-.66-.07-1.15l-.13-.05,0-.35c-.08-.19-.28-.17-.29-.7a.21.21,0,0,0,.07-.17,11.08,11.08,0,0,1-.61-1.79v-.5c-.1-.23-.33-.6-.23-.17a10.59,10.59,0,0,1-.41-1.94c-1-1.47-2-3.73-3.06-5.42h.1c-.21-.5-.26-.16-.4-.52.15.11-.07-.44.23-.13-.31-.72-.66-.76-1-1.14-.13,0,.3.29.13.29s-.57-.91-.76-.91c-.07-.19.12-.14.23-.09l-.34-.34c-.19-.58,1.05.86.88.24l-.28-.34c-.12-.44.84.83.23-.1-.35-.34-.78-.53-.58-.14-.63-.77-.55-.15-1.21-1-.1-.29.56.64.52.4-.17-.5-.71-.71-1-1.08.29.41-.11.2-.35,0-.3-.45.35.16-.15-.42-.15,0-.67-.5-.31,0-.34-.06-.49-.62-.88-.82-.06-.28.77.35.26-.33,0,.18-.88-.57-.7-.12-.22-.25-.16-.35.07-.26-.28-.38-1-.57-.93-.88h-.22c-.08-.13-.21-.3-.33-.52-.29-.3-1.12-.72-1-.85-.12-.07-.87-.64-.67-.3.41.42.61.32.74.67-.23-.38-.69-.48-1-.64v-.1c-.19-.09-.54-.38-.7-.38.15.05.12,0,0-.16l-.25,0c-.68-.43,0-.31-.68-.73l.55.27c-.13,0-.26-.35-.62-.5-.19,0-.5,0-.66,0-.41-.18-.1-.21-.54-.34l.57.18c.1,0-.23-.37-.75-.67-.34-.17-.93-.33-.45,0-.26-.15-.58-.43-.34-.38-.6-.32,0,.15-.52-.08-.16-.19-.79-.6-1.15-.9l.65.09-.37-.18c.55.08-.19-.23.15-.25a4,4,0,0,0-.84-.32c.63.6-1-.06-.86.26-1-.42-.41-.83-1.64-.89.15.12-.42.11.26.28-.64-.26-.53.07-1.26-.3.6.11-.52-.46.34-.3-.08.06.44.23.58.26-.24-.19.14-.21-.53-.46-.42-.13-1-.33-.94-.18s.63.22.32.25c-.82-.26-.9-.49-1.32-.34.53.11.62.3.58.4l-.62-.12.14-.06c-1-.32-.34.09-1.27-.18l-.4-.29c.26-.1,1.36.42,1.26.13a14.16,14.16,0,0,1-1.42-.31l.45.06a2,2,0,0,0-1.3-.49c-.48,0-.14.06-.17.15-1-.14-1.34-.09-2-.18.16-.16-1.15-.2-.4-.28a5.59,5.59,0,0,0,2.17.28c-.32-.31.79.17,1.05,0-.8-.22-.72-.42-.82-.58a3.32,3.32,0,0,0-.61,0c-.12.12.18.16.17.3a9.15,9.15,0,0,0-2.32-.2c-.3-.12-.19-.24.17-.19-1.09-.15-2.28-.16-3.32-.29.67.26-1.17,0-.71.19s1,.28.72.35,0-.09-.13-.15c-.44.08-.68-.23-1.12,0,1-.1.19-.27.38-.45-.73.12,0-.13-.69-.1s-1.62.22-2.42.29a22.88,22.88,0,0,0-3.44.45c-.48,0-.2-.24-.72-.16s.48.1-.41.22l.08-.06c-.25.11-1.64.25-1.83.58l.22-.26-.44.15c0-.06-.23-.08,0-.19-.59,0-1.11.38-1.68.57h.41c-.95.43-1.65.52-2.57.91l0-.12-.51.32c.09-.18-.44,0-.69.21l1.31-.92c.43-.08-.39.31-.09.32a2.72,2.72,0,0,0,1.22-.47,2.25,2.25,0,0,0-.6.26c-.17-.12.35-.29.56-.48-.17.06-.44.1-.46.17a5.91,5.91,0,0,1,1.25-.54c-.38.2.24,0,.11.13,0-.16.54-.4,1.28-.6a16.4,16.4,0,0,0,2.23-.59,4.85,4.85,0,0,1-1.23.63c.55-.05.59-.14,1.14-.19a2.72,2.72,0,0,1,1.08-.62l.06.1a5.57,5.57,0,0,1,1.44-.4,29.74,29.74,0,0,1,4-.27l0,.11A9.53,9.53,0,0,1,189.05,3a15.79,15.79,0,0,1,3.7.47,25.62,25.62,0,0,1,6.94,1.66h-.46c.47,0,.25.19.67.32-.44-.3.64,0,1,.07a23.91,23.91,0,0,0,3.32,1.41l0,.11a15,15,0,0,1,3,1.8,2.63,2.63,0,0,0,.54.55,13.71,13.71,0,0,1,1.82,1,13.54,13.54,0,0,1,2,1.83c2.28,1.65,4,4,5.76,6.26v.24a32.23,32.23,0,0,1,4,7.64l-.28-.14c.18.73.61,1.6.7,1.37a7.68,7.68,0,0,1,.59,2.28,9.38,9.38,0,0,0,.49,1.52c.29,1.52.26,2.1.53,3.54l0-.36c-.07-.15-.17-.16-.14.2.18.53.13,2,.36,1.44-.08,1.56.26,3.64-.12,5.14.09-.12.08.26.11.43,0,1.38-.53,2.76-.54,3.86-.07.21-.07-.37-.17.18,0,.33.1,0,.07.44a32.34,32.34,0,0,1-2,6.17,34.73,34.73,0,0,1-5.38,9.28l0-.07c-.58,1-1.95,1.86-2.34,2.76-.21.17-.78.69-.7.48-.61.69-1.93,1.69-2.92,2.57l.25-.22a39,39,0,0,1-3.24,2.19c.11-.09.32-.24.33-.3-.52.18-1,.84-1.38.77-.27.16-.13.23,0,.12a43.89,43.89,0,0,1-8.76,3.82c-2.28.38-.24-.39-2,.21-.16,0-.09.12-.12.07-.67.25-1.12,0-1.57.14.22.13-.31.13-.31.23a15.75,15.75,0,0,0-2.78.21l.08-.08c-1.28.25-2.79.26-3.89.45a36.59,36.59,0,0,1-19.88-6.38A36,36,0,0,1,153.5,52.55a16.14,16.14,0,0,0-1.07-3.44c0,.06.1.17.09,0-.23,0-.35-1.22-.55-1.35a35.57,35.57,0,0,1-1.12-7.61c0,.42.18.63.16.12l-.14-.52,0-.08c0-.35-.14-.73-.19-.37a35.23,35.23,0,0,1,5.21-19.07c.81-1.35,2.08-3.17,3.09-4.55a45.21,45.21,0,0,1,11.48-9,6,6,0,0,1-2.08,1.89" transform="translate(0 -0.55)"/><path class="cls-2" d="M172.12,6.46c.2,0,.74-.18.37.12-.08-.06-.39,0-.37-.12" transform="translate(0 -0.55)"/><path class="cls-2" d="M187,4s.21,0,.26,0c-.19,0-.36.1-.51,0,.19,0,.16,0,.25-.09" transform="translate(0 -0.55)"/><path class="cls-2" d="M190.82,4.21a5.55,5.55,0,0,1-1.37.06l1.37-.06" transform="translate(0 -0.55)"/><path class="cls-2" d="M194.27,5.07c.28.13.2.13-.21.07,0,0,.12,0,.21-.07" transform="translate(0 -0.55)"/><path class="cls-2" d="M194.55,4.94a1.83,1.83,0,0,1,.55.24c0-.07-.67-.13-.55-.24" transform="translate(0 -0.55)"/><path class="cls-2" d="M201.74,7.62c.16.08.55.19.67.34-.15-.14-.85-.29-.67-.34" transform="translate(0 -0.55)"/><path class="cls-2" d="M204.94,9.18a1.27,1.27,0,0,0,.26.15c.16.14-.06.07-.22,0l0-.14" transform="translate(0 -0.55)"/><polyline class="cls-2" points="210.2 64.38 210.46 64.09 210.47 64.19 210.2 64.38"/><path class="cls-2" d="M183.58,73.37c-.39,0-.26-.11-.32-.13.35,0-.14.09.32.13" transform="translate(0 -0.55)"/><polyline class="cls-2" points="168.84 68.16 168.94 68.22 168.82 68.34 168.84 68.16"/><path class="cls-2" d="M160.23,20.8c-.22-.1,0,.19-.17,0,.06,0,.13-.05.17,0" transform="translate(0 -0.55)"/><path class="cls-2" d="M213.92,56.05c-.88-.07-1.49-1-2.34-1.22-.1,0,.14-.18-.07-.26a5.59,5.59,0,0,1-2.53-1.8l.08,0c-.13-.14-.44-.09-.59-.22,0,0,.08,0,.08-.09-.12.08-.34-.15-.46-.12s0-.17,0-.27l-.18.06c-.46.12-.64-.44-1.1-.53l.07-.06a13.25,13.25,0,0,1-2.11-1.09s.13-.09.12-.16c-.11.11-.34,0-.53-.08,0-.19-.38-.07-.54-.28l0,0c-.25,0-.18-.23-.41-.14l0-.17c-.19.15-.15-.24-.34-.23l0,0c-.15,0-.15-.16-.28-.21v0c-.29-.12-.37-.33-.46-.17,0-.18.28.1.25-.16a17.21,17.21,0,0,1-2.65-1.56c-.06-.12-.11-.18-.1-.25s-.33-.19-.46-.16c0,0,0-.11-.05-.15s-.27,0-.4-.13c.09,0,.15,0,.16-.09-.22,0-.4-.13-.6-.2l.12,0c-.27,0-.33-.25-.55-.28l.12,0c-.2-.28-.19.12-.38-.09l.1-.06c-.31,0-.62-.26-.87-.35l0,0a4.93,4.93,0,0,0-.75-.44c-.07-.1.16-.19-.11-.32-.1.18-.46-.2-.44.09a2.07,2.07,0,0,0-.66-.48c.13,0,0-.28.22-.18l-.07-.19c.07-.06.12.11.14,0a2.12,2.12,0,0,1-.45-.23,1.37,1.37,0,0,1-.79-.06c.17,0,.05-.23.16-.2l-.58.08c-.1,0,.07-.15-.09-.18l-.16,0s-.39-.19-.32-.39.17.06.11-.06-.21-.05-.37-.16v0c-.09-.1-.36-.14-.31,0s0-.12.12,0a.73.73,0,0,1-.51-.16l.15-.07a2.75,2.75,0,0,1-.84-.22c-.05.08.19-.09.2,0-.24-.32-.75-.26-.9-.6,0,0-.05.13,0,.11s-.06-.22-.19-.24c0-.08-.13-.06-.25-.1s0-.06.09,0a2.51,2.51,0,0,1-1.06-.61c0,.05-.31,0-.38,0l.1-.09c0-.1-.26-.15-.21-.25-.24,0,.68.29.4.25,0-.12-.41,0-.27-.14-.15-.09-.37-.07-.45-.26,0,0,.22-.07.09-.14s-.09,0-.28-.07l-.14,0c-.08.1-.18-.14-.18,0,0-.11-.34-.15-.21-.31l.12-.12c-.1,0-.24.05-.35.06v-.08c-.16.19-.21-.16-.42-.07-.15-.2-.49-.33-.5-.52a.79.79,0,0,1-.51-.2h.14c-.07-.13-.13-.1-.25-.13,0,0-.13-.25-.2-.41s-.21.11-.27.17c0-.29-.5-.14-.55-.43.07,0,.28,0,.19-.09,0-.29-.37,0-.52-.27l-.06.21c0-.17-.38-.12-.25-.27-.11,0-.22-.23-.3,0-.26-.37-.92-.48-.94-.92-.07,0-.18-.11-.21,0s.16,0,.15.09l-.11,0c-.08-.11-.16-.18,0-.25-.18-.26-.44.11-.71-.16.06-.06.06-.1,0-.15H182c-.19-.16,0-.23,0-.35-.12,0-.25-.14-.35-.09l0-.23c0,.17-.13,0-.2,0h.07c0-.06-.14-.11-.21-.14s.08.19.13.26l-.27,0c.09-.1-.13-.2-.21-.27s-.17,0-.2,0-.16-.12,0-.15,0,.11.13.09,0-.18-.15-.19-.12.24-.27,0l.18-.05-.15-.18-.07.1V35c-.12.07-.29-.15-.41,0-.1-.05-.15-.2-.23-.27h0a.37.37,0,0,0-.37-.17l0,0a.48.48,0,0,0-.31-.1c-.1-.18.21-.42,0-.4s-.36,0-.34.14c-.22-.24-.64-.27-.78-.6-.07,0-.06.06-.16,0-.36-.29-.9-.42-1.08-.82.14,0,.07-.1.11-.16-.16,0,0-.17-.19,0s-.09.13,0,.24a1.41,1.41,0,0,1-.69-.51c0,.09,0,.09-.1.08.11-.14-.05-.27-.21-.31l-.08.08,0-.15c-.07,0-.18.16-.26,0l0-.12c-.19,0-.46,0-.55-.18l0-.21c-.07,0-.23,0-.14.09-.2-.24-.36-.36-.36-.52a3.41,3.41,0,0,1-1.74-.76l.06-.05c-.09-.16-.15.07-.21,0,.09,0,0-.21.15-.22-.15-.19-.33,0-.47-.09s.14,0,0,.1-.22-.24-.34-.13c0-.08.09-.15.15-.19h-.16c0-.26.51-.07.49-.36l-.13-.05c0-.21.39,0,.15-.2-.16,0-.39.12-.32.25-.27-.13-.32.24-.58.06,0-.13.22.12.24,0s-.29-.1-.37-.21c.09.13-.1.2-.2.17s.17-.07,0-.21c-.08.06-.3,0-.18.16-.18.13-.17-.18-.36-.11,0-.17.38-.16.21-.36,0,.14-.36,0-.36.24a.14.14,0,0,1,.1-.22c-.07-.15-.43,0-.32-.23l-.11.09-.06-.23c-.11-.07-.45,0-.32-.23,0,0-.27-.16-.27,0s.23,0,.2.25c0-.21-.22-.13-.34-.13l0-.08c-.07,0-.18-.1-.26,0a.07.07,0,0,0,.05-.12l-.13.07c-.24-.08.08-.22-.14-.32h.21c-.05,0-.05-.15-.17-.18l-.33.21c-.14,0,0-.15-.15-.12l.22,0s0-.23-.14-.32-.36,0-.25.17c-.07-.05-.14-.18,0-.22-.2-.07-.05.13-.24.09,0-.1-.14-.32-.19-.49l.26-.07-.1-.06c.22-.05,0-.15.16-.24,0-.07-.17-.07-.26-.08.06.35-.43.15-.5.4-.32-.13.15-.61-.35-.49,0,.09-.23.15,0,.21-.15-.14-.25.13-.4-.09.21,0,0-.31.28-.29-.06.05.08.13.13.13s.15-.19,0-.31-.27-.15-.32,0,.17.1,0,.17c-.25-.1-.17-.3-.39-.15a.18.18,0,0,1,0,.29l-.19-.05.08-.06c-.22-.22-.17.09-.4-.09l0-.23c.15-.09.32.3.42.05-.16-.11-.28,0-.4-.19l.15,0c-.06-.05.07-.37-.27-.35-.16,0-.08.05-.13.13-.28-.14-.41-.11-.58-.21.13-.13-.29-.2,0-.24,0,.14.4.38.59.29,0-.25.19.16.37,0-.21-.14-.08-.31,0-.45l-.19,0c-.1.1,0,.14-.09.26a.9.9,0,0,0-.67-.23.11.11,0,0,1,.15-.16,3.6,3.6,0,0,1-.82-.56c.05.3-.32-.14-.3.09s.14.34,0,.37.06-.08.05-.14c-.18,0-.07-.28-.28-.19.29.1.19-.19.33-.31-.23,0,.08-.09-.1-.21l-.72-.22c-.16-.3-.63-.42-.86-.56-.07-.15.12-.26,0-.38s0,.25-.18,0h0c-.09,0-.33-.38-.55-.19l.18-.13-.14,0c0-.06,0-.15.12-.14-.06-.21-.3-.17-.46-.26l0,.17c-.31-.09-.41-.3-.68-.43l.07-.1-.18,0c.1-.08,0-.23-.13-.2H161c.07.13-.2.05-.2.19s.25.25.35.18c-.08-.07-.1,0-.19-.06.06-.16.19-.07.32-.12,0,0-.09-.11-.13-.07a.63.63,0,0,1,.39.13c-.14,0,0,.12-.07.14.1-.12.26-.06.43.09s.4.14.59.32a.83.83,0,0,1-.51.06c.09.15.15.1.25.25a.64.64,0,0,1,.48-.11l-.06.1c.19.06.29-.08.47.07s.67.51.93.7l-.05.1c.28-.11.54.24.8.29.27.31.79.38.85.66a12,12,0,0,1,1.81,1l-.2.07c.18,0,0,.13.15.18-.06-.19.24,0,.37-.08a1.6,1.6,0,0,0,.94.47l0,.1c.36,0,.55.33.84.56,0,.06,0,.18.11.23a1.57,1.57,0,0,1,.65.09,2.9,2.9,0,0,1,.58.53A18.17,18.17,0,0,1,173,28.59l0,.14c.83.21,1.52,1,2.18,1.22l-.18.15c.14.18.44.23.49.06.14.18.51.21.52.44.16.15.28.06.46.13a2.59,2.59,0,0,0,.84.58l-.08-.06a.09.09,0,0,0,0,.16c.16,0,.44.36.46.05.29.38.94.47,1.19.88,0-.08.11,0,.17-.05.33.21.6.56.92.63,0,.06-.15,0,0,.14s.06-.08.18-.05c.6.23,1,.82,1.49,1.11a28.28,28.28,0,0,1,2.63,1.6l0,0c.39,0,.53.6.92.49,0,.08.23.18.13.24.3,0,.54.51.95.56l-.09,0c.25.3.62.35.9.66h-.16c.08.18.44,0,.37.28.07.05.12-.08.07-.1a15.89,15.89,0,0,0,2.37,1.4c.46.49-.21.39.33.51,0,.07.08-.07.06,0,.21,0,.1.42.29.38,0-.16.13,0,.19-.1.28.3.27.47.6.54l-.07.06c.44,0,.73.35,1.15.29,1.74,1.08,3.48,2,5.17,3.1s3.31,2.09,4.92,3.31a1.16,1.16,0,0,0,.79.67l-.06,0c.12-.13.31.19.45.07.6.44,1.2.77,1.84,1.19-.11,0-.24,0-.11.11l.18,0v.06c.09,0,.23,0,.18-.09,1.69.92,3.07,2.26,4.68,3.25a7.62,7.62,0,0,0,1.32.84A14.54,14.54,0,0,0,214.9,56a1.06,1.06,0,0,1-1,0" transform="translate(0 -0.55)"/><path class="cls-2" d="M160.48,20.94c0,.1.1.24-.07.27l.07-.27" transform="translate(0 -0.55)"/><path class="cls-2" d="M163.71,24.17s0,.06,0,.08-.13,0-.14-.05l.11,0" transform="translate(0 -0.55)"/><path class="cls-2" d="M164.63,24.84c-.06.06-.29,0-.42-.1l.42.1" transform="translate(0 -0.55)"/><path class="cls-2" d="M165.34,25.7c0,.11,0,.12-.1.05l.1-.05" transform="translate(0 -0.55)"/><path class="cls-2" d="M165.51,25.59a.21.21,0,0,1,.09.17c0-.06-.19-.08-.09-.17" transform="translate(0 -0.55)"/><path class="cls-2" d="M167.31,27.05c.05,0,.19,0,.18.14,0-.09-.28-.07-.18-.14" transform="translate(0 -0.55)"/><path class="cls-2" d="M168.28,27.53l.07,0c0,.07,0,.08-.1.06l0-.11" transform="translate(0 -0.55)"/><polyline class="cls-2" points="184.81 37.42 184.69 37.39 184.75 37.34 184.81 37.42"/><path class="cls-2" d="M192,42.66c.13,0,0,.11,0,.13s.09-.07,0-.13" transform="translate(0 -0.55)"/><polyline class="cls-2" points="196.07 44.3 196.04 44.29 196.14 44.16 196.07 44.3"/><path class="cls-2" d="M155.39,45.15c-.22.08.16.11-.14.09,0-.07.06-.13.14-.09" transform="translate(0 -0.55)"/><path class="cls-2" d="M218.28,32.1c-.66.57-1.74.36-2.51.8-.1,0,0-.23-.23-.13a5.64,5.64,0,0,1-3.06.51l0-.07c-.19,0-.38.25-.58.26,0,0,.05-.07,0-.12,0,.14-.34.13-.4.25-.09,0-.11-.14-.22-.18l-.08.17c-.24.41-.77.14-1.16.41,0,0,.06-.08,0-.1a13.6,13.6,0,0,1-2.26.73.2.2,0,0,0,0-.21c0,.16-.24.25-.44.32-.12-.13-.32.22-.58.18v0c-.14.2-.28,0-.38.18l-.14-.1c0,.24-.28-.06-.41.09l0,0c-.13.08-.23,0-.35,0l0,0c-.28.12-.49,0-.44.2-.14-.11.28-.12.07-.29a17.31,17.31,0,0,1-3,.78c-.12,0-.2,0-.24-.11s-.37.11-.44.22-.08-.08-.14-.08-.16.23-.37.2c.07-.06.08-.13,0-.18-.14.17-.37.19-.56.28l.05-.12c-.19.2-.41,0-.58.19l.05-.12c-.34-.05-.05.23-.33.22.06,0,0-.08,0-.13-.21.24-.63.26-.87.38v0a3.87,3.87,0,0,0-.84.22c-.12,0,0-.25-.3-.16,0,.2-.47.19-.25.38a2.12,2.12,0,0,0-.81.13c.09-.1-.17-.22,0-.28l-.18-.09c0-.09.16,0,.09-.1a2.26,2.26,0,0,1-.48.16c-.16.16-.29.43-.59.52.13-.11-.13-.21,0-.26l-.35.47c-.1,0,0-.15-.19-.07,0,0,0,.1-.07.15s-.42.14-.5-.05.15-.08,0-.12-.19.11-.38.15v0c-.14,0-.36.16-.2.24s0-.11.09-.08a.72.72,0,0,1-.47.25c.06,0,0-.1.05-.16a2.47,2.47,0,0,1-.75.44c0,.09.08-.19.13-.15-.39-.06-.71.34-1.06.21.05,0,.06.13.05.1-.18,0-.2-.11-.3,0s-.14.06-.25.11,0,0,.06-.06a2.48,2.48,0,0,1-1.18.32s-.19.24-.28.25v-.13c-.1,0-.29.08-.33,0-.15.19.69-.27.46-.11-.09-.09-.31.27-.29.09-.17,0-.31.22-.5.14.05,0,.1-.2,0-.16s0,.07-.25.15l-.11.08c0,.12-.23,0-.11.15-.05-.1-.34.13-.36-.07v-.17c-.1,0-.14.21-.21.29l-.05-.06c0,.24-.26,0-.35.24-.24,0-.57.12-.71,0a.82.82,0,0,1-.51.22l.09-.11c-.14,0-.16,0-.26.09s-.28-.09-.43-.14-.08.22-.08.3c-.2-.2-.45.26-.69.08.05,0,.23-.16.07-.2-.21-.2-.28.25-.56.18l.11.19c-.14-.1-.35.19-.37,0-.07.09-.31,0-.24.18-.45-.08-1,.31-1.32,0,0,0-.21,0-.16.13s.12-.1.18,0l-.06.1c-.13,0-.24,0-.15-.19-.31-.06-.23.39-.61.39,0-.09,0-.11-.14-.07l-.18.17c-.24,0-.17-.15-.2-.28-.12.05-.28.07-.32.19l-.19-.14c.14.1-.08.1-.14.15l.06-.05s-.18,0-.25.05.19.08.28.09l-.23.16c0-.13-.22-.05-.33,0s-.1.15-.14.15-.19,0-.12-.09.11.05.16,0-.1-.16-.24,0,.08.25-.16.22l.09-.16-.23,0,0,.12,0,0c0,.14-.32.1-.34.25s-.24,0-.35,0l0,0a.4.4,0,0,0-.38.14v0a.53.53,0,0,0-.3.15c-.19-.06-.15-.44-.31-.25s-.22.28-.14.34c-.33,0-.64.25-1,.13,0,0,0,.08-.09.13-.47,0-.94.34-1.35.18.12-.08,0-.12,0-.19-.08.13-.15-.08-.15.11s0,.16.17.18a1.52,1.52,0,0,1-.85.13c.08,0,0,.08,0,.13,0-.18-.23-.16-.37-.07v.11l-.12-.09c0,.05,0,.24-.19.17l-.07-.11c-.14.12-.33.32-.52.26l-.17-.12c-.07,0-.18.15,0,.17-.31,0-.5,0-.62-.12a3.28,3.28,0,0,1-1.76.69v-.08c-.17,0-.05.16-.17.13,0-.09-.16-.14-.06-.26-.24,0-.26.19-.4.26s.11-.09.11.05-.33,0-.33.15c-.07-.05,0-.18,0-.25l-.12.11c-.21-.15.32-.41.09-.6l-.12,0c-.16-.14.3-.26,0-.25-.13.11-.19.36-.06.41-.28.1,0,.4-.37.45-.1-.07.25-.07.16-.19s-.28.13-.42.12c.16,0,.07.21,0,.26s.08-.17-.15-.14c0,.1-.21.21,0,.23,0,.23-.24,0-.33.18-.1-.13.16-.38-.1-.4.07.13-.26.25-.09.43a.15.15,0,0,1-.09-.23c-.15-.06-.28.32-.38.06l0,.15-.2-.12c-.13,0-.35.27-.39.05,0,0-.31.08-.17.21s.17-.15.31,0c-.15-.14-.24.08-.33.15l0-.08c-.06.05-.2.05-.21.15a.08.08,0,0,0,0-.12l0,.14c-.23.12-.1-.21-.33-.12l.16-.14s-.14-.07-.24,0l-.1.38c-.12.08-.08-.12-.19,0l.15-.18s-.16-.16-.34-.12-.24.26-.05.29c-.09,0-.22,0-.17-.12-.19.08,0,.12-.11.22-.08-.06-.33-.12-.48-.21l.14-.23L165,44c.12-.18-.11-.1-.05-.28-.09,0-.18.07-.25.13.3.21-.19.41-.07.64-.31.13-.33-.54-.59-.1.07,0-.05.27.14.16-.21,0-.09.27-.35.22.16-.14-.24-.2,0-.4,0,.08.16,0,.19,0s0-.25-.24-.2-.29.09-.24.21.19-.06.14.1c-.25.1-.33-.1-.39.16.16-.05.23.08.25.18l-.18.09,0-.09c-.31,0-.06.18-.35.21l-.17-.15c0-.17.43,0,.33-.26-.19,0-.23.17-.42.14l.13-.07c-.08,0-.21-.32-.44-.07s0,.1,0,.2c-.3.09-.37.2-.56.26,0-.19-.35,0-.17-.18a.56.56,0,0,0,.63-.21c-.16-.2.24,0,.26-.26-.24,0-.28-.17-.35-.3l-.15.11c0,.14.08.12.12.25a.92.92,0,0,0-.65.31.12.12,0,0,1,0-.22,3.68,3.68,0,0,1-1,.18c.24.18-.33.13-.16.28s.35.14.28.25,0-.09-.07-.13c-.11.14-.24-.15-.33.06.28-.13,0-.27,0-.45-.19.14,0-.12-.23-.08l-.66.35c-.32-.1-.74.16-1,.22s-.1-.27-.25-.27.17.18-.11.14l0,0c-.07.06-.5,0-.52.26l0-.22-.12.08c0-.07-.08-.12,0-.18-.19-.11-.33.09-.5.13l.14.1c-.28.16-.5.08-.78.18l0-.12-.16.11c0-.13-.15-.17-.22-.05l.38-.39c.14,0-.1.17,0,.28a.27.27,0,0,0,.37-.13c-.11,0-.11,0-.18.1-.07-.16.09-.19.14-.31s-.14,0-.14,0a.62.62,0,0,1,.37-.18c-.11.09.09.09.05.15,0-.15.14-.23.37-.23s.38-.2.64-.2a.88.88,0,0,1-.32.41c.18,0,.18,0,.35,0a.65.65,0,0,1,.26-.42l0,.11c.17-.1.14-.26.38-.28.42,0,.84-.12,1.15-.17l0,.11c.13-.27.56-.21.77-.36.42,0,.83-.28,1.08-.14a11.14,11.14,0,0,1,2-.55l-.09.19c.1-.15.1.07.22,0-.17-.1.14-.2.21-.32a1.56,1.56,0,0,0,1-.33l0,.1c.24-.26.63-.15,1-.19,0,0,.14.12.24.09.16-.22.26-.23.53-.4a2.86,2.86,0,0,1,.78,0,17.86,17.86,0,0,1,2.35-.74l.08.11a15.93,15.93,0,0,1,2.4-.67l0,.23c.23,0,.47-.16.39-.3.22,0,.5-.22.68-.07s.24-.16.41-.22a2.75,2.75,0,0,0,1-.19h-.1c0,.06,0,.15.08.14s.58,0,.37-.28c.47.06,1-.34,1.46-.23-.05-.06,0-.1.09-.15.38-.09.81,0,1.09-.21.07,0-.07.14.09.12s0-.1.09-.16a12.25,12.25,0,0,1,1.84-.28,27.6,27.6,0,0,1,3-.72v.06c.28-.27.8,0,1-.31.09,0,.29,0,.26.08.23-.2.75,0,1.08-.28l-.09.05c.4,0,.7-.19,1.11-.17l-.1.12c.17.07.31-.3.45-.06.09,0,0-.14,0-.12a16,16,0,0,0,2.66-.69c.68,0,.13.42.6.13,0,0,0-.11,0-.05.18-.12.37.22.47.05-.08-.14.08-.1.06-.2.42,0,.53.15.81,0v.09c.31-.31.76-.27,1-.61,2-.47,3.9-1,5.85-1.46s3.82-.87,5.82-1.14a1.2,1.2,0,0,0,1-.08s0,.05,0,.08c0-.19.35-.09.36-.27l2.15-.47c-.12,0-.15.2,0,.16l.12-.14,0,0c.09-.05.18-.15.07-.19,1.84-.55,3.77-.58,5.6-1a6.74,6.74,0,0,0,1.53-.35,14.23,14.23,0,0,0,4.16-.59,1.05,1.05,0,0,1-.66.72" transform="translate(0 -0.55)"/><path class="cls-2" d="M155.67,45.07c.07.08.24.09.14.24,0-.08-.14-.16-.14-.24" transform="translate(0 -0.55)"/><path class="cls-2" d="M160.24,45.07s.07,0,.08,0-.08.11-.14.07l.06-.1" transform="translate(0 -0.55)"/><path class="cls-2" d="M161.37,44.89c0,.08-.23.19-.37.23l.37-.23" transform="translate(0 -0.55)"/><path class="cls-2" d="M162.48,45c.1,0,.08.09,0,.11l0-.11" transform="translate(0 -0.55)"/><path class="cls-2" d="M162.51,44.8a.23.23,0,0,1,.19.05c0-.06-.19.09-.19-.05" transform="translate(0 -0.55)"/><path class="cls-2" d="M164.82,44.56c.06,0,.16-.11.23,0s-.25.15-.23,0" transform="translate(0 -0.55)"/><path class="cls-2" d="M165.85,44.22l.09,0c.07,0,0,.09,0,.11l-.05-.09" transform="translate(0 -0.55)"/><polyline class="cls-2" points="184.92 39.36 184.81 39.42 184.82 39.34 184.92 39.36"/><path class="cls-2" d="M193.31,38.15c.1-.07.09.06.11.06s0-.1-.11-.06" transform="translate(0 -0.55)"/><polyline class="cls-2" points="197.75 36.26 197.71 36.27 197.69 36.11 197.75 36.26"/><path class="cls-2" d="M169.19,65.78c-.1.22.19,0,0,.17,0-.06,0-.13,0-.17" transform="translate(0 -0.55)"/><path class="cls-2" d="M204.44,12.09c-.07.87-1,1.49-1.22,2.34,0,.1-.18-.14-.25.07a5.67,5.67,0,0,1-1.8,2.53l0-.08c-.15.13-.09.44-.23.59,0,0,0-.08-.09-.08s-.15.34-.11.46-.17,0-.28,0l.07.18c.12.46-.45.64-.54,1.1l-.06-.07a13.17,13.17,0,0,1-1.08,2.11c0-.05-.09-.13-.17-.12.11.11,0,.34-.08.53-.18,0-.07.38-.28.54l0,0c0,.25-.23.17-.14.41l-.17,0c.15.19-.24.15-.23.34l0,0c0,.15-.17.15-.21.28h0c-.12.29-.32.37-.17.46-.18,0,.11-.28-.16-.26a16.84,16.84,0,0,1-1.56,2.66c-.12.06-.18.11-.25.1s-.18.33-.16.46c0,0-.11,0-.15.05s.05.27-.12.4c0-.09,0-.15-.1-.16a1.34,1.34,0,0,1-.2.6l-.05-.12c0,.27-.25.33-.27.54l-.05-.11c-.28.2.13.19-.08.38l-.07-.11c0,.32-.26.63-.35.88l0,0a4.59,4.59,0,0,0-.44.76c-.1.06-.19-.17-.32.09.18.11-.2.47.09.45-.16.19-.45.48-.48.66,0-.13-.28,0-.18-.22l-.19.07c0-.07.12-.12,0-.14a2.12,2.12,0,0,1-.23.45,1.45,1.45,0,0,1-.05.79c0-.17-.24-.06-.21-.16l.09.58c-.05.09-.15-.07-.19.09l.06.16s-.2.39-.39.32.06-.17-.07-.11-.05.21-.15.37h0c-.09.09-.13.36,0,.31s-.12,0,0-.12c.05.14,0,.34-.15.51l-.08-.15a2.28,2.28,0,0,1-.22.84c.08.05-.08-.19,0-.2-.31.24-.26.75-.59.9,0-.05.13,0,.1,0s-.22.06-.24.19c-.07,0-.06.13-.1.25s-.05,0,0-.09a2.57,2.57,0,0,1-.61,1.06c.05,0,0,.31,0,.38l-.09-.1c-.11,0-.16.26-.25.21,0,.24.29-.68.25-.4-.13,0,0,.41-.15.27-.09.15-.07.37-.26.45,0,0-.06-.22-.14-.09s0,.09-.06.28l0,.14c.1.07-.14.18,0,.18-.1,0-.15.34-.31.21l-.11-.12c-.05.1,0,.24,0,.35h-.08c.2.15-.16.21-.07.43-.2.14-.33.48-.51.49a.83.83,0,0,1-.21.51v-.14c-.13.07-.09.13-.12.25,0,0-.26.13-.41.2s.11.21.17.27c-.3,0-.14.5-.44.55,0-.07,0-.28-.09-.19-.29,0,0,.37-.27.52l.21.06c-.17,0-.11.38-.27.25,0,.11-.22.21,0,.3-.37.26-.48.92-.92.94,0,.07-.12.18,0,.21s0-.16.1-.15l0,.11c-.11.08-.18.16-.25,0-.26.18.12.44-.15.71-.06-.06-.1-.06-.15,0V44c-.16.19-.23,0-.35-.05,0,.12-.14.25-.09.35l-.23,0c.17,0,0,.13,0,.2v-.07c-.06,0-.11.14-.14.21s.2-.08.26-.14l0,.28c-.1-.09-.19.13-.26.21s0,.17,0,.2-.11.15-.14,0,.1,0,.09-.12-.19,0-.2.14.24.12,0,.27l-.05-.18-.17.15.1.07h-.07c.08.12-.14.29-.05.42s-.19.14-.26.22v0a.37.37,0,0,0-.17.37l0,0a.48.48,0,0,0-.11.31c-.17.1-.42-.21-.4,0s0,.36.14.34c-.24.22-.27.64-.59.78,0,.07.05.06,0,.15-.3.37-.42.91-.83,1.09,0-.14-.1-.07-.16-.11,0,.16-.17.05,0,.19s.14.09.25,0a1.52,1.52,0,0,1-.51.7c.08,0,.08,0,.07.1-.13-.11-.27.05-.3.21l.08.08-.15,0c0,.07.15.18,0,.26l-.12,0c0,.19,0,.46-.19.55l-.21,0c0,.07,0,.23.09.14-.24.2-.35.36-.52.36a3.39,3.39,0,0,1-.75,1.74l-.06-.06c-.15.09.07.14,0,.21,0-.09-.2,0-.21-.15-.2.15-.05.33-.1.47s0-.14.11,0-.25.22-.13.34c-.09,0-.16-.09-.2-.15v.16c-.25,0-.07-.51-.36-.49l0,.13c-.21,0,0-.39-.2-.15,0,.16.12.39.25.32-.12.27.25.32.06.58-.13,0,.12-.22,0-.25s-.11.3-.22.38c.13-.09.2.1.17.2s-.06-.17-.2,0c0,.08,0,.3.15.18.13.19-.18.17-.11.36-.16,0-.16-.38-.36-.22.14,0,0,.37.25.38a.16.16,0,0,1-.23-.11c-.15.07,0,.43-.23.31l.1.13-.23,0c-.07.11-.06.45-.23.32,0,0-.17.27,0,.26s0-.22.24-.19c-.21,0-.12.22-.13.34l-.08,0c0,.07-.1.18,0,.26a.07.07,0,0,0-.12-.05l.07.13c-.08.24-.22-.08-.32.14l0-.21s-.15,0-.18.17l.2.33c0,.14-.14,0-.11.15l0-.22s-.22,0-.32.14,0,.36.17.25c-.05.07-.18.14-.21,0-.08.2.12,0,.09.24-.11,0-.33.14-.5.19l-.06-.26-.07.1c-.05-.22-.14,0-.23-.17a.42.42,0,0,0-.09.27c.36-.06.16.43.4.5-.13.32-.61-.15-.48.35.08,0,.15.23.2,0-.13.16.13.26-.09.41,0-.21-.31,0-.29-.28.06.06.13-.08.14-.13s-.2-.15-.32,0-.14.27,0,.32.09-.17.17,0c-.1.25-.31.17-.16.39.08-.15.22-.1.3,0l-.06.19-.05-.08c-.23.22.09.17-.1.4l-.23,0c-.09-.15.3-.32,0-.42-.11.16,0,.28-.19.4l0-.15c0,.06-.37-.07-.35.27,0,.16.06.08.14.13-.15.28-.12.41-.21.58-.14-.13-.21.29-.25,0a.56.56,0,0,0,.29-.59c-.25,0,.16-.19,0-.37-.14.21-.32.07-.46,0l0,.19c.1.09.15,0,.27.09a.91.91,0,0,0-.24.67.11.11,0,0,1-.15-.15,4.39,4.39,0,0,1-.56.82c.29-.05-.15.32.08.3s.34-.14.38,0-.08-.06-.15-.05c0,.18-.27.07-.19.28.11-.29-.19-.19-.3-.34,0,.24-.1-.07-.22.11l-.22.72c-.3.16-.42.63-.56.86-.15.07-.26-.12-.37,0s.25,0,0,.18l0,0c0,.09-.38.33-.19.55l-.13-.18,0,.14c-.06,0-.14,0-.14-.12-.21.06-.16.3-.26.46l.17,0c-.08.31-.3.41-.42.68l-.1-.07,0,.18c-.07-.1-.22,0-.19.13V65c.13-.07,0,.2.19.2s.25-.25.17-.35c-.07.08,0,.1-.06.19s-.06-.19-.12-.32c0,0-.11.09-.07.13a.63.63,0,0,1,.13-.39c0,.14.13,0,.14.07-.11-.1-.06-.26.1-.43s.13-.4.31-.59a.92.92,0,0,1,.07.51c.15-.09.09-.15.24-.24a.73.73,0,0,1-.11-.49l.1,0c.06-.19-.08-.28.08-.46s.51-.68.69-.93l.1.05c-.1-.28.25-.54.29-.8.31-.28.39-.79.66-.85a11.23,11.23,0,0,1,1-1.81l.07.19c0-.17.12,0,.17-.14-.19.06,0-.24-.07-.37a1.58,1.58,0,0,0,.46-.94l.1,0c0-.36.33-.55.56-.84.06,0,.19,0,.24-.1a1.44,1.44,0,0,1,.09-.66,2.58,2.58,0,0,1,.52-.58A18.26,18.26,0,0,1,177,53l.14,0c.2-.83,1-1.52,1.22-2.18l.15.18c.18-.14.22-.44.06-.49.17-.14.2-.51.43-.52s.06-.28.14-.45a3.13,3.13,0,0,0,.58-.85l-.07.08c0,.06.09.12.16,0s.37-.44.06-.46c.37-.29.46-.94.87-1.19-.08,0,0-.11,0-.17.22-.33.57-.59.63-.93.07,0,.05.16.15,0s-.08-.06-.05-.18c.23-.6.82-1,1.1-1.49a28.34,28.34,0,0,1,1.61-2.63l0,0c0-.39.6-.53.48-.92.09,0,.18-.23.24-.13,0-.3.52-.54.57-.95l0,.09c.31-.25.36-.62.67-.9v.15c.17-.07,0-.43.27-.36,0-.07-.07-.12-.1-.07a15.89,15.89,0,0,0,1.4-2.37c.49-.46.39.21.51-.33.07,0-.06-.08,0-.06.05-.21.41-.1.37-.29s0-.13-.1-.19c.31-.28.47-.26.55-.6l0,.07c0-.44.35-.73.29-1.15,1.09-1.74,2-3.47,3.11-5.17s2.08-3.32,3.31-4.92a1.17,1.17,0,0,0,.66-.79l.06.06c-.14-.12.18-.31.07-.45.43-.6.76-1.2,1.18-1.84-.05.11,0,.24.11.11v-.19h.05c0-.1,0-.23-.09-.18.92-1.69,2.26-3.08,3.26-4.67a7.76,7.76,0,0,0,.83-1.34,14.28,14.28,0,0,0,2.52-3.36,1.06,1.06,0,0,1,.05,1" transform="translate(0 -0.55)"/><path class="cls-2" d="M169.34,65.53c.1,0,.23-.1.26.07l-.26-.07" transform="translate(0 -0.55)"/><path class="cls-2" d="M172.56,62.3s.07,0,.09,0,0,.13-.05.14l0-.11" transform="translate(0 -0.55)"/><path class="cls-2" d="M173.23,61.38c.06.06,0,.29-.09.42l.09-.42" transform="translate(0 -0.55)"/><path class="cls-2" d="M174.09,60.67c.11,0,.13,0,.06.1l-.06-.1" transform="translate(0 -0.55)"/><path class="cls-2" d="M174,60.5a.22.22,0,0,1,.17-.09c-.06,0-.07.19-.17.09" transform="translate(0 -0.55)"/><path class="cls-2" d="M175.44,58.7c0-.05,0-.19.14-.18-.08,0-.06.28-.14.18" transform="translate(0 -0.55)"/><path class="cls-2" d="M175.93,57.73l0-.07c.06,0,.07.05.05.1l-.1,0" transform="translate(0 -0.55)"/><polyline class="cls-2" points="186.36 40.65 186.33 40.77 186.28 40.71 186.36 40.65"/><path class="cls-2" d="M191.05,34c0-.13.11,0,.13,0s-.06-.09-.13,0" transform="translate(0 -0.55)"/><polyline class="cls-2" points="193.25 29.39 193.23 29.42 193.1 29.32 193.25 29.39"/><path class="cls-2" d="M193.54,70.62c.09.22.11-.16.1.14-.08,0-.13-.06-.1-.14" transform="translate(0 -0.55)"/><path class="cls-2" d="M180.5,7.73c.57.66.36,1.74.79,2.52,0,.09-.23,0-.13.22a5.75,5.75,0,0,1,.52,3.07l-.08,0c0,.2.25.38.27.58-.05,0-.08-.05-.13,0,.14,0,.14.34.25.41s-.14.1-.17.21l.17.08c.41.24.13.77.4,1.16,0,0-.07,0-.1,0a12,12,0,0,1,.73,2.26.18.18,0,0,0-.2,0c.16,0,.25.23.32.43-.14.12.22.32.18.58h0c.2.14,0,.28.19.38l-.1.14c.24,0-.06.29.08.41l.05,0c.08.13,0,.23.05.35l0,0c.13.29,0,.49.21.44-.12.14-.13-.27-.29-.07a18.23,18.23,0,0,1,.77,3c0,.12-.05.2-.11.24s.11.37.22.44-.08.08-.07.14.23.16.19.37c-.06-.07-.12-.08-.18,0a1.29,1.29,0,0,1,.28.56l-.11-.05c.2.19,0,.41.19.58l-.12-.05c-.06.34.23.05.21.33,0-.05-.08,0-.12,0,.23.22.26.63.37.87h0a4.54,4.54,0,0,0,.22.84c0,.12-.25,0-.15.3.2-.05.18.47.38.26a2.11,2.11,0,0,0,.12.8c-.1-.09-.22.17-.28,0l-.09.18c-.08,0,0-.16-.1-.09s.18.38.16.48c.17.16.43.29.52.59-.11-.13-.2.13-.26,0l.48.35c0,.1-.16,0-.07.19.05,0,.09,0,.15.08s.13.41-.05.5-.08-.16-.13,0,.11.18.16.37h0c0,.13.16.35.24.19s-.11.06-.08-.08c.13.06.21.27.25.46,0-.06-.09,0-.15-.05a2.66,2.66,0,0,1,.43.75c.1,0-.19-.07-.15-.12-.05.39.34.71.22,1,0,0,.12-.06.1,0,0,.18-.11.2,0,.3-.08,0,0,.14.1.25s0,0-.06-.06a2.6,2.6,0,0,1,.33,1.18c.05,0,.24.2.25.28h-.13c-.06.1.07.29,0,.33.19.15-.28-.69-.11-.46-.09.09.27.31.09.29,0,.17.22.31.13.5,0-.05-.2-.1-.16,0s.08,0,.16.25l.07.11c.13,0,0,.23.15.11-.09,0,.14.35-.07.36h-.16c0,.11.2.14.29.21l-.07,0c.25,0,0,.26.25.35,0,.24.11.58,0,.71a.82.82,0,0,1,.22.51l-.1-.09c-.05.14,0,.16.09.26s-.09.28-.15.44c.11.15.23.07.31.07-.21.2.25.45.08.69,0-.05-.17-.23-.2-.07-.21.21.24.28.18.56l.19-.11c-.1.14.19.35,0,.37.09.07,0,.31.18.24-.07.45.31,1,0,1.32,0,.06,0,.21.14.16s-.11-.12,0-.17l.1,0c0,.14,0,.24-.2.15-.06.31.39.23.39.61-.08,0-.1,0-.07.14l.18.18c0,.24-.15.17-.29.2.05.12.08.28.19.32l-.14.19c.1-.14.11.08.15.14l0-.06c-.06,0,0,.18,0,.25s.08-.19.09-.28l.17.23c-.14,0-.05.22,0,.33s.14.1.14.14,0,.19-.08.12,0-.11,0-.16-.16.1,0,.24.26-.08.22.16l-.15-.09,0,.23.12,0-.05,0c.14,0,.11.31.26.33s0,.24,0,.35v0a.37.37,0,0,0,.13.38h0a.51.51,0,0,0,.14.3c-.05.19-.44.15-.25.31,0,.17.28.23.34.14,0,.33.26.64.13,1,.06,0,.08,0,.13.09.05.47.35.94.19,1.36-.08-.13-.13,0-.19,0,.13.09-.09.15.11.15s.16,0,.17-.17a1.45,1.45,0,0,1,.14.85c0-.08.08,0,.12,0-.18,0-.16.23-.07.37h.11l-.08.12c0,.05.23,0,.16.19l-.1.07c.12.14.31.33.26.52l-.13.18c0,.07.15.17.17,0,0,.31,0,.5-.12.63a3.31,3.31,0,0,1,.7,1.75h-.08c-.05.18.15.06.12.18-.09,0-.14.15-.26,0,0,.24.2.26.27.4s-.1-.11,0-.11,0,.33.15.34c-.05.07-.17,0-.24,0l.1.12c-.15.21-.41-.32-.6-.09l.06.12c-.14.16-.26-.3-.25,0,.11.13.36.2.4.06.11.28.41.05.46.37-.08.1-.08-.25-.19-.16s.13.28.11.42c0-.16.21-.07.26,0s-.17-.08-.14.15c.1,0,.21.21.24,0,.22,0,0,.24.17.33-.13.1-.38-.16-.4.1.13-.07.25.27.43.09,0,.11-.12.14-.23.09-.05.15.33.28.06.38l.15,0-.12.21c0,.12.28.34.06.38,0,0,.08.31.21.17s-.16-.17,0-.31c-.14.16.07.24.14.33l-.08,0c.05.06.06.2.16.22a.07.07,0,0,0-.12.05l.14,0c.11.23-.21.11-.13.33l-.13-.16s-.08.14,0,.25l.38.09c.07.12-.12.08,0,.19l-.17-.14s-.17.15-.13.33.27.24.29,0c0,.09,0,.23-.12.17.08.19.12-.05.23.11-.06.08-.13.33-.21.48l-.23-.14,0,.12c-.19-.12-.1.11-.28,0a.37.37,0,0,0,.12.25c.21-.29.42.19.64.07.13.32-.54.33-.09.59.05-.07.26,0,.15-.14,0,.21.27.09.22.35-.13-.16-.2.24-.4,0,.09,0,0-.16,0-.19s-.24,0-.2.24.09.29.21.24-.05-.19.1-.14c.1.25-.1.33.17.39-.06-.16.08-.23.17-.24l.1.17-.1,0c0,.31.18.06.22.35l-.15.17c-.17,0,0-.43-.26-.33,0,.19.17.23.14.42l-.08-.12c0,.07-.31.2-.06.43.1.12.1,0,.19,0,.09.3.21.37.26.56-.19,0,.06.35-.18.17a.54.54,0,0,0-.21-.62c-.19.15,0-.25-.25-.27,0,.25-.17.28-.31.35l.11.16c.14,0,.12-.09.25-.13a1,1,0,0,0,.31.65.11.11,0,0,1-.21,0,4.73,4.73,0,0,1,.18,1c.17-.24.12.33.27.16s.14-.35.26-.28-.1,0-.14.07c.15.11-.14.24.07.33-.13-.28-.28,0-.46,0,.14.19-.12,0-.07.23l.35.66c-.1.33.15.74.21,1s-.27.1-.27.26.18-.18.15.1l-.05,0c.06.07,0,.51.26.53l-.22,0,.08.12c-.07,0-.12.09-.18,0-.11.19.09.33.14.5l.1-.14c.16.28.07.51.18.79h-.12l.1.16c-.12,0-.16.15,0,.22l-.38-.38c0-.14.17.1.27,0s0-.34-.12-.36,0,.1.09.17c-.16.07-.18-.09-.31-.14,0,.05,0,.14,0,.14a.57.57,0,0,1-.18-.37c.09.11.09-.08.15-.05-.15,0-.23-.14-.24-.36s-.19-.39-.2-.65a.88.88,0,0,1,.41.32c0-.18,0-.18,0-.35a.67.67,0,0,1-.42-.26l.11,0c-.09-.17-.26-.14-.28-.38,0-.42-.11-.83-.16-1.15l.1,0c-.27-.13-.2-.56-.36-.77,0-.42-.28-.83-.13-1.08a11,11,0,0,1-.55-2l.18.08c-.14-.1.08-.1,0-.22-.1.17-.21-.14-.32-.21a1.58,1.58,0,0,0-.34-1l.11,0c-.27-.24-.16-.62-.2-1,0-.05.13-.14.09-.24-.21-.16-.22-.26-.4-.53a3.32,3.32,0,0,1,0-.78,19.5,19.5,0,0,1-.74-2.35l.12-.08a16,16,0,0,1-.68-2.4l.23,0c0-.23-.15-.47-.3-.39,0-.22-.22-.5-.06-.68,0-.22-.16-.24-.23-.41a2.79,2.79,0,0,0-.18-1v.1c.06,0,.16,0,.15-.08s-.06-.57-.29-.37c.06-.47-.34-1-.22-1.46-.06.05-.1,0-.16-.09-.08-.38,0-.81-.21-1.09,0-.07.15.07.12-.09s-.09,0-.16-.09a11,11,0,0,1-.27-1.84,25.44,25.44,0,0,1-.72-3h0c-.27-.28.05-.8-.31-1,0-.09,0-.29.08-.26-.2-.23,0-.74-.27-1.08l0,.09c0-.4-.19-.7-.16-1.11l.11.1c.07-.17-.29-.31-.06-.45,0-.08-.14,0-.12,0a16,16,0,0,0-.68-2.66c0-.68.42-.13.12-.6,0-.05-.1,0,0,0-.11-.18.22-.36.06-.47-.15.09-.11-.07-.2-.06,0-.42.14-.52,0-.81h.08c-.31-.32-.27-.77-.6-1-.47-2-1-3.9-1.46-5.85s-.87-3.82-1.14-5.82a1.17,1.17,0,0,0-.09-1s.06,0,.08,0c-.18,0-.09-.35-.27-.36l-.47-2.15c.05.12.21.15.17,0l-.15-.12,0,0c0-.09-.16-.17-.19-.06-.55-1.85-.58-3.78-1-5.61a8,8,0,0,0-.35-1.53,14.24,14.24,0,0,0-.6-4.16,1.06,1.06,0,0,1,.73.66" transform="translate(0 -0.55)"/><path class="cls-2" d="M193.47,70.34c.07-.07.09-.24.23-.14-.08,0-.15.14-.23.14" transform="translate(0 -0.55)"/><path class="cls-2" d="M193.46,65.77s0-.07,0-.08.1.08.06.14l-.1-.06" transform="translate(0 -0.55)"/><path class="cls-2" d="M193.28,64.65c.09,0,.2.22.24.36l-.24-.36" transform="translate(0 -0.55)"/><path class="cls-2" d="M193.39,63.53c.05-.1.09-.08.11,0l-.11,0" transform="translate(0 -0.55)"/><path class="cls-2" d="M193.2,63.5a.2.2,0,0,1,.05-.19c-.07,0,.08.19-.05.19" transform="translate(0 -0.55)"/><path class="cls-2" d="M193,61.19s-.1-.16,0-.23.16.25,0,.23" transform="translate(0 -0.55)"/><path class="cls-2" d="M192.61,60.16l0-.08c0-.07.1,0,.12,0l-.1,0" transform="translate(0 -0.55)"/><polyline class="cls-2" points="188.3 40.54 188.36 40.65 188.28 40.65 188.3 40.54"/><path class="cls-2" d="M186.54,32.7c-.07-.1.06-.09.07-.11s-.11,0-.07.11" transform="translate(0 -0.55)"/><g class="cls-3"><polyline class="cls-2" points="185.2 27.72 185.21 27.75 185.05 27.77 185.2 27.72"/><path class="cls-2" d="M.55,78.39c-.84,0,.45.15-.55.07a.69.69,0,0,1,.55-.07" transform="translate(0 -0.55)"/><path class="cls-2" d="M226.36,78.49c-2.71.46-6.27,0-9.24.29-.35,0,.09-.25-.69-.19a64.77,64.77,0,0,1-10.91-.13l.21-.08c-.66,0-1.48.19-2.19.16,0-.05.23-.07.07-.14-.18.15-1.28.07-1.58.18-.28-.06-.25-.17-.61-.23l-.41.16c-1.12.38-2.73,0-4.26.17.07,0,.22-.07.1-.1-2.46.23-5.55.18-8.3.27.11-.06.21-.16,0-.22a4.36,4.36,0,0,1-1.73.24c-.33-.17-1.26.16-2.13.06l.08,0c-.64.18-.95-.11-1.47.11l-.41-.14c-.28.25-.92-.12-1.45,0v0c-.49.06-.75-.06-1.22,0l0,0c-1.08.06-1.71-.07-1.69.12-.38-.15,1-.07.46-.29-3.57.19-7.24.16-10.83.16a3.2,3.2,0,0,1-.76-.17,13,13,0,0,0-1.67.13c.12,0-.23-.1-.42-.11-.65-.07-.72.21-1.43.13.28-.06.38-.12.28-.19a14.15,14.15,0,0,1-2.15.18c.12,0,.29-.06.26-.12-.79.17-1.44,0-2.13.08l.26-.12c-1.12-.13-.33.24-1.29.16.23,0,.14-.08.19-.13a27.41,27.41,0,0,1-3.25.21c.05,0,0,0,0,0-1,0-2,0-3.07,0-.39,0,.13-.27-.91-.23,0,.22-1.75.09-1.14.34a25.79,25.79,0,0,0-2.87,0c.39-.08-.43-.27.3-.29l-.55-.14c.08-.09.57,0,.39-.08-.37,0-1.44.1-1.77.06a10.93,10.93,0,0,1-2.41.42c.52-.08-.3-.24.06-.28l-1.54.43c-.37,0-.08-.18-.61-.12,0,.06-.21.09-.37.14s-1.53.06-1.69-.16.6,0,.2-.13c-.68,0-.71.08-1.39.08l0,0c-.44,0-1.31.1-.83.22.31,0-.12-.13.35-.07a6.56,6.56,0,0,1-1.79.16c.23,0,.21-.09.3-.15a25.58,25.58,0,0,1-2.9.3c0,.1.38-.19.53-.14-1.3-.14-2.69.21-3.78,0,.18,0,.1.15.08.12-.62,0-.6-.17-1-.11,0-.09-.52,0-.94.05-.22.07-.11,0,.26-.05a27,27,0,0,1-4.3.08,3.33,3.33,0,0,1-1.15.21l.13-.14c-.29-.08-1,0-1.1-.1-.67.17,2.57-.14,1.66,0-.23-.12-1.25.21-1.06,0a8.65,8.65,0,0,1-1.83,0c.17,0,.51-.19,0-.18-.89,0-.25.06-1,.11l-.45.06c0,.13-.8,0-.46.13-.11-.11-1.3.06-1.21-.16l.13-.17a3.58,3.58,0,0,0-.94.26c-.05,0-.15,0-.13-.08-.06.27-.92,0-1.38.18a17.73,17.73,0,0,1-2.43-.17,8.33,8.33,0,0,1-1.9.12c.14,0,.34,0,.38-.09a2.61,2.61,0,0,0-1,0,12.8,12.8,0,0,0-1.38-.25c-.62.08-.4.23-.47.32-.56-.27-1.74.17-2.45-.07.22,0,.91-.13.39-.2-.56-.26-1.14.19-2,.07l.23.22c-.41-.14-1.34.12-1.25-.1-.3.08-1.07-.07-1,.14-1.49-.18-3.64.11-4.55-.27-.22,0-.75,0-.64.11.35.12.49-.09.63,0-.2,0-.24.07-.26.1-.46,0-.83-.07-.39-.24-1-.14-1.06.36-2.38.27.06-.08,0-.12-.43-.1l-.73.15c-.85,0-.48-.2-.5-.35a4.3,4.3,0,0,0-1.22.13L92,79.08c.4.14-.37.09-.59.13l.22,0a3.17,3.17,0,0,0-.88,0,2.52,2.52,0,0,0,.89.15c-.23.07-.59.05-.9.13.1-.15-.74-.1-1.1-.12s-.47.13-.59.13-.67,0-.35-.12c.14,0,.32.07.56,0-.28,0-.25-.19-.81-.09s.11.29-.7.2a2.38,2.38,0,0,0,.41-.15l-.76-.07,0,.13c-.1,0,0,0-.08-.06-.22.14-1.15,0-1.33.2-.38,0-.8-.1-1.17-.11h.07a3.86,3.86,0,0,0-1.41.06l0,0a5,5,0,0,0-1.13.09c-.62-.1-.21-.5-.89-.34s-1,.25-.73.33c-1.12-.09-2.4.13-3.44-.07-.16,0-.06.08-.39.11a35.34,35.34,0,0,1-4.8-.1c.48-.06,0-.13,0-.21-.39.12-.47-.12-.62.08,0,.12,0,.18.47.23a17.1,17.1,0,0,1-3,0c.27.06.06.09-.15.13.07-.19-.66-.22-1.21-.15l-.07.11-.36-.12c-.21,0-.24.25-.78.14a.27.27,0,0,0-.16-.13,6.57,6.57,0,0,1-2,.16l-.5-.17c-.27,0-.71.12-.25.17a10.37,10.37,0,0,1-2.06-.26,36.3,36.3,0,0,1-6.55.35l.06-.09c-.56-.08-.29.15-.69.09.19-.08-.43-.18,0-.28a4.83,4.83,0,0,0-1.57.19c-.08.11.43-.08.33.07s-1.12-.09-1.25.09c-.2-.07-.05-.2.06-.27l-.49.08c-.61-.2,1.38-.36.74-.61l-.45,0c-.44-.18,1.2-.2.06-.26-.5.08-.92.33-.48.41-1,0-.48.42-1.59.4-.31-.1.89,0,.67-.17a8.32,8.32,0,0,0-1.51,0c.51.06.08.24-.26.27-.56-.08.37-.17-.43-.19-.13.11-.87.18-.23.25-.29.23-.84-.06-1.27.12-.26-.16.82-.38-.06-.46.14.16-1.08.22-.62.44-.34,0-.38-.16-.13-.26-.49-.09-1.19.29-1.36,0l-.16.16c-.16,0-.38-.09-.63-.18-.44,0-1.4.22-1.36,0-.14,0-1.13,0-.75.18.62.1.71-.12,1,.1a2.15,2.15,0,0,0-1.24.08l-.06-.09c-.21,0-.7,0-.83.12.16-.06.07-.12-.09-.14l-.23.14c-.86.07-.2-.25-1-.21l.64-.11a7.61,7.61,0,0,0-.83-.06c-.16.13-.45.28-.58.38-.48.06-.21-.14-.68,0l.61-.16c.09,0-.41-.21-1-.21-.41,0-1,.23-.4.3-.31,0-.76-.07-.51-.16-.71,0,.1.13-.52.21-.25-.08-1-.2-1.52-.33l.65-.21h-.43c.56-.17-.28-.13,0-.31a3.62,3.62,0,0,0-.93.08c.86.29-1,.4-.71.66-1.18.08-.74-.64-2-.23.2.07-.37.27.37.2-.73,0-.5.26-1.36.16.64-.11-.69-.27.24-.43-.07.09.51.06.65,0-.3-.1.06-.27-.69-.27-.45,0-1.08,0-1,.17s.7,0,.41.14c-.91,0-1.06-.18-1.44.09.57,0,.72.14.71.24l-.67.06.13-.1c-1.07-.07-.32.19-1.36.16l-.48-.2c.24-.17,1.51.08,1.32-.2a11.39,11.39,0,0,1-1.53.05l.47-.05a2.06,2.06,0,0,0-1.44-.16c-.5.08-.14.09-.15.2-1.08,0-1.41.14-2.1.15.14-.2-1.24,0-.47-.22a5.82,5.82,0,0,0,2.31-.09c-.4-.24.85,0,1.08-.21-.87,0-.82-.25-1-.4a2.46,2.46,0,0,0-.62.08c-.1.15.21.14.23.29a9.27,9.27,0,0,0-2.44.19c-.32-.07-.22-.22.16-.24-1.15,0-2.38,0-3.48,0,.71.24-1.22.06-.74.26.59,0,1.09.22.77.33s0-.1-.14-.16c-.47.14-.73-.2-1.19,0,1.06-.07.21-.29.4-.48-.76.11,0-.13-.72-.13s-1.69.19-2.53.23a23,23,0,0,0-3.62,0c-.5-.09-.16-.31-.7-.34s.47.23-.47.13l.1,0c-.29,0-1.71-.15-2,.16l.29-.23a1.77,1.77,0,0,0-.48,0c0-.07-.21-.14.07-.19a7,7,0,0,0-1.83,0l.4.14c-1.07.11-1.78,0-2.82,0l0-.14L3,78.89c.15-.13-.42-.21-.74-.1l1.6-.33c.44.08-.49.17-.21.3A2.54,2.54,0,0,0,5,78.71a2,2,0,0,0-.67.06c-.12-.19.44-.18.71-.3-.19,0-.46,0-.5,0a5.7,5.7,0,0,1,1.38-.11c-.42.07.23.11.07.17,0-.17.65-.22,1.43-.17a14.16,14.16,0,0,0,2.36-.07,4.77,4.77,0,0,1-1.38.36c.57.09.63,0,1.2.08a2.64,2.64,0,0,1,1.2-.38l0,.12a5.86,5.86,0,0,1,1.52-.21c1.46.06,3,.06,4.07.07l0,.13a18,18,0,0,1,2.9-.22c1.41.12,3.07-.11,3.8.1,2.5-.1,4.69-.19,7.28-.14l-.44.17c.47-.13.31.11.76.08-.52-.14.63-.19.95-.29A17.56,17.56,0,0,0,35.39,78l0,.12a16.29,16.29,0,0,1,3.56,0,1.68,1.68,0,0,0,.76.15,12.65,12.65,0,0,1,2.09-.3c.74,0,2,0,2.72.12,2.82-.27,5.69-.1,8.61-.26l.21.14c2.84-.31,6.33,0,8.75-.19l-.23.25c.76.07,1.73-.07,1.53-.24a14.7,14.7,0,0,1,2.39.08,9.53,9.53,0,0,0,1.6-.14,31,31,0,0,0,3.6,0h-.37c-.16,0-.17.16.19.17.55-.07,2,.07,1.47-.22,1.57.16,3.66-.14,5.18.09-.13-.08.26-.1.42-.15,1.38,0,2.82.16,3.92,0,.22,0-.35.14.21.15.33,0,0-.11.42-.15,2.22-.15,4.51.15,6.53.11,3.61-.15,7.36-.08,10.81-.1l0,.06c1.16-.23,2.71.23,3.64-.11.27.06,1,0,.84.14.92-.16,2.57.15,3.9-.05l-.33,0c1.34.13,2.53,0,4,.07-.15,0-.41,0-.45.1.55.11,1.3-.25,1.6,0,.31,0,.22-.15,0-.14,3.1.11,6.42-.07,9.65-.13,2.31.17.14.47,2,.26.15.06.11-.11.13,0,.71-.08,1.1.32,1.59.17-.2-.17.33-.1.34-.2a11.23,11.23,0,0,0,2.82.13l-.09.1c1.31-.26,2.83-.12,3.94-.42,7.22-.06,14.14-.22,21.19-.26s13.77-.07,20.84.09a12.57,12.57,0,0,0,3.6.13c-.07,0-.19,0-.07.09.1-.2,1.29,0,1.46-.21,2.61,0,5,0,7.71,0-.43,0-.64.18-.13.17l.52-.12.09.05c.35,0,.72-.13.37-.19,6.75-.17,13.4.23,20,.18,1.57.08,3.81,0,5.52,0,5,.27,9.61.48,14.75.29a5.56,5.56,0,0,1-2.79.63" transform="translate(0 -0.55)"/></g><path class="cls-2" d="M1.56,78.37c.18.1.77.15.3.28-.06-.09-.36-.19-.3-.28" transform="translate(0 -0.55)"/><path class="cls-2" d="M17.27,79.38s.23,0,.28.06a1.72,1.72,0,0,1-.54,0c.2,0,.17-.06.26-.1" transform="translate(0 -0.55)"/><path class="cls-2" d="M21.29,79.44a5,5,0,0,1-1.43.17l1.43-.17" transform="translate(0 -0.55)"/><path class="cls-2" d="M25,79.8c.32.08.23.12-.2.11,0,0,.11-.07.2-.11" transform="translate(0 -0.55)"/><path class="cls-2" d="M25.3,79.6a1.65,1.65,0,0,1,.61.1c0-.07-.72,0-.61-.1" transform="translate(0 -0.55)"/><path class="cls-2" d="M33.42,79.86a2,2,0,0,1,.8,0c-.2-.07-.95.11-.8,0" transform="translate(0 -0.55)"/><path class="cls-2" d="M37.2,79.72h.31c.23,0,0,.11-.2.11l-.11-.11" transform="translate(0 -0.55)"/><polyline class="cls-2" points="105.94 78.83 105.53 78.87 105.59 78.78 105.94 78.83"/><path class="cls-2" d="M136.06,79.37c.4-.06.28.08.35.09-.37,0,.13-.1-.35-.09" transform="translate(0 -0.55)"/><polyline class="cls-2" points="152.3 78.39 152.18 78.39 152.22 78.21 152.3 78.39"/><path class="cls-4" d="M66.66,16.79v1.37H63.25a9.88,9.88,0,0,0-3,.4l-.73-1a7.08,7.08,0,0,0,.5-2.64V3.11A6.25,6.25,0,0,0,59.62.55h1.61a5.72,5.72,0,0,1,.43,2.38v12.2A4.81,4.81,0,0,1,61.41,17,6.67,6.67,0,0,1,63,16.79h3.66" transform="translate(0 -0.55)"/><path class="cls-4" d="M75.7,18.16H74a2.48,2.48,0,0,1-.29-1,2.82,2.82,0,0,1-1,.88,3.07,3.07,0,0,1-1.55.44,2.87,2.87,0,0,1-2.36-1A3.51,3.51,0,0,1,68,15.09v-2a3.53,3.53,0,0,1,1-2.43A3.61,3.61,0,0,1,71.7,9.54a2.86,2.86,0,0,1,2,.66V8.5c0-1.42-.76-2.14-2.27-2.14A3,3,0,0,0,69.52,7V5.66a3.21,3.21,0,0,1,2-.66,4,4,0,0,1,2.5.77,2.55,2.55,0,0,1,1,2.12V16a3.27,3.27,0,0,0,.63,2.12m-2-3.64V11.29a3,3,0,0,0-1.79-.61,2.07,2.07,0,0,0-1.65.81,3,3,0,0,0-.67,2v1.2c0,1.76.61,2.64,1.84,2.64a2,2,0,0,0,1.61-1A3.2,3.2,0,0,0,73.7,14.52Z" transform="translate(0 -0.55)"/><path class="cls-4" d="M80.18,2.86a5.62,5.62,0,0,1,.13.91V5.32h2.91V6.46H80.31v7.77c0,1.94.6,2.9,1.8,2.9a2.65,2.65,0,0,0,1.09-.25L83.65,18a3.85,3.85,0,0,1-2,.5,2.48,2.48,0,0,1-1.9-.82,4.31,4.31,0,0,1-.89-2.93V6.46H77.11V5.32h1.75V4a3.66,3.66,0,0,0-.2-1.15h1.52" transform="translate(0 -0.55)"/><polyline class="cls-4" points="89.2 17.61 87.36 17.61 85.02 4.79 86.38 4.79 88.26 15.32 90.1 4.79 91.56 4.79 89.2 17.61"/><path class="cls-4" d="M95.76,7.75V18.16H94.35V7.64A5.82,5.82,0,0,0,94,5.32h1.52a6.7,6.7,0,0,1,.29,2.43" transform="translate(0 -0.55)"/><path class="cls-4" d="M101,7.75V18.16a3,3,0,0,1-.81,2.18,2.32,2.32,0,0,1-1.71.75,3.91,3.91,0,0,1-1.93-.55l.39-1a2.29,2.29,0,0,0,1.16.28,1.46,1.46,0,0,0,1-.45,1.6,1.6,0,0,0,.47-1.23V7.64a5.81,5.81,0,0,0-.41-2.32h1.52A6.7,6.7,0,0,1,101,7.75" transform="translate(0 -0.55)"/><path class="cls-4" d="M111.4,18.16h-1.69a2.48,2.48,0,0,1-.29-1,2.73,2.73,0,0,1-1,.88,3.07,3.07,0,0,1-1.55.44,2.9,2.9,0,0,1-2.36-1,3.55,3.55,0,0,1-.82-2.41v-2a3.49,3.49,0,0,1,1-2.43,3.6,3.6,0,0,1,2.75-1.14,2.87,2.87,0,0,1,2,.66V8.5c0-1.42-.76-2.14-2.28-2.14a3,3,0,0,0-1.9.62V5.66a3.2,3.2,0,0,1,2-.66,4,4,0,0,1,2.5.77,2.53,2.53,0,0,1,1,2.12V16a3.21,3.21,0,0,0,.64,2.12m-2-3.64V11.29a3,3,0,0,0-1.8-.61,2.07,2.07,0,0,0-1.65.81,3.1,3.1,0,0,0-.67,2v1.2c0,1.76.62,2.64,1.84,2.64a2.06,2.06,0,0,0,1.62-1A3.2,3.2,0,0,0,109.4,14.52Z" transform="translate(0 -0.55)"/><path class="cls-4" d="M116.73,18.5a4,4,0,0,1-2.56-.87l.59-1a2.53,2.53,0,0,0,1.72.7,1.5,1.5,0,0,0,1.28-.61,2.12,2.12,0,0,0,.36-1.23,2.49,2.49,0,0,0-1.05-2.16l-1.79-1.29a4.19,4.19,0,0,1-2-3.46,3.93,3.93,0,0,1,.79-2.45A3,3,0,0,1,116.5,5a3,3,0,0,1,2.31.8,4.8,4.8,0,0,1,.9,3.29h-1.4c0-2-.57-2.95-1.7-2.95a1.52,1.52,0,0,0-1.3.64,2.77,2.77,0,0,0-.46,1.65A3,3,0,0,0,116.17,11L118,12.35a3.66,3.66,0,0,1,1.71,3,3.39,3.39,0,0,1-.57,2,2.71,2.71,0,0,1-2.41,1.12" transform="translate(0 -0.55)"/><path class="cls-4" d="M14.11,26.49a3.44,3.44,0,0,1,1,2.62c0,1.22,0,2.13,0,2.75a2.87,2.87,0,0,1-.81,2,3.48,3.48,0,0,1-1.48,1l2.34,5.5a7.15,7.15,0,0,1,.59,2.8H14.06a7.1,7.1,0,0,0-.57-2.69l-2.77-6.31c1.85-.37,2.77-1.24,2.77-2.64V29.46c0-1.7-.89-2.55-2.68-2.55H9.5a6.36,6.36,0,0,1,.11,1V43.16H8v-15a6.09,6.09,0,0,0-.46-2.57h3.89a3.76,3.76,0,0,1,2.66.94" transform="translate(0 -0.55)"/><path class="cls-4" d="M20,32.75V43.16H18.58V32.64a5.64,5.64,0,0,0-.41-2.32H19.7A6.94,6.94,0,0,1,20,32.75" transform="translate(0 -0.55)"/><path class="cls-4" d="M25.1,27.87a4.9,4.9,0,0,1,.14.9v1.55h2.91v1.14H25.24v7.77c0,1.94.6,2.9,1.8,2.9a2.68,2.68,0,0,0,1.09-.25L28.58,43a3.88,3.88,0,0,1-2,.5,2.5,2.5,0,0,1-1.91-.82,4.31,4.31,0,0,1-.88-2.93V31.46H22V30.32h1.75V29a3.36,3.36,0,0,0-.21-1.14H25.1" transform="translate(0 -0.55)"/><path class="cls-4" d="M30.63,39V35.36a6.87,6.87,0,0,1,.86-3.63A3.21,3.21,0,0,1,34.44,30a3,3,0,0,1,3,1.84,12.17,12.17,0,0,1,.66,4.64v1H32.19v1.18q0,3.72,2.39,3.72a3.8,3.8,0,0,0,1.93-.59L37,43a4.77,4.77,0,0,1-2.23.57,4,4,0,0,1-2.88-1A4.48,4.48,0,0,1,30.63,39m5.83-2.73a12.81,12.81,0,0,0-.43-4,1.58,1.58,0,0,0-1.59-1.15q-2.25,0-2.25,5.15Z" transform="translate(0 -0.55)"/><path class="cls-4" d="M47.58,33.45v9.71H46.21V33.09a1.81,1.81,0,0,0-.6-1.41,2,2,0,0,0-1.33-.54,1.88,1.88,0,0,0-1.29.52,1.81,1.81,0,0,0-.69,1.43V43.16H40.94V33.45a8.19,8.19,0,0,0-.52-3.11h1.43a2.16,2.16,0,0,1,.25.8A2.69,2.69,0,0,1,44.53,30q3,0,3,3.45" transform="translate(0 -0.55)"/><path class="cls-4" d="M57.62,38.86a4.53,4.53,0,0,1-1,2.75,3.56,3.56,0,0,1-3,1.55H51.23a6.14,6.14,0,0,1-.75-3.32v-12a5.64,5.64,0,0,0-.41-2.32h1.48a6.64,6.64,0,0,1,.3,2.43v3.38A2.72,2.72,0,0,1,54.25,30a3,3,0,0,1,2.6,1.48,5.85,5.85,0,0,1,.77,3.11c0,.77,0,2.2,0,4.27M56,34.59c0-2.15-.62-3.23-1.86-3.23a2,2,0,0,0-1.7.93A2.86,2.86,0,0,0,51.85,34v5.59A4.73,4.73,0,0,0,52.26,42h1.13a2.28,2.28,0,0,0,2-1.41A4.91,4.91,0,0,0,56,38.32Z" transform="translate(0 -0.55)"/><path class="cls-4" d="M62.28,34.79v8.37H60.87V32.64a5.81,5.81,0,0,0-.41-2.32H62a3.85,3.85,0,0,1,.25,1.41v.43A3.06,3.06,0,0,1,65.07,30a2.44,2.44,0,0,1,1.39.34l-.64,1.55a2.49,2.49,0,0,0-1.23-.3,2,2,0,0,0-1.7,1.05,3.86,3.86,0,0,0-.61,2.15" transform="translate(0 -0.55)"/><path class="cls-4" d="M75.82,43.16H74.14a2.31,2.31,0,0,1-.3-1,2.73,2.73,0,0,1-1,.88,3.07,3.07,0,0,1-1.55.44,2.9,2.9,0,0,1-2.36-1,3.55,3.55,0,0,1-.82-2.41v-2a3.49,3.49,0,0,1,1-2.43,3.6,3.6,0,0,1,2.75-1.14,2.87,2.87,0,0,1,2,.66V33.5c0-1.42-.76-2.14-2.28-2.14a3,3,0,0,0-1.9.62V30.66a3.2,3.2,0,0,1,2-.66,4,4,0,0,1,2.5.77,2.53,2.53,0,0,1,1,2.12V41a3.21,3.21,0,0,0,.64,2.12m-2-3.64V36.29a2.94,2.94,0,0,0-1.8-.61,2.07,2.07,0,0,0-1.65.81,3.1,3.1,0,0,0-.67,2v1.2c0,1.76.62,2.64,1.84,2.64a2,2,0,0,0,1.62-1A3.2,3.2,0,0,0,73.82,39.52Z" transform="translate(0 -0.55)"/><path class="cls-4" d="M78.13,40v-9.7H79.5v9.84a2.14,2.14,0,0,0,.61,1.53,1.78,1.78,0,0,0,1.32.65,1.9,1.9,0,0,0,1.33-.66,2.1,2.1,0,0,0,.64-1.52V30.34h1.37v9.71a8.19,8.19,0,0,0,.52,3.11H83.86a2,2,0,0,1-.25-1,2.49,2.49,0,0,1-2.43,1.37q-3,0-3.05-3.46" transform="translate(0 -0.55)"/><path class="cls-4" d="M87.79,35.23q0-5.23,3.75-5.23a3.58,3.58,0,0,1,2.91,1.25,4.77,4.77,0,0,1,.91,3h-1.6c0-2.1-.73-3.15-2.2-3.15s-2.18,1.49-2.18,4.47v3a5.16,5.16,0,0,0,.64,2.8,1.7,1.7,0,0,0,1.52.93,3.51,3.51,0,0,0,1.77-.48L93.76,43a4.67,4.67,0,0,1-2.29.53,3.44,3.44,0,0,1-2.54-1A4.77,4.77,0,0,1,87.79,39V35.23" transform="translate(0 -0.55)"/><path class="cls-4" d="M97.44,39V35.36a6.87,6.87,0,0,1,.87-3.63,3.22,3.22,0,0,1,3-1.73,3,3,0,0,1,3,1.84,12.17,12.17,0,0,1,.66,4.64v1H99v1.18q0,3.72,2.39,3.72a3.83,3.83,0,0,0,1.93-.59l.48,1.16a4.77,4.77,0,0,1-2.23.57,4.06,4.06,0,0,1-2.89-1A4.51,4.51,0,0,1,97.44,39m5.85-2.73a12.73,12.73,0,0,0-.44-4,1.57,1.57,0,0,0-1.59-1.15Q99,31.14,99,36.29Z" transform="translate(0 -0.55)"/><path class="cls-4" d="M109.56,32.75V43.16a3,3,0,0,1-.82,2.18,2.32,2.32,0,0,1-1.71.75,3.91,3.91,0,0,1-1.93-.55l.39-1a2.29,2.29,0,0,0,1.16.28,1.45,1.45,0,0,0,1-.45,1.6,1.6,0,0,0,.47-1.23V32.64a5.81,5.81,0,0,0-.41-2.32h1.52a6.64,6.64,0,0,1,.3,2.43" transform="translate(0 -0.55)"/><path class="cls-4" d="M112.58,40v-9.7h1.36v9.84a2.14,2.14,0,0,0,.61,1.53,1.78,1.78,0,0,0,1.32.65,1.89,1.89,0,0,0,1.33-.66,2.11,2.11,0,0,0,.65-1.52V30.34h1.36v9.71a8.39,8.39,0,0,0,.52,3.11H118.3a2.09,2.09,0,0,1-.25-1,2.47,2.47,0,0,1-2.43,1.37q-3,0-3-3.46" transform="translate(0 -0.55)"/><path class="cls-4" d="M52.48,68.16H50.8a2.48,2.48,0,0,1-.29-1,2.82,2.82,0,0,1-1,.88A3.07,3.07,0,0,1,48,68.5a2.87,2.87,0,0,1-2.36-1,3.51,3.51,0,0,1-.82-2.41v-2a3.53,3.53,0,0,1,.95-2.43,3.61,3.61,0,0,1,2.75-1.13,2.85,2.85,0,0,1,2,.65V58.5c0-1.42-.76-2.14-2.27-2.14A3,3,0,0,0,46.3,57V55.66A3.21,3.21,0,0,1,48.35,55a4,4,0,0,1,2.5.77,2.55,2.55,0,0,1,1,2.12V66a3.27,3.27,0,0,0,.63,2.12m-2-3.64V61.29a3,3,0,0,0-1.79-.61,2.07,2.07,0,0,0-1.65.81,3,3,0,0,0-.67,2v1.21c0,1.75.61,2.63,1.84,2.63a2,2,0,0,0,1.61-1A3.2,3.2,0,0,0,50.48,64.52Z" transform="translate(0 -0.55)"/><path class="cls-4" d="M55.05,57.45a4.87,4.87,0,0,0-.41-2.11h1.41a4.37,4.37,0,0,1,.27,1.23,3.23,3.23,0,0,1,.89-1.12A3,3,0,0,1,59,55a2.79,2.79,0,0,1,2.34,1.23,5.54,5.54,0,0,1,.91,3.38v4.62a4.49,4.49,0,0,1-1.1,3.15,3.08,3.08,0,0,1-2.37,1.12,2.35,2.35,0,0,1-2.35-1.41V72.5H55.05v-15m1.36,6.8a4.05,4.05,0,0,0,.48,2.06,1.85,1.85,0,0,0,1.7,1,1.7,1.7,0,0,0,1.57-1A5,5,0,0,0,60.64,64V59.34A4,4,0,0,0,60,56.82a1.6,1.6,0,0,0-1.34-.68,1.92,1.92,0,0,0-1.57.86,3.47,3.47,0,0,0-.66,2.16Z" transform="translate(0 -0.55)"/><polyline class="cls-4" points="68.45 67.61 66.61 67.61 64.27 54.79 65.64 54.79 67.51 65.32 69.36 54.79 70.82 54.79 68.45 67.61"/><path class="cls-4" d="M75,57.75V68.16H73.61V57.64a5.64,5.64,0,0,0-.41-2.32h1.52a6.64,6.64,0,0,1,.3,2.43" transform="translate(0 -0.55)"/><path class="cls-4" d="M78,64V60.36a6.87,6.87,0,0,1,.87-3.63,3.21,3.21,0,0,1,3-1.73,3,3,0,0,1,3,1.84,12.24,12.24,0,0,1,.65,4.64v1H79.54v1.18q0,3.72,2.39,3.72a3.83,3.83,0,0,0,1.93-.59L84.34,68a4.77,4.77,0,0,1-2.23.57,4.06,4.06,0,0,1-2.89-1A4.51,4.51,0,0,1,78,64m5.84-2.73a12.69,12.69,0,0,0-.43-4,1.58,1.58,0,0,0-1.59-1.16q-2.25,0-2.25,5.15Z" transform="translate(0 -0.55)"/><path class="cls-4" d="M94.92,58.45v9.71H93.56V58.09a1.82,1.82,0,0,0-.6-1.41,2,2,0,0,0-1.33-.54,1.93,1.93,0,0,0-1.3.52,1.83,1.83,0,0,0-.68,1.43V68.16H88.29V58.45a8.39,8.39,0,0,0-.52-3.11H89.2a2.16,2.16,0,0,1,.25.8A2.69,2.69,0,0,1,91.88,55q3,0,3,3.45" transform="translate(0 -0.55)"/><path class="cls-4" d="M99.58,57.75V68.16H98.17V57.64a5.64,5.64,0,0,0-.41-2.32h1.53a6.94,6.94,0,0,1,.29,2.43" transform="translate(0 -0.55)"/><path class="cls-4" d="M109.85,63.86a4.58,4.58,0,0,1-.95,2.75,3.59,3.59,0,0,1-3,1.55h-2.45a6.14,6.14,0,0,1-.75-3.32v-12a5.79,5.79,0,0,0-.41-2.31h1.47a6.64,6.64,0,0,1,.3,2.43v3.38A2.73,2.73,0,0,1,106.49,55a3,3,0,0,1,2.59,1.48,5.85,5.85,0,0,1,.77,3.11c0,.77,0,2.2,0,4.27m-1.61-4.27c0-2.15-.62-3.23-1.87-3.23a2,2,0,0,0-1.7.94,2.88,2.88,0,0,0-.59,1.75v5.58a4.84,4.84,0,0,0,.41,2.39h1.13a2.27,2.27,0,0,0,2-1.41,4.8,4.8,0,0,0,.57-2.29Z" transform="translate(0 -0.55)"/><path class="cls-4" d="M119.92,68.16h-1.69a2.48,2.48,0,0,1-.29-1,2.73,2.73,0,0,1-1,.88,3.07,3.07,0,0,1-1.55.44,2.89,2.89,0,0,1-2.36-1,3.55,3.55,0,0,1-.82-2.41v-2a3.49,3.49,0,0,1,1-2.43,3.58,3.58,0,0,1,2.75-1.13,2.89,2.89,0,0,1,2,.65V58.5c0-1.42-.76-2.14-2.28-2.14a3,3,0,0,0-1.9.62V55.66a3.2,3.2,0,0,1,2-.66,4,4,0,0,1,2.5.77,2.55,2.55,0,0,1,1,2.12V66a3.21,3.21,0,0,0,.64,2.12m-2-3.64V61.29a3,3,0,0,0-1.8-.61,2.07,2.07,0,0,0-1.65.81,3.08,3.08,0,0,0-.67,2v1.21c0,1.75.62,2.63,1.84,2.63a2.06,2.06,0,0,0,1.62-1A3.2,3.2,0,0,0,117.92,64.52Z" transform="translate(0 -0.55)"/><path class="cls-5" d="M148.92,62.09a9.16,9.16,0,1,1-9.16-9.16,9.16,9.16,0,0,1,9.16,9.16" transform="translate(0 -0.55)"/><path class="cls-5" d="M149.21,62.23c0-.22-.16.11-.05-.14.06,0,.1.07.05.14" transform="translate(0 -0.55)"/><path class="cls-5" d="M149.06,61.37c-.43-.64-.19-1.59-.72-2.22-.05-.08.22,0,.11-.23a9.4,9.4,0,0,1-1.22-2.48h.08c-.07-.16-.37-.19-.46-.35s.08,0,.1-.06-.25-.22-.38-.21l.06-.26-.17,0c-.44,0-.52-.48-.93-.59l.08-.06c-.58-.28-1.23-.67-1.87-.92a.22.22,0,0,0,.1-.18c-.1.13-.3.06-.47,0,0-.2-.35,0-.52-.12l0,0c-.2.12-.19-.16-.38,0l-.05-.14c-.13.19-.19-.18-.35-.11v0c-.13,0-.17-.11-.29-.11v0c-.26,0-.4-.15-.42,0-.07-.14.26,0,.16-.25-.92.11-1.81-.11-2.69.06-.11-.06-.18-.07-.21-.14s-.33.07-.4.17-.07-.09-.12-.09-.14.19-.33.18c.06-.07.08-.13,0-.19-.12.18-.32.22-.48.31l0-.11c-.15.2-.36.07-.49.22l0-.12c-.31,0,0,.23-.27.23.05,0,0-.08,0-.12-.15.24-.52.28-.68.46v0a3.45,3.45,0,0,0-.64.41c-.11,0-.09-.24-.31-.08.12.17-.33.28-.08.4a1.14,1.14,0,0,0-.58.38c0-.12-.23-.12-.1-.25h-.18c0-.08.13-.07,0-.13s-.23.31-.32.33c-.05.21,0,.48-.21.67.05-.14-.21-.11-.17-.19V56c-.05.07-.13-.1-.18,0l0,.15s-.19.32-.37.22.06-.14-.06-.11-.05.18-.16.31h0c-.09.07-.14.3,0,.27s-.12-.05,0-.1a.51.51,0,0,1-.15.42L132.5,57l-.12.75c.08,0-.11-.17,0-.18-.26.22-.14.65-.43.79,0,0,.13,0,.1,0s-.2.07-.2.17,0,.12,0,.23,0,0,0-.08a1.77,1.77,0,0,1-.23,1c.05,0,.13.23.1.3l-.11-.06c-.09.05-.06.24-.17.23.1.18.06-.62.11-.38-.12,0,.1.33-.05.25,0,.14,0,.3-.07.42,0,0-.16-.15-.16,0s0,.07.07.25l0,.11c.12,0,0,.19.11.13-.1,0,0,.31-.16.26l-.16,0c0,.09.15.16.21.24l-.07,0c.24,0,0,.21.13.33-.12.18,0,.47-.16.56.09.15.19.27.15.44l-.09-.08c-.06.11,0,.13.06.22s-.13.23-.2.36c.09.13.21.06.29.07-.21.17.17.38,0,.57,0,0-.17-.18-.2-.05-.2.19.25.23.2.46l.18-.1c-.09.12.21.26,0,.3.09,0,0,.26.19.17,0,.4.33.77.15,1.09.06,0,.09.16.16.09s-.12-.07-.07-.13l.11,0c0,.11,0,.2-.16.17,0,.28.42.08.5.38-.08,0-.1.06,0,.14l.2.07c.06.19-.1.2-.22.28.07.08.13.21.25.18l0,.2c0-.15.12,0,.18,0l-.06,0c0,.05.08.13.13.17s0-.19,0-.25l.23.09c-.12.06,0,.19.08.26s.16,0,.17,0,.1.13,0,.13,0-.1-.07-.1-.1.15.05.2.18-.19.24,0h-.16l.06.19.1-.08,0,.05c.12,0,.2.19.32.12l.15.24h0a.3.3,0,0,0,.3.17h0a.33.33,0,0,0,.25.11c0,.16-.25.39,0,.37a.22.22,0,0,0,.32-.13c.14.25.49.25.61.51l.14,0c.32.22.76.25.93.62-.12,0-.05.1-.08.17.13,0,.06.15.17,0s0-.15,0-.23a1,1,0,0,1,.66.25c-.05-.07,0-.09.07-.1-.08.16.08.23.22.21l.05-.1,0,.14c.06,0,.11-.21.21-.07v.12c.15,0,.35-.11.47,0l.09.16c.07,0,.18-.09.08-.15.23.12.38.15.45.29a3.78,3.78,0,0,1,1.51-.28v.08c.13.06,0-.14.15-.1s.11.16,0,.26c.2.07.23-.16.35-.21s-.09.08-.08-.06.26.06.26-.1c.06.06,0,.17,0,.24l.1-.09c.17.18-.27.36-.09.58l.1,0c.14.16-.26.22,0,.25.11-.1.17-.33.05-.39.24-.07,0-.37.31-.41.08.08-.2.06-.13.18s.22-.13.34-.12c-.13,0-.07-.2,0-.26s0,.18.13.14c0-.1.15-.22,0-.24,0-.22.2,0,.25-.18.1.12-.09.38.13.39-.07-.13.18-.26,0-.43a.17.17,0,0,1,.11.22c.13.05.17-.32.3-.07l0-.15.2.11c.1,0,.22-.28.3-.09,0,0,.22-.13.08-.23s-.09.18-.24,0c.15.11.16-.12.21-.2l0,.07c0-.06.13-.09.12-.19l.07.1v-.13c.14-.15.14.17.29.05l-.08.16s.13,0,.2,0l-.06-.37c.07-.09.11.1.14-.06l0,.19s.18.12.31,0,.09-.29-.07-.27c.06,0,.19,0,.18.07.12-.11-.08-.09,0-.22a2.59,2.59,0,0,0,.44,0v.26l.07-.06c0,.21.13,0,.17.23.07,0,.1-.12.13-.2-.32-.08,0-.43-.25-.58.16-.22.51.34.48-.13-.07,0-.1-.24-.18-.08.15-.08-.08-.25.14-.29,0,.16.29.08.23.31-.05-.06-.14,0-.15.07s.15.19.29.08.18-.18.07-.26-.11.11-.16,0c.14-.16.31-.05.18-.29-.06.12-.19,0-.26,0l.06-.15,0,.09c.19-.14-.08-.17.08-.33l.2,0c.09.15-.26.22,0,.36.11-.11,0-.24.18-.31l0,.12s.34.14.33-.16c0-.14-.05-.08-.13-.14.14-.21.11-.33.2-.45.13.13.19-.21.23,0a.38.38,0,0,0-.27.45c.23.07-.15.14,0,.32.14-.15.3,0,.43.06l0-.17c-.09-.1-.13,0-.25-.12a.65.65,0,0,0,.24-.54c.1,0,.2.07.15.15l.43-.71c-.27,0,.1-.28-.12-.26s-.3.12-.35,0,.09,0,.14,0,.25-.06.13-.24c0,.24.22.17.35.29,0-.21.1.06.19-.1l.1-.62c.23-.18.2-.62.26-.83s.28,0,.35-.07-.24,0-.09-.14l0,0c0-.08.25-.37,0-.49l.18.11V64c.06,0,.14,0,.16.05.2-.11,0-.3,0-.45l-.13.07c-.07-.27.07-.43.05-.69l.12,0-.06-.16a.1.1,0,0,0,.12-.17l.25.43c-.08.1-.13-.14-.26-.08s-.1.28,0,.34l0-.18c.17,0,.15.13.26.22s0-.12,0-.13a.48.48,0,0,1,.07.37c-.06-.12-.11,0-.16,0,.15,0,.18.2.11.39s0,.39-.12.61a.88.88,0,0,1-.21-.42c-.12.11-.05.15-.16.26.09.1.24.19.25.4l-.11,0c0,.18.16.24.06.44a4.43,4.43,0,0,1-.47.95l-.1,0c.14.25-.18.51-.19.75-.25.28-.31.76-.61.78a4.62,4.62,0,0,1-1.18,1.5l0-.2c0,.17-.13,0-.2.08.19,0,0,.23,0,.36-.31.09-.52.45-.67.71l-.07-.08c-.12.32-.52.32-.83.45,0,0-.16-.08-.24,0-.08.24-.17.28-.36.51a1.46,1.46,0,0,1-.72.15,5.54,5.54,0,0,1-2.19.75l-.07-.12c-.75.42-1.7.09-2.36.14l.09-.21c-.19-.09-.47,0-.44.17-.2-.08-.54,0-.62-.2s-.27,0-.45,0a2.62,2.62,0,0,0-.94-.32l.09,0c.06,0,.1-.12,0-.16s-.48-.26-.45,0c-.31-.34-1-.37-1.21-.75,0,.08-.11,0-.18.06-.35-.16-.53-.59-.85-.66,0-.07.15,0,0-.14s-.06.07-.18,0c-.59-.27-.85-.91-1.2-1.33a7.65,7.65,0,0,1-1.66-2.45h.05c-.31-.22,0-.78-.4-.92,0-.08-.07-.28,0-.26-.19-.21-.12-.69-.31-1l0,.08c.07-.38-.12-.68-.05-1.08l.1.12c.09-.16-.26-.34,0-.44,0-.08-.13-.05-.12,0,0-.84,0-1.74.09-2.63.33-.58.43.06.39-.46.06,0-.09,0,0,0,0-.2.36-.19.27-.36-.17,0-.06-.11-.15-.15.22-.33.35-.35.36-.67l.07,0c0-.4.25-.71.16-1.1a9.64,9.64,0,0,1,4-4.2,9,9,0,0,1,5.68-1,1.14,1.14,0,0,0,1,.22s-.06,0,0,.08c.07-.19.35.06.43-.09a15.36,15.36,0,0,1,2,.7c-.11,0-.22.07-.1.13l.18,0V53c.1,0,.23,0,.17-.11,1.85.68,3,2.38,4,3.84a7.88,7.88,0,0,0,.76,1.34c.3,1.43.33,2.62.56,4a1.19,1.19,0,0,1-.64-.72" transform="translate(0 -0.55)"/><path class="cls-5" d="M149.2,62.49c-.1,0-.16.19-.27.06.09,0,.19-.08.27-.06" transform="translate(0 -0.55)"/><path class="cls-5" d="M147.34,66s-.06,0-.08,0,0-.11,0-.12l.05.09" transform="translate(0 -0.55)"/><path class="cls-5" d="M146.85,66.76c-.06-.05,0-.26,0-.37l0,.37" transform="translate(0 -0.55)"/><path class="cls-5" d="M146.05,67.23c-.1,0-.12,0-.05-.09l.05.09" transform="translate(0 -0.55)"/><path class="cls-5" d="M146.15,67.4a.16.16,0,0,1-.16,0s.07-.15.16,0" transform="translate(0 -0.55)"/><path class="cls-5" d="M144.68,68.5s-.06.14-.15.1c.07,0,.1-.22.15-.1" transform="translate(0 -0.55)"/><path class="cls-5" d="M144.06,69.08l-.06,0c-.07,0-.05-.08,0-.1l.07.07" transform="translate(0 -0.55)"/><polyline class="cls-5" points="131.47 63.54 131.54 63.62 131.46 63.63 131.47 63.54"/><path class="cls-5" d="M132.65,57.33c0-.11.1,0,.11,0s-.06-.09-.11,0" transform="translate(0 -0.55)"/><polyline class="cls-5" points="135.2 53.87 135.18 53.89 135.1 53.74 135.2 53.87"/><rect class="cls-4" x="98.84" y="26.84" width="4.54" height="1.05"/><rect class="cls-4" x="96.81" y="52.6" width="3.31" height="1.05"/><path class="cls-4" d="M95.7,3.39a.95.95,0,1,1-1.89,0,.95.95,0,0,1,1.89,0" transform="translate(0 -0.55)"/><path class="cls-4" d="M109.39,28.55a.95.95,0,1,1-1.89,0,.95.95,0,0,1,1.89,0" transform="translate(0 -0.55)"/><path class="cls-4" d="M19.8,28.55a.95.95,0,1,1-.94-.94.94.94,0,0,1,.94.94" transform="translate(0 -0.55)"/><path class="cls-4" d="M74.72,53.54a.95.95,0,1,1-1.89,0,.95.95,0,0,1,1.89,0" transform="translate(0 -0.55)"/><path class="cls-4" d="M100.93,3.39a.95.95,0,1,1-.94-.94.95.95,0,0,1,.94.94" transform="translate(0 -0.55)"/><polyline class="cls-4" points="44.08 44.15 42.75 44.15 43.7 41.94 45.03 41.94 44.08 44.15"/></svg>